<svg width="148" height="124" viewBox="0 0 148 124" fill="none" xmlns="http://www.w3.org/2000/svg">
<g filter="url(#filter0_i_371_1007)">
<path d="M106.176 71.1127C106.176 100.322 82.4969 124.001 53.2876 124.001C24.0783 124.001 0.399536 100.322 0.399536 71.1127C0.399536 41.9034 24.0783 18.2246 53.2876 18.2246C82.4969 18.2246 106.176 41.9034 106.176 71.1127Z" fill="#121212"/>
</g>
<path fill-rule="evenodd" clip-rule="evenodd" d="M102.945 71.1108C102.945 98.5357 80.7125 120.768 53.2875 120.768C47.9922 120.768 42.8905 119.939 38.105 118.404C42.1464 115.816 43.7402 110.024 45.3767 104.078C46.5239 99.9095 47.692 95.6649 49.7388 92.3945C50.9794 90.4123 52.7372 88.699 54.466 87.014C57.4475 84.1079 60.3425 81.2863 60.348 77.3156C60.3532 73.6118 57.6395 71.0009 54.8435 68.3109C52.901 66.442 50.9188 64.5349 49.7812 62.1967C47.0369 56.5565 48.0562 49.2381 49.015 42.3547C50.2659 33.3737 51.4136 25.1333 43.9644 22.3272C46.9842 21.7536 50.1008 21.4534 53.2875 21.4534C80.7125 21.4534 102.945 43.6858 102.945 71.1108ZM106.176 71.1108C106.176 100.32 82.4968 123.999 53.2875 123.999C24.0782 123.999 0.399414 100.32 0.399414 71.1108C0.399414 41.9015 24.0782 18.2227 53.2875 18.2227C82.4968 18.2227 106.176 41.9015 106.176 71.1108Z" fill="url(#paint0_linear_371_1007)"/>
<g filter="url(#filter1_di_371_1007)">
<path fill-rule="evenodd" clip-rule="evenodd" d="M123.707 32.5825C131.736 32.5825 138.246 26.0734 138.246 18.044C138.246 10.0147 131.736 3.50558 123.707 3.50558C115.678 3.50558 109.169 10.0147 109.169 18.044C109.169 26.0734 115.678 32.5825 123.707 32.5825ZM123.707 35.4543C133.323 35.4543 141.117 27.6594 141.117 18.044C141.117 8.42862 133.323 0.633789 123.707 0.633789C114.092 0.633789 106.297 8.42862 106.297 18.044C106.297 27.6594 114.092 35.4543 123.707 35.4543Z" fill="url(#paint1_linear_371_1007)" shape-rendering="crispEdges"/>
</g>
<g filter="url(#filter2_di_371_1007)">
<path fill-rule="evenodd" clip-rule="evenodd" d="M93.0147 25.4171C96.988 25.4171 100.209 22.1961 100.209 18.2228C100.209 14.2495 96.988 11.0285 93.0147 11.0285C89.0414 11.0285 85.8204 14.2495 85.8204 18.2228C85.8204 22.1961 89.0414 25.4171 93.0147 25.4171ZM93.0147 26.8382C97.7728 26.8382 101.63 22.9809 101.63 18.2228C101.63 13.4647 97.7728 9.60742 93.0147 9.60742C88.2565 9.60742 84.3993 13.4647 84.3993 18.2228C84.3993 22.9809 88.2565 26.8382 93.0147 26.8382Z" fill="url(#paint2_linear_371_1007)" shape-rendering="crispEdges"/>
</g>
<defs>
<filter id="filter0_i_371_1007" x="0.399536" y="18.2246" width="108.965" height="105.776" filterUnits="userSpaceOnUse" color-interpolation-filters="sRGB">
<feFlood flood-opacity="0" result="BackgroundImageFix"/>
<feBlend mode="normal" in="SourceGraphic" in2="BackgroundImageFix" result="shape"/>
<feColorMatrix in="SourceAlpha" type="matrix" values="0 0 0 0 0 0 0 0 0 0 0 0 0 0 0 0 0 0 127 0" result="hardAlpha"/>
<feOffset dx="3.18865"/>
<feGaussianBlur stdDeviation="6.37729"/>
<feComposite in2="hardAlpha" operator="arithmetic" k2="-1" k3="1"/>
<feColorMatrix type="matrix" values="0 0 0 0 1 0 0 0 0 1 0 0 0 0 1 0 0 0 0.25 0"/>
<feBlend mode="normal" in2="shape" result="effect1_innerShadow_371_1007"/>
</filter>
<filter id="filter1_di_371_1007" x="99.9196" y="0.633789" width="47.575" height="47.5749" filterUnits="userSpaceOnUse" color-interpolation-filters="sRGB">
<feFlood flood-opacity="0" result="BackgroundImageFix"/>
<feColorMatrix in="SourceAlpha" type="matrix" values="0 0 0 0 0 0 0 0 0 0 0 0 0 0 0 0 0 0 127 0" result="hardAlpha"/>
<feOffset dy="6.37729"/>
<feGaussianBlur stdDeviation="3.18865"/>
<feComposite in2="hardAlpha" operator="out"/>
<feColorMatrix type="matrix" values="0 0 0 0 0 0 0 0 0 0 0 0 0 0 0 0 0 0 0.25 0"/>
<feBlend mode="normal" in2="BackgroundImageFix" result="effect1_dropShadow_371_1007"/>
<feBlend mode="normal" in="SourceGraphic" in2="effect1_dropShadow_371_1007" result="shape"/>
<feColorMatrix in="SourceAlpha" type="matrix" values="0 0 0 0 0 0 0 0 0 0 0 0 0 0 0 0 0 0 127 0" result="hardAlpha"/>
<feOffset dx="3.18865"/>
<feGaussianBlur stdDeviation="6.37729"/>
<feComposite in2="hardAlpha" operator="arithmetic" k2="-1" k3="1"/>
<feColorMatrix type="matrix" values="0 0 0 0 1 0 0 0 0 1 0 0 0 0 1 0 0 0 0.25 0"/>
<feBlend mode="normal" in2="shape" result="effect2_innerShadow_371_1007"/>
</filter>
<filter id="filter2_di_371_1007" x="81.2435" y="9.60742" width="23.5423" height="23.542" filterUnits="userSpaceOnUse" color-interpolation-filters="sRGB">
<feFlood flood-opacity="0" result="BackgroundImageFix"/>
<feColorMatrix in="SourceAlpha" type="matrix" values="0 0 0 0 0 0 0 0 0 0 0 0 0 0 0 0 0 0 127 0" result="hardAlpha"/>
<feOffset dy="3.15577"/>
<feGaussianBlur stdDeviation="1.57789"/>
<feComposite in2="hardAlpha" operator="out"/>
<feColorMatrix type="matrix" values="0 0 0 0 0 0 0 0 0 0 0 0 0 0 0 0 0 0 0.25 0"/>
<feBlend mode="normal" in2="BackgroundImageFix" result="effect1_dropShadow_371_1007"/>
<feBlend mode="normal" in="SourceGraphic" in2="effect1_dropShadow_371_1007" result="shape"/>
<feColorMatrix in="SourceAlpha" type="matrix" values="0 0 0 0 0 0 0 0 0 0 0 0 0 0 0 0 0 0 127 0" result="hardAlpha"/>
<feOffset dx="1.57789"/>
<feGaussianBlur stdDeviation="3.15577"/>
<feComposite in2="hardAlpha" operator="arithmetic" k2="-1" k3="1"/>
<feColorMatrix type="matrix" values="0 0 0 0 1 0 0 0 0 1 0 0 0 0 1 0 0 0 0.25 0"/>
<feBlend mode="normal" in2="shape" result="effect2_innerShadow_371_1007"/>
</filter>
<linearGradient id="paint0_linear_371_1007" x1="83.9869" y1="25.1228" x2="6.75094" y2="108.71" gradientUnits="userSpaceOnUse">
<stop offset="0.117708" stop-color="white"/>
<stop offset="0.632234" stop-color="white" stop-opacity="0.392708"/>
<stop offset="1" stop-color="white" stop-opacity="0"/>
</linearGradient>
<linearGradient id="paint1_linear_371_1007" x1="137.576" y1="-0.546565" x2="114.854" y2="38.7003" gradientUnits="userSpaceOnUse">
<stop stop-color="white"/>
<stop offset="0.461458" stop-color="white" stop-opacity="0.392708"/>
<stop offset="1" stop-color="white" stop-opacity="0"/>
</linearGradient>
<linearGradient id="paint2_linear_371_1007" x1="99.8778" y1="9.02333" x2="88.634" y2="28.4444" gradientUnits="userSpaceOnUse">
<stop stop-color="white"/>
<stop offset="0.461458" stop-color="white" stop-opacity="0.392708"/>
<stop offset="1" stop-color="white" stop-opacity="0"/>
</linearGradient>
</defs>
</svg>
