<svg width="117" height="117" viewBox="0 0 117 117" fill="none" xmlns="http://www.w3.org/2000/svg">
<g filter="url(#filter0_i_371_1025)">
<path d="M116.665 58.2098C116.665 90.3583 90.6035 116.42 58.4551 116.42C26.3067 116.42 0.245239 90.3583 0.245239 58.2098C0.245239 26.0614 26.3067 0 58.4551 0C90.6035 0 116.665 26.0614 116.665 58.2098Z" fill="#121212"/>
</g>
<path fill-rule="evenodd" clip-rule="evenodd" d="M64.1852 112.567C91.6767 109.703 113.109 86.4593 113.109 58.2098C113.109 28.0253 88.6398 3.55586 58.4552 3.55586C54.9537 3.55586 51.529 3.88514 48.2106 4.51443C54.4243 5.50293 61.0008 7.84752 62.1249 12.2832C63.1902 16.4873 59.2893 18.0689 55.0212 19.7995C51.8869 21.0703 48.5545 22.4215 46.8452 24.9504C46.1366 25.9989 45.8152 27.2983 45.5002 28.5717C45.0468 30.4046 44.6067 32.1837 43.0445 33.0827C41.3697 34.0465 39.4761 33.513 37.5258 32.9636L37.5258 32.9636C36.395 32.645 35.2452 32.321 34.108 32.2805C32.2316 32.2136 30.1585 32.7541 28.1226 33.285C24.3518 34.2681 20.7085 35.218 18.6784 32.2145C19.4733 28.9218 19.6085 26.8404 19.7198 25.1269C19.8577 23.0036 19.9589 21.4452 21.2333 18.8466C21.4361 18.433 21.6491 18.0184 21.8716 17.6051C10.776 27.6082 3.80122 42.0945 3.80122 58.2098C3.80122 66.7979 5.78205 74.9234 9.31176 82.1542C8.95964 75.8815 12.3591 69.6627 15.6447 64.1906C18.7618 58.9991 23.3036 54.5832 28.8653 52.2338C31.3616 51.1793 34.0781 51.6169 36.8078 52.0566C39.3427 52.465 41.8889 52.8751 44.2808 52.094C46.6709 51.3135 48.5525 49.3194 50.3982 47.3633C52.7341 44.8878 55.0124 42.4732 58.1912 42.657C63.5308 42.9657 67.0117 48.819 69.7717 53.4601L69.8381 53.5718C71.1002 55.6939 71.285 58.1651 71.4704 60.6439C71.6447 62.9751 71.8195 65.313 72.8916 67.3733C74.202 69.8918 76.4782 71.871 78.7192 73.8195C81.8055 76.503 84.8249 79.1283 85.1624 83.0238C85.5906 87.9663 82.0148 91.9916 78.5522 95.8895C77.5434 97.0251 76.5442 98.1499 75.6565 99.2834C74.7029 100.501 73.7857 101.798 72.8636 103.102C70.3024 106.725 67.7037 110.4 64.1852 112.567ZM58.4552 116.42C90.6036 116.42 116.665 90.3582 116.665 58.2098C116.665 26.0614 90.6036 0 58.4552 0C26.3068 0 0.245361 26.0614 0.245361 58.2098C0.245361 90.3582 26.3068 116.42 58.4552 116.42Z" fill="url(#paint0_linear_371_1025)"/>
<defs>
<filter id="filter0_i_371_1025" x="0.245239" y="0" width="119.929" height="116.42" filterUnits="userSpaceOnUse" color-interpolation-filters="sRGB">
<feFlood flood-opacity="0" result="BackgroundImageFix"/>
<feBlend mode="normal" in="SourceGraphic" in2="BackgroundImageFix" result="shape"/>
<feColorMatrix in="SourceAlpha" type="matrix" values="0 0 0 0 0 0 0 0 0 0 0 0 0 0 0 0 0 0 127 0" result="hardAlpha"/>
<feOffset dx="3.5095"/>
<feGaussianBlur stdDeviation="7.01899"/>
<feComposite in2="hardAlpha" operator="arithmetic" k2="-1" k3="1"/>
<feColorMatrix type="matrix" values="0 0 0 0 1 0 0 0 0 1 0 0 0 0 1 0 0 0 0.25 0"/>
<feBlend mode="normal" in2="shape" result="effect1_innerShadow_371_1025"/>
</filter>
<linearGradient id="paint0_linear_371_1025" x1="92.2437" y1="7.59448" x2="7.23599" y2="99.5922" gradientUnits="userSpaceOnUse">
<stop offset="0.117708" stop-color="white"/>
<stop offset="0.632234" stop-color="white" stop-opacity="0.392708"/>
<stop offset="1" stop-color="white" stop-opacity="0"/>
</linearGradient>
</defs>
</svg>
