<svg width="154" height="135" viewBox="0 0 154 135" fill="none" xmlns="http://www.w3.org/2000/svg">
<g filter="url(#filter0_i_371_970)">
<path d="M116.012 77.2016C116.012 108.983 90.2479 134.747 58.4665 134.747C26.6851 134.747 0.921112 108.983 0.921112 77.2016C0.921112 45.4202 26.6851 19.6562 58.4665 19.6562C90.2479 19.6562 116.012 45.4202 116.012 77.2016Z" fill="#121212"/>
</g>
<path fill-rule="evenodd" clip-rule="evenodd" d="M78.4523 31.9587C79.2639 30.0881 81.2644 29.3318 83.8364 29.485C76.2719 25.4547 67.636 23.1705 58.4665 23.1705C40.5264 23.1705 24.6285 31.9141 14.8017 45.3723C16.6535 45.8557 18.5178 46.316 20.3763 46.7749C28.3114 48.7343 36.1425 50.668 42.4582 54.2576C53.1249 60.3202 54.3878 74.7891 49.9697 86.2352C48.0237 91.2767 45.4667 94.8711 42.1163 94.1401C35.7351 92.7478 34.5076 96.7367 33.0869 101.354C32.3327 103.805 31.5241 106.432 29.8613 108.526C27.4419 111.573 21.1347 112.043 15.4785 109.936C25.3494 122.879 40.9326 131.231 58.4665 131.231C80.3654 131.231 99.2214 118.203 107.707 99.4742C102.06 100.565 98.1451 104.419 94.9423 108.001C86.7649 117.148 80.5143 103.96 83.9634 92.1855C85.0608 88.4393 85.9801 84.9938 85.8735 82.1489C85.0541 60.2993 81.0495 50.6219 78.7756 45.1268C77.7976 42.7634 77.1397 41.1736 77.193 39.7218C77.2872 37.1593 77.3881 34.4117 78.4523 31.9587ZM5.32348 99.3144C2.48723 92.5062 0.921143 85.0363 0.921143 77.2007C0.921143 45.4192 26.6851 19.6553 58.4665 19.6553C90.248 19.6553 116.012 45.4192 116.012 77.2007C116.012 108.982 90.248 134.746 58.4665 134.746C36.5992 134.746 17.5806 122.549 7.84301 104.587C6.65904 103.084 5.77213 101.327 5.32348 99.3144ZM60.6807 128.238C66.2892 128.238 70.8359 123.691 70.8359 118.083C70.8359 112.474 69.0233 101.288 63.4148 101.288C57.8062 101.288 47.4008 112.474 47.4008 118.083C47.4008 123.691 55.0721 128.238 60.6807 128.238Z" fill="url(#paint0_linear_371_970)"/>
<g filter="url(#filter1_di_371_970)">
<circle cx="128.057" cy="19.46" r="18.9434" fill="#121212"/>
<circle cx="128.057" cy="19.46" r="17.381" stroke="url(#paint1_linear_371_970)" stroke-width="3.12468"/>
</g>
<defs>
<filter id="filter0_i_371_970" x="0.921112" y="19.6562" width="118.56" height="115.091" filterUnits="userSpaceOnUse" color-interpolation-filters="sRGB">
<feFlood flood-opacity="0" result="BackgroundImageFix"/>
<feBlend mode="normal" in="SourceGraphic" in2="BackgroundImageFix" result="shape"/>
<feColorMatrix in="SourceAlpha" type="matrix" values="0 0 0 0 0 0 0 0 0 0 0 0 0 0 0 0 0 0 127 0" result="hardAlpha"/>
<feOffset dx="3.46944"/>
<feGaussianBlur stdDeviation="6.93887"/>
<feComposite in2="hardAlpha" operator="arithmetic" k2="-1" k3="1"/>
<feColorMatrix type="matrix" values="0 0 0 0 1 0 0 0 0 1 0 0 0 0 1 0 0 0 0.25 0"/>
<feBlend mode="normal" in2="shape" result="effect1_innerShadow_371_970"/>
</filter>
<filter id="filter1_di_371_970" x="102.174" y="0.516602" width="51.7645" height="51.7645" filterUnits="userSpaceOnUse" color-interpolation-filters="sRGB">
<feFlood flood-opacity="0" result="BackgroundImageFix"/>
<feColorMatrix in="SourceAlpha" type="matrix" values="0 0 0 0 0 0 0 0 0 0 0 0 0 0 0 0 0 0 127 0" result="hardAlpha"/>
<feOffset dy="6.93887"/>
<feGaussianBlur stdDeviation="3.46944"/>
<feComposite in2="hardAlpha" operator="out"/>
<feColorMatrix type="matrix" values="0 0 0 0 0 0 0 0 0 0 0 0 0 0 0 0 0 0 0.25 0"/>
<feBlend mode="normal" in2="BackgroundImageFix" result="effect1_dropShadow_371_970"/>
<feBlend mode="normal" in="SourceGraphic" in2="effect1_dropShadow_371_970" result="shape"/>
<feColorMatrix in="SourceAlpha" type="matrix" values="0 0 0 0 0 0 0 0 0 0 0 0 0 0 0 0 0 0 127 0" result="hardAlpha"/>
<feOffset dx="3.46944"/>
<feGaussianBlur stdDeviation="6.93887"/>
<feComposite in2="hardAlpha" operator="arithmetic" k2="-1" k3="1"/>
<feColorMatrix type="matrix" values="0 0 0 0 1 0 0 0 0 1 0 0 0 0 1 0 0 0 0.25 0"/>
<feBlend mode="normal" in2="shape" result="effect2_innerShadow_371_970"/>
</filter>
<linearGradient id="paint0_linear_371_970" x1="91.8693" y1="27.1631" x2="7.83198" y2="118.111" gradientUnits="userSpaceOnUse">
<stop offset="0.117708" stop-color="white"/>
<stop offset="0.632234" stop-color="white" stop-opacity="0.392708"/>
<stop offset="1" stop-color="white" stop-opacity="0"/>
</linearGradient>
<linearGradient id="paint1_linear_371_970" x1="143.147" y1="-0.767694" x2="118.424" y2="41.9352" gradientUnits="userSpaceOnUse">
<stop stop-color="white"/>
<stop offset="0.461458" stop-color="white" stop-opacity="0.392708"/>
<stop offset="1" stop-color="white" stop-opacity="0"/>
</linearGradient>
</defs>
</svg>
