<svg width="128" height="128" viewBox="0 0 128 128" fill="none" xmlns="http://www.w3.org/2000/svg">
<g filter="url(#filter0_i_371_989)">
<path d="M127.751 63.7514C127.751 98.9604 99.209 127.503 64 127.503C28.7911 127.503 0.248566 98.9604 0.248566 63.7514C0.248566 28.5425 28.7911 0 64 0C99.209 0 127.751 28.5425 127.751 63.7514Z" fill="#121212"/>
</g>
<path fill-rule="evenodd" clip-rule="evenodd" d="M123.857 63.7514C123.857 96.8096 97.0582 123.609 64 123.609C42.9729 123.609 24.4781 112.766 13.8013 96.3673C14.4067 95.3017 15.0962 93.9765 15.826 92.3841C16.8878 90.0677 16.873 85.3399 16.8575 80.3715C16.8382 74.2029 16.8178 67.6634 18.855 64.9072C22.533 59.931 25.9947 49.3297 22.9657 41.9736C21.0145 37.235 19.7741 29.3728 19.1766 24.0801C30.1429 11.699 46.16 3.89437 64 3.89437C97.0582 3.89437 123.857 30.6933 123.857 63.7514ZM127.751 63.7514C127.751 98.9604 99.2089 127.503 64 127.503C28.7911 127.503 0.248558 98.9604 0.248558 63.7514C0.248558 28.5425 28.7911 0 64 0C99.2089 0 127.751 28.5425 127.751 63.7514ZM89.4257 78.6435C86.2241 79.8721 82.9307 81.1358 79.9407 81.0161C78.2753 80.9494 76.9012 80.0106 75.5112 79.061C74.3814 78.2891 73.2411 77.5101 71.9253 77.1864C71.7461 77.1423 71.5667 77.0979 71.3871 77.0535L71.3793 77.0516C67.7174 76.1462 63.9893 75.2244 60.3555 76.1982C59.9463 76.3079 59.5224 76.4179 59.0888 76.5303L59.0863 76.531C54.4845 77.7247 48.7937 79.201 47.9418 83.6141C47.3774 86.5383 49.6655 88.697 52.0352 90.9326C53.8739 92.6673 55.7617 94.4483 56.4041 96.6691C56.9754 98.6439 56.321 100.79 55.6794 102.895C54.9131 105.409 54.1648 107.863 55.5443 109.895C57.6887 113.054 62.1574 113.268 66.1608 113.459L66.1618 113.459C66.7417 113.487 67.3119 113.514 67.8638 113.55C71.6848 113.797 75.5663 113.269 78.909 111.406C80.928 110.281 82.2111 108.398 83.5119 106.49C84.1705 105.524 84.8336 104.551 85.5991 103.666C86.4135 102.725 87.2567 101.837 88.0941 100.955C89.7433 99.2188 91.3703 97.5058 92.7115 95.4539C93.7992 93.79 95.4759 92.0367 97.172 90.2632L97.1721 90.2632C101.131 86.1237 105.195 81.8743 102.118 78.3954C99.0654 74.9446 94.3543 76.7524 89.4257 78.6435ZM74.4036 12.9009C75.986 13.6221 77.377 14.6062 78.7652 15.5884C80.2804 16.6604 81.7924 17.7302 83.5469 18.4535C85.4302 19.23 87.4493 19.5429 89.4519 19.8533C92.1942 20.2783 94.9057 20.6986 97.1955 22.2977C98.2701 23.0482 99.4608 23.8052 100.686 24.5839L100.686 24.584C106.316 28.1628 112.669 32.2016 111.809 38.1907C110.915 44.4134 103.193 46.5351 96.5918 48.3487L96.5917 48.3487C95.4543 48.6612 94.3503 48.9645 93.3203 49.2781C91.1202 49.9479 88.7653 49.23 86.4427 48.5219C83.7957 47.7149 81.1906 46.9207 78.9044 48.208C75.8659 49.919 74.1854 53.2929 72.5301 56.6163C70.6324 60.4264 68.7677 64.1702 64.9276 65.2659C58.2294 67.1772 49.7581 63.4699 45.9269 57.6176C42.5878 52.5168 44.1773 45.8721 45.6521 39.7072L45.6522 39.707C45.8841 38.7374 46.1133 37.7795 46.3199 36.8414C46.9544 33.9614 48.5522 31.5603 50.1625 29.1402C51.4251 27.2428 52.6955 25.3337 53.5153 23.1729C54.2978 21.111 54.349 18.5963 54.3993 16.133C54.4808 12.1349 54.5596 8.2721 57.7571 6.69969C61.5782 4.8206 65.5447 7.42 69.4781 9.99774C71.1301 11.0804 72.7764 12.1593 74.4036 12.9009Z" fill="url(#paint0_linear_371_989)"/>
<defs>
<filter id="filter0_i_371_989" x="0.248566" y="0" width="131.346" height="127.503" filterUnits="userSpaceOnUse" color-interpolation-filters="sRGB">
<feFlood flood-opacity="0" result="BackgroundImageFix"/>
<feBlend mode="normal" in="SourceGraphic" in2="BackgroundImageFix" result="shape"/>
<feColorMatrix in="SourceAlpha" type="matrix" values="0 0 0 0 0 0 0 0 0 0 0 0 0 0 0 0 0 0 127 0" result="hardAlpha"/>
<feOffset dx="3.8436"/>
<feGaussianBlur stdDeviation="7.6872"/>
<feComposite in2="hardAlpha" operator="arithmetic" k2="-1" k3="1"/>
<feColorMatrix type="matrix" values="0 0 0 0 1 0 0 0 0 1 0 0 0 0 1 0 0 0 0.25 0"/>
<feBlend mode="normal" in2="shape" result="effect1_innerShadow_371_989"/>
</filter>
<linearGradient id="paint0_linear_371_989" x1="152.346" y1="-25.5298" x2="40.6596" y2="166.319" gradientUnits="userSpaceOnUse">
<stop offset="0.117708" stop-color="white"/>
<stop offset="0.632234" stop-color="white" stop-opacity="0.392708"/>
<stop offset="1" stop-color="white" stop-opacity="0"/>
</linearGradient>
</defs>
</svg>
