<svg width="308" height="270" viewBox="0 0 308 270" fill="none" xmlns="http://www.w3.org/2000/svg">
<g filter="url(#filter0_i_300_8)">
<path d="M231.503 154.248C231.503 218.176 179.679 270 115.751 270C51.8237 270 0 218.176 0 154.248C0 90.3207 51.8237 38.4971 115.751 38.4971C179.679 38.4971 231.503 90.3207 231.503 154.248Z" fill="#121212"/>
</g>
<path fill-rule="evenodd" clip-rule="evenodd" d="M155.952 63.245C157.585 59.4824 161.609 57.9611 166.782 58.2692C151.566 50.1624 134.195 45.568 115.751 45.568C79.6649 45.568 47.6863 63.1558 27.9199 90.2272C31.6448 91.1995 35.3948 92.1254 39.1332 93.0485L39.1338 93.0487C55.0949 96.9899 70.847 100.879 83.551 108.1C105.007 120.295 107.547 149.399 98.6602 172.422C94.746 182.563 89.6026 189.793 82.8633 188.323C70.0276 185.522 67.5586 193.546 64.7008 202.833C63.1838 207.763 61.5573 213.049 58.2125 217.261C53.3462 223.389 40.66 224.334 29.2827 220.096C49.138 246.129 80.4828 262.929 115.751 262.929C159.801 262.929 197.729 236.723 214.797 199.051C203.438 201.246 195.564 208.997 189.122 216.203C172.673 234.601 160.1 208.074 167.038 184.39C169.245 176.855 171.094 169.924 170.88 164.202C169.232 120.252 161.177 100.786 156.603 89.7323L156.603 89.7322C154.635 84.9784 153.312 81.7806 153.419 78.8603C153.609 73.7058 153.812 68.1791 155.952 63.245ZM8.85487 198.729C3.15004 185.035 0 170.009 0 154.248C0 90.3207 51.8237 38.4971 115.751 38.4971C179.679 38.4971 231.503 90.3207 231.503 154.248C231.503 218.176 179.679 270 115.751 270C71.7668 270 33.5121 245.467 13.9247 209.338C11.5421 206.315 9.75737 202.779 8.85487 198.729ZM120.205 256.909C131.487 256.909 140.632 247.764 140.632 236.482C140.632 225.2 136.986 202.699 125.705 202.699C114.423 202.699 93.4929 225.2 93.4929 236.482C93.4929 247.764 108.924 256.909 120.205 256.909Z" fill="url(#paint0_linear_300_8)"/>
<g filter="url(#filter1_di_300_8)">
<circle cx="255.731" cy="38.1042" r="38.1042" fill="#121212"/>
<circle cx="255.731" cy="38.1042" r="34.9616" stroke="url(#paint1_linear_300_8)" stroke-width="6.28523"/>
</g>
<defs>
<filter id="filter0_i_300_8" x="0" y="38.4971" width="238.482" height="231.503" filterUnits="userSpaceOnUse" color-interpolation-filters="sRGB">
<feFlood flood-opacity="0" result="BackgroundImageFix"/>
<feBlend mode="normal" in="SourceGraphic" in2="BackgroundImageFix" result="shape"/>
<feColorMatrix in="SourceAlpha" type="matrix" values="0 0 0 0 0 0 0 0 0 0 0 0 0 0 0 0 0 0 127 0" result="hardAlpha"/>
<feOffset dx="6.9787"/>
<feGaussianBlur stdDeviation="13.9574"/>
<feComposite in2="hardAlpha" operator="arithmetic" k2="-1" k3="1"/>
<feColorMatrix type="matrix" values="0 0 0 0 1 0 0 0 0 1 0 0 0 0 1 0 0 0 0.25 0"/>
<feBlend mode="normal" in2="shape" result="effect1_innerShadow_300_8"/>
</filter>
<filter id="filter1_di_300_8" x="203.669" y="0" width="104.123" height="104.123" filterUnits="userSpaceOnUse" color-interpolation-filters="sRGB">
<feFlood flood-opacity="0" result="BackgroundImageFix"/>
<feColorMatrix in="SourceAlpha" type="matrix" values="0 0 0 0 0 0 0 0 0 0 0 0 0 0 0 0 0 0 127 0" result="hardAlpha"/>
<feOffset dy="13.9574"/>
<feGaussianBlur stdDeviation="6.9787"/>
<feComposite in2="hardAlpha" operator="out"/>
<feColorMatrix type="matrix" values="0 0 0 0 0 0 0 0 0 0 0 0 0 0 0 0 0 0 0.25 0"/>
<feBlend mode="normal" in2="BackgroundImageFix" result="effect1_dropShadow_300_8"/>
<feBlend mode="normal" in="SourceGraphic" in2="effect1_dropShadow_300_8" result="shape"/>
<feColorMatrix in="SourceAlpha" type="matrix" values="0 0 0 0 0 0 0 0 0 0 0 0 0 0 0 0 0 0 127 0" result="hardAlpha"/>
<feOffset dx="6.9787"/>
<feGaussianBlur stdDeviation="13.9574"/>
<feComposite in2="hardAlpha" operator="arithmetic" k2="-1" k3="1"/>
<feColorMatrix type="matrix" values="0 0 0 0 1 0 0 0 0 1 0 0 0 0 1 0 0 0 0.25 0"/>
<feBlend mode="normal" in2="shape" result="effect2_innerShadow_300_8"/>
</filter>
<linearGradient id="paint0_linear_300_8" x1="182.94" y1="53.5989" x2="13.901" y2="236.538" gradientUnits="userSpaceOnUse">
<stop offset="0.117708" stop-color="white"/>
<stop offset="0.632234" stop-color="white" stop-opacity="0.392708"/>
<stop offset="1" stop-color="white" stop-opacity="0"/>
</linearGradient>
<linearGradient id="paint1_linear_300_8" x1="286.085" y1="-2.58334" x2="236.355" y2="83.3126" gradientUnits="userSpaceOnUse">
<stop stop-color="white"/>
<stop offset="0.461458" stop-color="white" stop-opacity="0.392708"/>
<stop offset="1" stop-color="white" stop-opacity="0"/>
</linearGradient>
</defs>
</svg>
