<svg width="233" height="232" viewBox="0 0 233 232" fill="none" xmlns="http://www.w3.org/2000/svg">
<g filter="url(#filter0_i_300_31)">
<path d="M232.124 116.248C232.124 180.176 180.301 232 116.373 232C52.4453 232 0.621582 180.176 0.621582 116.248C0.621582 52.3207 52.4453 0.49707 116.373 0.49707C180.301 0.49707 232.124 52.3207 232.124 116.248Z" fill="#121212"/>
</g>
<path fill-rule="evenodd" clip-rule="evenodd" d="M127.765 224.339C182.433 218.645 225.054 172.424 225.054 116.248C225.054 56.2259 176.396 7.56796 116.373 7.56796C109.411 7.56796 102.602 8.22259 96.0038 9.47366C108.359 11.4395 121.435 16.1018 123.67 24.9217C125.789 33.2815 118.032 36.4267 109.545 39.8679C103.312 42.395 96.6854 45.0818 93.2864 50.1107C91.8773 52.1955 91.2381 54.7795 90.6118 57.3117C89.7102 60.9565 88.8352 64.4941 85.7287 66.2818C82.3983 68.1984 78.6327 67.1375 74.7547 66.0449C72.5061 65.4114 70.2196 64.7672 67.9582 64.6867C64.227 64.5537 60.1046 65.6285 56.056 66.6841C48.5579 68.639 41.3131 70.5279 37.2763 64.5554C38.8568 58.0078 39.1256 53.8689 39.347 50.4617C39.6213 46.2393 39.8226 43.1404 42.3566 37.9732C42.7598 37.151 43.1829 36.3272 43.6252 35.5056C21.5618 55.3971 7.69247 84.2031 7.69247 116.248C7.69247 133.326 11.6315 149.484 18.6505 163.863C17.9495 151.389 24.7097 139.022 31.2435 128.14C37.442 117.816 46.4734 109.035 57.533 104.364C62.4969 102.267 67.8988 103.137 73.3269 104.011C78.3675 104.823 83.4307 105.639 88.187 104.086C92.9398 102.534 96.6814 98.5682 100.352 94.6786C104.997 89.7559 109.527 84.9544 115.848 85.3199C126.466 85.9338 133.388 97.5733 138.876 106.802L139.008 107.024C141.518 111.244 141.885 116.158 142.254 121.087C142.601 125.723 142.948 130.372 145.08 134.469C147.686 139.477 152.212 143.412 156.669 147.287C162.806 152.623 168.81 157.844 169.481 165.59C170.332 175.418 163.222 183.423 156.336 191.174C154.33 193.432 152.344 195.669 150.578 197.923C148.682 200.344 146.858 202.923 145.025 205.517C139.931 212.721 134.763 220.03 127.765 224.339ZM116.373 232C180.301 232 232.124 180.176 232.124 116.248C232.124 52.3207 180.301 0.49707 116.373 0.49707C52.4453 0.49707 0.621582 52.3207 0.621582 116.248C0.621582 180.176 52.4453 232 116.373 232Z" fill="url(#paint0_linear_300_31)"/>
<defs>
<filter id="filter0_i_300_31" x="0.621582" y="0.49707" width="238.482" height="231.503" filterUnits="userSpaceOnUse" color-interpolation-filters="sRGB">
<feFlood flood-opacity="0" result="BackgroundImageFix"/>
<feBlend mode="normal" in="SourceGraphic" in2="BackgroundImageFix" result="shape"/>
<feColorMatrix in="SourceAlpha" type="matrix" values="0 0 0 0 0 0 0 0 0 0 0 0 0 0 0 0 0 0 127 0" result="hardAlpha"/>
<feOffset dx="6.9787"/>
<feGaussianBlur stdDeviation="13.9574"/>
<feComposite in2="hardAlpha" operator="arithmetic" k2="-1" k3="1"/>
<feColorMatrix type="matrix" values="0 0 0 0 1 0 0 0 0 1 0 0 0 0 1 0 0 0 0.25 0"/>
<feBlend mode="normal" in2="shape" result="effect1_innerShadow_300_31"/>
</filter>
<linearGradient id="paint0_linear_300_31" x1="183.562" y1="15.5989" x2="14.5226" y2="198.538" gradientUnits="userSpaceOnUse">
<stop offset="0.117708" stop-color="white"/>
<stop offset="0.632234" stop-color="white" stop-opacity="0.392708"/>
<stop offset="1" stop-color="white" stop-opacity="0"/>
</linearGradient>
</defs>
</svg>
