<svg width="461" height="467" viewBox="0 0 461 467" fill="none" xmlns="http://www.w3.org/2000/svg">
<g opacity="0.3">
<path opacity="0.0344828" d="M122.456 98.979C124.587 97.4869 127.383 96.9138 130.862 97.3083C134.349 97.7038 138.458 99.0667 143.114 101.368C152.423 105.969 163.726 114.227 176.285 125.521C201.391 148.097 231.351 182.655 260.193 223.846C289.035 265.037 311.262 305.009 323.89 336.323C330.207 351.987 334.101 365.433 335.241 375.755C335.811 380.916 335.687 385.244 334.866 388.656C334.046 392.06 332.552 394.491 330.421 395.983C328.29 397.475 325.494 398.048 322.015 397.654C318.528 397.258 314.418 395.895 309.763 393.594C300.454 388.993 289.151 380.735 276.592 369.441C251.486 346.865 221.526 312.307 192.684 271.116C163.842 229.925 141.615 189.953 128.987 158.639C122.669 142.975 118.776 129.529 117.636 119.208C117.066 114.046 117.19 109.719 118.011 106.306C118.83 102.902 120.325 100.471 122.456 98.979Z" stroke="white" stroke-width="2"/>
<path opacity="0.0689655" d="M136.171 89.0762C138.424 87.7754 141.259 87.4482 144.69 88.1444C148.13 88.8423 152.105 90.5581 156.542 93.2561C165.415 98.6516 175.955 107.863 187.482 120.208C210.524 144.887 237.358 181.925 262.501 225.473C287.643 269.02 306.302 310.778 316.153 343.073C321.081 359.229 323.788 372.962 324.024 383.344C324.142 388.535 323.641 392.836 322.525 396.163C321.413 399.483 319.712 401.775 317.459 403.075C315.206 404.376 312.371 404.703 308.939 404.007C305.5 403.309 301.525 401.593 297.088 398.895C288.215 393.5 277.675 384.289 266.148 371.943C243.105 347.264 216.272 310.227 191.129 266.679C165.987 223.131 147.328 181.373 137.477 149.078C132.549 132.923 129.842 119.189 129.606 108.808C129.488 103.616 129.989 99.3158 131.105 95.9882C132.217 92.6686 133.918 90.3769 136.171 89.0762Z" stroke="white" stroke-width="2"/>
<path opacity="0.103448" d="M150.576 80.3676C152.934 79.2682 155.787 79.1893 159.144 80.1819C162.51 81.1769 166.32 83.2326 170.505 86.3071C178.874 92.4553 188.571 102.55 198.978 115.853C219.782 142.446 243.286 181.682 264.537 227.255C285.788 272.829 300.737 316.054 307.736 349.084C311.237 365.608 312.737 379.525 312.067 389.888C311.732 395.07 310.858 399.31 309.457 402.528C308.059 405.738 306.165 407.873 303.807 408.972C301.449 410.072 298.596 410.15 295.239 409.158C291.873 408.163 288.063 406.107 283.878 403.033C275.509 396.884 265.812 386.79 255.405 373.487C234.601 346.893 211.097 307.658 189.846 262.084C168.595 216.511 153.647 173.286 146.648 140.255C143.146 123.732 141.647 109.815 142.316 99.4517C142.651 94.2697 143.525 90.0295 144.927 86.8118C146.324 83.6017 148.219 81.467 150.576 80.3676Z" stroke="white" stroke-width="2"/>
<path opacity="0.137931" d="M165.564 72.9094C168.009 72.0196 170.858 72.1897 174.116 73.4712C177.382 74.7557 180.999 77.1357 184.9 80.5632C192.701 87.4174 201.481 98.3189 210.689 112.478C229.096 140.784 249.091 181.918 266.29 229.171C283.488 276.423 294.612 320.786 298.705 354.301C300.753 371.067 301.034 385.062 299.464 395.327C298.679 400.46 297.438 404.608 295.762 407.691C294.09 410.767 292.017 412.729 289.572 413.618C287.128 414.508 284.279 414.338 281.021 413.057C277.755 411.772 274.138 409.392 270.237 405.965C262.436 399.11 253.656 388.209 244.447 374.049C226.04 345.744 206.045 304.609 188.847 257.357C171.649 210.105 160.525 165.742 156.431 132.227C154.383 115.461 154.102 101.466 155.672 91.201C156.458 86.0679 157.698 81.92 159.374 78.8366C161.047 75.7607 163.12 73.7992 165.564 72.9094Z" stroke="white" stroke-width="2"/>
<path opacity="0.172414" d="M181.024 66.7481C183.537 66.0747 186.36 66.4925 189.494 68.053C192.636 69.6173 196.031 72.3035 199.619 76.0579C206.793 83.5659 214.59 95.1912 222.529 110.099C238.399 139.901 254.733 182.622 267.747 231.193C280.762 279.765 287.977 324.929 289.134 358.673C289.713 375.553 288.773 389.52 286.314 399.609C285.084 404.654 283.487 408.678 281.549 411.603C279.615 414.522 277.378 416.295 274.866 416.969C272.353 417.642 269.53 417.224 266.395 415.664C263.254 414.099 259.858 411.413 256.271 407.659C249.097 400.151 241.3 388.525 233.361 373.617C217.491 343.815 201.157 301.094 188.143 252.523C175.128 203.952 167.913 158.788 166.756 125.044C166.177 108.163 167.117 94.1971 169.576 84.1079C170.805 79.0628 172.403 75.0388 174.341 72.1133C176.275 69.1947 178.511 67.4214 181.024 66.7481Z" stroke="white" stroke-width="2"/>
<path opacity="0.206897" d="M196.841 61.9192C199.403 61.4674 202.179 62.1296 205.166 63.9574C208.159 65.7895 211.307 68.7614 214.554 72.8142C221.046 80.9189 227.8 93.1795 234.41 108.723C247.622 139.795 260.17 183.776 268.902 233.297C277.634 282.818 280.885 328.439 279.097 362.156C278.202 379.022 276.049 392.853 272.72 402.69C271.055 407.609 269.113 411.478 266.927 414.223C264.746 416.962 262.364 418.534 259.802 418.986C257.24 419.438 254.464 418.775 251.478 416.948C248.484 415.115 245.336 412.144 242.09 408.091C235.597 399.986 228.843 387.725 222.234 372.182C209.021 341.11 196.473 297.129 187.741 247.608C179.01 198.087 175.758 152.466 177.547 118.749C178.441 101.883 180.595 88.0516 183.924 78.2151C185.588 73.2964 187.53 69.427 189.716 66.6815C191.897 63.9426 194.279 62.3709 196.841 61.9192Z" stroke="white" stroke-width="2"/>
<path opacity="0.241379" d="M212.898 58.4485C215.49 58.2218 218.198 59.1234 221.013 61.2045C223.835 63.2906 226.713 66.5255 229.594 70.8459C235.355 79.4856 241.015 92.2881 246.244 108.348C256.698 140.453 265.365 185.362 269.748 235.455C274.131 285.548 273.393 331.279 268.673 364.711C266.312 381.436 262.961 395.027 258.788 404.536C256.701 409.291 254.429 412.976 252.012 415.521C249.6 418.059 247.09 419.417 244.499 419.644C241.907 419.871 239.199 418.969 236.384 416.888C233.562 414.802 230.684 411.567 227.803 407.247C222.042 398.607 216.382 385.804 211.153 369.744C200.699 337.639 192.032 292.731 187.649 242.638C183.266 192.544 184.003 146.813 188.724 113.381C191.085 96.6564 194.436 83.0656 198.609 73.5566C200.696 68.8017 202.968 65.1162 205.385 62.5718C207.797 60.0334 210.307 58.6753 212.898 58.4485Z" stroke="white" stroke-width="2"/>
<path opacity="0.275862" d="M229.075 56.3538C231.676 56.3538 234.295 57.488 236.919 59.8065C239.548 62.1307 242.133 65.6041 244.626 70.159C249.613 79.2681 254.135 92.5152 257.945 108.97C265.561 141.864 270.281 187.357 270.281 237.641C270.281 287.926 265.561 333.418 257.945 366.312C254.135 382.767 249.613 396.015 244.626 405.124C242.133 409.679 239.548 413.152 236.919 415.476C234.295 417.795 231.676 418.929 229.075 418.929C226.473 418.929 223.855 417.795 221.231 415.476C218.601 413.152 216.017 409.679 213.523 405.124C208.537 396.015 204.015 382.767 200.205 366.312C192.589 333.418 187.869 287.926 187.869 237.641C187.869 187.357 192.589 141.864 200.205 108.97C204.015 92.5152 208.537 79.2681 213.523 70.159C216.017 65.6041 218.601 62.1307 221.231 59.8065C223.855 57.488 226.473 56.3538 229.075 56.3538Z" stroke="white" stroke-width="2"/>
<path opacity="0.310345" d="M245.252 55.6379C247.843 55.8646 250.353 57.2227 252.765 59.7611C255.182 62.3056 257.454 65.991 259.541 70.746C263.714 80.2549 267.065 93.8458 269.426 110.57C274.146 144.003 274.884 189.734 270.501 239.827C266.118 289.92 257.451 334.828 246.997 366.933C241.768 382.994 236.108 395.796 230.347 404.436C227.466 408.756 224.588 411.991 221.766 414.077C218.951 416.158 216.243 417.06 213.651 416.833C211.06 416.606 208.55 415.248 206.138 412.71C203.721 410.165 201.449 406.48 199.362 401.725C195.189 392.216 191.838 378.625 189.477 361.901C184.757 328.468 184.019 282.737 188.402 232.644C192.785 182.551 201.452 137.643 211.906 105.538C217.135 89.4775 222.795 76.6749 228.556 68.0352C231.437 63.7149 234.315 60.4799 237.137 58.3938C239.952 56.3128 242.66 55.4111 245.252 55.6379Z" stroke="white" stroke-width="2"/>
<path opacity="0.344828" d="M261.309 56.2964C263.87 56.7482 266.253 58.3199 268.434 61.0588C270.62 63.8042 272.562 67.6737 274.226 72.5924C277.555 82.4289 279.709 96.2601 280.603 113.127C282.392 146.843 279.14 192.465 270.409 241.985C261.677 291.506 249.129 335.488 235.916 366.559C229.307 382.103 222.553 394.363 216.06 402.468C212.814 406.521 209.666 409.493 206.672 411.325C203.686 413.153 200.91 413.815 198.348 413.363C195.786 412.911 193.404 411.34 191.223 408.601C189.037 405.855 187.095 401.986 185.43 397.067C182.101 387.231 179.948 373.399 179.053 356.533C177.265 322.816 180.516 277.195 189.248 227.674C197.98 178.154 210.528 134.172 223.74 103.1C230.35 87.5568 237.104 75.2962 243.596 67.1915C246.843 63.1387 249.991 60.1668 252.984 58.3347C255.97 56.5069 258.747 55.8447 261.309 56.2964Z" stroke="white" stroke-width="2"/>
<path opacity="0.37931" d="M277.126 58.3132C279.639 58.9865 281.875 60.7599 283.809 63.6784C285.747 66.604 287.345 70.6279 288.574 75.673C291.033 85.7622 291.973 99.7284 291.394 116.609C290.237 150.353 283.022 195.517 270.007 244.088C256.993 292.66 240.659 335.38 224.789 365.182C216.85 380.091 209.053 391.716 201.879 399.224C198.292 402.978 194.896 405.664 191.755 407.229C188.62 408.789 185.797 409.207 183.284 408.534C180.772 407.86 178.535 406.087 176.602 403.169C174.663 400.243 173.066 396.219 171.836 391.174C169.377 381.085 168.437 367.118 169.016 350.238C170.173 316.494 177.388 271.33 190.403 222.758C203.417 174.187 219.751 131.466 235.621 101.665C243.56 86.7563 251.357 75.1311 258.531 67.623C262.119 63.8686 265.514 61.1825 268.656 59.6181C271.79 58.0576 274.613 57.6399 277.126 58.3132Z" stroke="white" stroke-width="2"/>
<path opacity="0.413793" d="M292.586 61.6628C295.03 62.5525 297.103 64.514 298.776 67.59C300.452 70.6734 301.693 74.8213 302.478 79.9544C304.048 90.2195 303.767 104.214 301.719 120.98C297.626 154.495 286.501 198.859 269.303 246.111C252.105 293.363 232.11 334.497 213.703 362.803C204.495 376.962 195.714 387.864 187.913 394.718C184.012 398.145 180.396 400.526 177.13 401.81C173.871 403.092 171.022 403.262 168.578 402.372C166.133 401.482 164.06 399.521 162.388 396.445C160.712 393.361 159.471 389.213 158.686 384.08C157.116 373.815 157.397 359.82 159.445 343.054C163.538 309.539 174.662 265.176 191.861 217.924C209.059 170.672 229.054 129.537 247.461 101.232C256.669 87.0722 265.449 76.1708 273.251 69.3166C277.152 65.8891 280.768 63.5091 284.034 62.2245C287.292 60.9431 290.141 60.773 292.586 61.6628Z" stroke="white" stroke-width="2"/>
<path opacity="0.448276" d="M307.574 66.3091C309.932 67.4086 311.826 69.5433 313.224 72.7533C314.625 75.9711 315.499 80.2113 315.834 85.3933C316.504 95.7562 315.004 109.673 311.503 126.197C304.504 159.228 289.555 202.453 268.304 248.026C247.053 293.599 223.549 332.835 202.745 359.428C192.338 372.731 182.641 382.826 174.272 388.974C170.087 392.049 166.277 394.104 162.911 395.099C159.554 396.092 156.701 396.013 154.343 394.914C151.985 393.814 150.091 391.68 148.693 388.47C147.292 385.252 146.418 381.012 146.083 375.83C145.414 365.467 146.913 351.549 150.415 335.026C157.414 301.995 172.362 258.77 193.613 213.197C214.864 167.624 238.368 128.388 259.172 101.795C269.579 88.4916 279.276 78.3968 287.645 72.2486C291.83 69.1742 295.64 67.1185 299.006 66.1234C302.363 65.1308 305.216 65.2097 307.574 66.3091Z" stroke="white" stroke-width="2"/>
<path opacity="0.482759" d="M321.979 72.2066C324.232 73.5074 325.933 75.7991 327.045 79.1187C328.161 82.4463 328.662 86.7466 328.544 91.938C328.308 102.32 325.601 116.053 320.673 132.209C310.822 164.504 292.163 206.262 267.021 249.809C241.878 293.357 215.045 330.395 192.002 355.074C180.475 367.419 169.935 376.63 161.062 382.026C156.625 384.724 152.65 386.44 149.211 387.138C145.779 387.834 142.944 387.507 140.691 386.206C138.438 384.905 136.737 382.613 135.625 379.294C134.509 375.966 134.008 371.666 134.126 366.474C134.362 356.093 137.069 342.359 141.997 326.204C151.848 293.909 170.507 252.151 195.649 208.603C220.792 165.055 247.626 128.018 270.668 103.339C282.195 90.9932 292.735 81.782 301.608 76.3866C306.045 73.6886 310.02 71.9728 313.46 71.2749C316.891 70.5787 319.726 70.9059 321.979 72.2066Z" stroke="white" stroke-width="2"/>
<path opacity="0.517241" d="M335.694 79.2982C337.825 80.7903 339.32 83.2215 340.139 86.6255C340.96 90.0377 341.085 94.3653 340.515 99.5267C339.375 109.848 335.481 123.294 329.164 138.958C316.535 170.272 294.308 210.244 265.466 251.435C236.624 292.626 206.664 327.184 181.558 349.761C168.999 361.054 157.696 369.312 148.387 373.914C143.732 376.215 139.622 377.577 136.135 377.973C132.656 378.367 129.861 377.794 127.73 376.302C125.599 374.81 124.104 372.379 123.285 368.975C122.464 365.563 122.339 361.235 122.909 356.074C124.049 345.752 127.943 332.307 134.26 316.642C146.888 285.329 169.116 245.356 197.958 204.165C226.8 162.975 256.76 128.416 281.866 105.84C294.425 94.5459 305.727 86.2884 315.037 81.6868C319.692 79.3858 323.801 78.0229 327.288 77.6275C330.767 77.2329 333.563 77.806 335.694 79.2982Z" stroke="white" stroke-width="2"/>
<path opacity="0.551724" d="M348.618 87.5204C350.611 89.1926 351.888 91.7448 352.407 95.2073C352.928 98.678 352.675 103 351.657 108.092C349.622 118.275 344.571 131.33 336.912 146.384C321.603 176.478 295.977 214.361 263.654 252.882C231.332 291.402 198.474 323.217 171.496 343.52C158 353.676 146.021 360.917 136.346 364.69C131.508 366.576 127.296 367.576 123.787 367.666C120.287 367.756 117.552 366.941 115.559 365.269C113.566 363.597 112.289 361.045 111.77 357.582C111.249 354.111 111.502 349.789 112.52 344.697C114.555 334.514 119.606 321.459 127.264 306.405C142.574 276.311 168.2 238.428 200.523 199.908C232.845 161.388 265.703 129.572 292.681 109.27C306.177 99.1132 318.156 91.8723 327.831 88.0996C332.669 86.213 336.881 85.2135 340.39 85.1235C343.89 85.0336 346.625 85.8482 348.618 87.5204Z" stroke="white" stroke-width="2"/>
<path opacity="0.586207" d="M360.655 96.7991C362.494 98.6387 363.544 101.293 363.76 104.787C363.976 108.29 363.347 112.573 361.89 117.557C358.974 127.524 352.805 140.089 343.864 154.419C325.99 183.064 297.159 218.569 261.602 254.126C226.046 289.683 190.54 318.513 161.895 336.387C147.566 345.329 135.001 351.498 125.034 354.413C120.05 355.871 115.766 356.499 112.263 356.283C108.769 356.068 106.115 355.018 104.276 353.178C102.436 351.339 101.386 348.685 101.171 345.19C100.954 341.688 101.583 337.404 103.041 332.42C105.956 322.453 112.125 309.888 121.067 295.559C138.941 266.914 167.771 231.408 203.328 195.852C238.884 160.295 274.39 131.464 303.035 113.59C317.365 104.649 329.93 98.4795 339.896 95.5644C344.88 94.1067 349.164 93.4781 352.667 93.6942C356.161 93.9098 358.815 94.9596 360.655 96.7991Z" stroke="white" stroke-width="2"/>
<path opacity="0.62069" d="M371.716 107.054C373.388 109.047 374.203 111.782 374.113 115.282C374.023 118.79 373.023 123.003 371.137 127.841C367.364 137.516 360.123 149.495 349.967 162.991C329.664 189.969 297.849 222.827 259.329 255.149C220.808 287.471 182.925 313.098 152.831 328.407C137.777 336.066 124.722 341.116 114.539 343.152C109.447 344.17 105.125 344.422 101.654 343.902C98.1919 343.383 95.6397 342.105 93.9675 340.113C92.2953 338.12 91.4807 335.385 91.5705 331.885C91.6605 328.376 92.6601 324.164 94.5466 319.326C98.3193 309.651 105.56 297.671 115.717 284.176C136.019 257.198 167.835 224.34 206.355 192.017C244.875 159.695 282.758 134.069 312.852 118.759C327.906 111.101 340.961 106.05 351.144 104.015C356.236 102.997 360.558 102.744 364.029 103.265C367.492 103.784 370.044 105.061 371.716 107.054Z" stroke="white" stroke-width="2"/>
<path opacity="0.655172" d="M381.721 118.195C383.213 120.326 383.786 123.122 383.391 126.6C382.996 130.088 381.633 134.197 379.332 138.852C374.73 148.161 366.473 159.464 355.179 172.023C332.602 197.129 298.044 227.089 256.854 255.931C215.663 284.773 175.69 307 144.377 319.629C128.712 325.946 115.267 329.84 104.945 330.98C99.7837 331.55 95.4561 331.425 92.0439 330.604C88.6399 329.785 86.2087 328.29 84.7166 326.159C83.2244 324.028 82.6514 321.232 83.0459 317.754C83.4413 314.266 84.8042 310.157 87.1052 305.502C91.7068 296.193 99.9643 284.89 111.258 272.331C133.835 247.225 168.393 217.265 209.584 188.423C250.774 159.581 290.747 137.354 322.061 124.725C337.725 118.408 351.17 114.514 361.492 113.374C366.654 112.804 370.981 112.929 374.393 113.75C377.797 114.569 380.228 116.064 381.721 118.195Z" stroke="white" stroke-width="2"/>
<path opacity="0.689655" d="M390.595 130.128C391.896 132.381 392.223 135.216 391.527 138.647C390.829 142.086 389.113 146.061 386.415 150.498C381.019 159.371 371.808 169.911 359.463 181.438C334.784 204.481 297.746 231.315 254.198 256.457C210.651 281.599 168.893 300.258 136.598 310.109C120.442 315.037 106.709 317.744 96.327 317.98C91.1356 318.099 86.8353 317.597 83.5077 316.482C80.1881 315.369 77.8964 313.668 76.5956 311.415C75.2949 309.162 74.9677 306.327 75.6639 302.896C76.3618 299.456 78.0776 295.481 80.7756 291.045C86.171 282.172 95.3822 271.632 107.728 260.105C132.407 237.062 169.444 210.228 212.992 185.086C256.54 159.943 298.298 141.285 330.593 131.434C346.748 126.506 360.482 123.798 370.863 123.562C376.055 123.444 380.355 123.946 383.683 125.061C387.002 126.174 389.294 127.875 390.595 130.128Z" stroke="white" stroke-width="2"/>
<path opacity="0.724138" d="M398.274 142.75C399.374 145.108 399.452 147.961 398.46 151.318C397.465 154.684 395.409 158.494 392.335 162.679C386.186 171.048 376.092 180.745 362.789 191.152C336.195 211.956 296.96 235.46 251.386 256.711C205.813 277.962 162.588 292.911 129.557 299.91C113.034 303.411 99.1167 304.911 88.7537 304.241C83.5718 303.906 79.3316 303.032 76.1138 301.631C72.9038 300.233 70.7691 298.339 69.6696 295.981C68.5702 293.623 68.4913 290.77 69.484 287.413C70.4789 284.047 72.5347 280.237 75.6091 276.052C81.7573 267.683 91.8521 257.986 105.155 247.579C131.749 226.775 170.984 203.271 216.557 182.02C262.131 160.769 305.356 145.821 338.387 138.822C354.91 135.32 368.827 133.821 379.19 134.49C384.372 134.825 388.612 135.699 391.83 137.101C395.04 138.498 397.175 140.393 398.274 142.75Z" stroke="white" stroke-width="2"/>
<path opacity="0.758621" d="M404.703 155.956C405.593 158.4 405.423 161.249 404.141 164.507C402.857 167.773 400.477 171.39 397.049 175.291C390.195 183.092 379.294 191.872 365.134 201.081C336.829 219.488 295.694 239.483 248.442 256.681C201.19 273.879 156.827 285.003 123.312 289.097C106.546 291.145 92.5509 291.426 82.2857 289.855C77.1526 289.07 73.0048 287.83 69.9214 286.153C66.8454 284.481 64.8839 282.408 63.9942 279.964C63.1044 277.519 63.2745 274.67 64.5559 271.412C65.8405 268.146 68.2205 264.529 71.6479 260.628C78.5022 252.827 89.4036 244.047 103.563 234.839C131.869 216.431 173.003 196.437 220.255 179.238C267.507 162.04 311.871 150.916 345.386 146.822C362.152 144.775 376.146 144.494 386.412 146.064C391.545 146.849 395.693 148.09 398.776 149.766C401.852 151.438 403.813 153.511 404.703 155.956Z" stroke="white" stroke-width="2"/>
<path opacity="0.793103" d="M409.836 169.633C410.509 172.146 410.091 174.969 408.531 178.103C406.966 181.245 404.28 184.64 400.526 188.228C393.018 195.402 381.392 203.199 366.484 211.138C336.682 227.008 293.961 243.341 245.39 256.356C196.819 269.371 151.655 276.586 117.911 277.743C101.03 278.322 87.0641 277.382 76.9749 274.923C71.9298 273.693 67.9058 272.096 64.9803 270.157C62.0617 268.224 60.2884 265.987 59.615 263.475C58.9417 260.962 59.3594 258.138 60.92 255.004C62.4843 251.863 65.1705 248.467 68.9249 244.88C76.4329 237.706 88.0582 229.909 102.966 221.97C132.768 206.1 175.489 189.766 224.06 176.752C272.632 163.737 317.796 156.522 351.54 155.365C368.42 154.786 382.387 155.726 392.476 158.185C397.521 159.414 401.545 161.012 404.47 162.95C407.389 164.884 409.162 167.12 409.836 169.633Z" stroke="white" stroke-width="2"/>
<path opacity="0.827586" d="M413.635 183.668C414.087 186.23 413.425 189.006 411.597 191.992C409.765 194.985 406.793 198.134 402.74 201.38C394.636 207.873 382.375 214.627 366.832 221.236C335.76 234.448 291.778 246.996 242.257 255.728C192.737 264.46 147.116 267.711 113.399 265.923C96.5323 265.028 82.7011 262.875 72.8646 259.546C67.9459 257.881 64.0765 255.939 61.331 253.753C58.5921 251.572 57.0204 249.19 56.5687 246.628C56.1169 244.066 56.7791 241.29 58.6069 238.304C60.439 235.311 63.4109 232.162 67.4637 228.916C75.5684 222.423 87.829 215.669 103.372 209.06C134.444 195.847 178.426 183.299 227.947 174.568C277.467 165.836 323.088 162.584 356.805 164.373C373.672 165.268 387.503 167.421 397.339 170.75C402.258 172.414 406.128 174.356 408.873 176.543C411.612 178.724 413.184 181.106 413.635 183.668Z" stroke="white" stroke-width="2"/>
<path opacity="0.862069" d="M416.076 197.942C416.303 200.534 415.401 203.241 413.32 206.057C411.234 208.879 407.999 211.756 403.679 214.637C395.039 220.399 382.237 226.059 366.176 231.288C334.071 241.742 289.163 250.409 239.07 254.792C188.977 259.174 143.246 258.437 109.813 253.717C93.0889 251.356 79.498 248.005 69.9891 243.832C65.2341 241.745 61.5487 239.473 59.0042 237.056C56.4658 234.644 55.1077 232.134 54.881 229.543C54.6543 226.951 55.5559 224.243 57.6369 221.428C59.723 218.605 62.958 215.728 67.2783 212.847C75.918 207.086 88.7206 201.426 104.781 196.196C136.886 185.742 181.794 177.075 231.887 172.693C281.98 168.31 327.711 169.047 361.144 173.768C377.868 176.129 391.459 179.479 400.968 183.653C405.723 185.74 409.409 188.012 411.953 190.429C414.491 192.84 415.85 195.35 416.076 197.942Z" stroke="white" stroke-width="2"/>
<path opacity="0.896552" d="M417.143 212.337C417.143 214.938 416.009 217.557 413.69 220.18C411.366 222.81 407.893 225.395 403.338 227.888C394.229 232.874 380.981 237.397 364.526 241.207C331.632 248.823 286.14 253.543 235.855 253.543C185.571 253.543 140.078 248.823 107.184 241.207C90.7292 237.397 77.4821 232.874 68.373 227.888C63.8181 225.395 60.3447 222.81 58.0205 220.18C55.702 217.557 54.5678 214.938 54.5678 212.337C54.5678 209.735 55.702 207.116 58.0205 204.493C60.3447 201.863 63.8181 199.279 68.373 196.785C77.4821 191.799 90.7292 187.276 107.184 183.466C140.078 175.85 185.571 171.13 235.855 171.13C286.14 171.13 331.632 175.85 364.526 183.466C380.981 187.276 394.229 191.799 403.338 196.785C407.893 199.279 411.366 201.863 413.69 204.493C416.009 207.116 417.143 209.735 417.143 212.337Z" stroke="white" stroke-width="2"/>
<path opacity="0.931035" d="M416.83 226.731C416.603 229.322 415.245 231.833 412.706 234.244C410.162 236.661 406.477 238.933 401.722 241.02C392.213 245.193 378.622 248.544 361.897 250.905C328.465 255.626 282.734 256.363 232.641 251.98C182.547 247.597 137.639 238.931 105.534 228.476C89.474 223.247 76.6714 217.587 68.0317 211.826C63.7114 208.945 60.4764 206.068 58.3903 203.245C56.3093 200.43 55.4076 197.722 55.6344 195.13C55.8611 192.539 57.2192 190.029 59.7576 187.617C62.3021 185.2 65.9875 182.928 70.7425 180.841C80.2514 176.668 93.8423 173.317 110.567 170.956C143.999 166.236 189.73 165.499 239.823 169.881C289.917 174.264 334.825 182.931 366.93 193.385C382.99 198.614 395.793 204.274 404.432 210.035C408.753 212.916 411.988 215.794 414.074 218.616C416.155 221.431 417.056 224.139 416.83 226.731Z" stroke="white" stroke-width="2"/>
<path opacity="0.965517" d="M415.142 241.006C414.69 243.567 413.118 245.95 410.38 248.131C407.634 250.317 403.765 252.259 398.846 253.923C389.009 257.252 375.178 259.406 358.312 260.3C324.595 262.089 278.974 258.837 229.453 250.106C179.933 241.374 135.951 228.826 104.879 215.613C89.3356 209.004 77.075 202.25 68.9703 195.757C64.9175 192.511 61.9457 189.363 60.1135 186.369C58.2857 183.383 57.6235 180.607 58.0753 178.045C58.527 175.483 60.0987 173.101 62.8376 170.92C65.5831 168.734 69.4525 166.792 74.3712 165.127C84.2078 161.798 98.0389 159.645 114.905 158.75C148.622 156.962 194.243 160.213 243.764 168.945C293.285 177.677 337.266 190.225 368.338 203.437C383.882 210.047 396.142 216.801 404.247 223.293C408.3 226.54 411.272 229.688 413.104 232.681C414.931 235.667 415.594 238.444 415.142 241.006Z" stroke="white" stroke-width="2"/>
<path d="M412.096 255.04C411.422 257.553 409.649 259.789 406.73 261.723C403.805 263.661 399.781 265.259 394.736 266.488C384.647 268.947 370.68 269.887 353.8 269.308C320.056 268.151 274.892 260.936 226.32 247.921C177.749 234.907 135.028 218.573 105.226 202.703C90.3182 194.764 78.693 186.967 71.1849 179.793C67.4305 176.206 64.7444 172.81 63.1801 169.669C61.6195 166.535 61.2018 163.711 61.8751 161.199C62.5484 158.686 64.3218 156.45 67.2403 154.516C70.1659 152.577 74.1898 150.98 79.2349 149.75C89.3241 147.291 103.29 146.352 120.171 146.93C153.915 148.087 199.079 155.302 247.65 168.317C296.222 181.332 338.942 197.665 368.744 213.535C383.653 221.474 395.278 229.271 402.786 236.445C406.54 240.033 409.226 243.428 410.791 246.57C412.351 249.704 412.769 252.527 412.096 255.04Z" stroke="white" stroke-width="2"/>
</g>
</svg>
