<svg width="681" height="655" viewBox="0 0 681 655" fill="none" xmlns="http://www.w3.org/2000/svg">
<path opacity="0.0344828" fill-rule="evenodd" clip-rule="evenodd" d="M474.825 254.752L611.983 278.759C632.693 282.384 635.687 310.88 616.184 318.731L487.015 370.73C472.548 376.554 465.311 392.807 470.664 407.456L518.452 538.241C525.667 557.989 502.487 574.83 485.936 561.865L376.319 476.001C364.041 466.384 346.348 468.244 336.338 480.203L246.969 586.982C233.475 603.104 207.3 591.45 210.252 570.634L229.804 432.771C231.994 417.33 221.536 402.937 206.174 400.248L69.0168 376.241C48.3069 372.616 45.3119 344.121 64.8156 336.269L193.985 284.27C208.452 278.446 215.688 262.193 210.336 247.545L162.548 116.759C155.332 97.0115 178.512 80.1702 195.063 93.1351L304.68 178.999C316.958 188.616 334.651 186.757 344.661 174.797L434.031 68.0186C447.525 51.8958 473.7 63.5497 470.748 84.3661L451.196 222.229C449.006 237.67 459.463 252.064 474.825 254.752ZM612.672 274.819C637.346 279.138 640.914 313.087 617.678 322.442L488.509 374.441C476.044 379.459 469.809 393.462 474.421 406.083L522.209 536.868C530.806 560.396 503.189 580.46 483.469 565.014L373.852 479.15C363.274 470.864 348.03 472.466 339.406 482.77L250.036 589.549C233.959 608.758 202.774 594.873 206.291 570.072L225.843 432.209C227.73 418.905 218.72 406.504 205.485 404.188L68.3271 380.181C43.6533 375.862 40.0851 341.913 63.3218 332.558L192.491 280.559C204.956 275.541 211.19 261.538 206.579 248.917L158.791 118.132C150.194 94.6045 177.811 74.5397 197.53 89.9861L307.147 175.85C317.725 184.136 332.97 182.534 341.594 172.23L430.963 65.4513C447.04 46.2426 478.225 60.127 474.708 84.9278L455.156 222.791C453.269 236.095 462.279 248.496 475.515 250.812L612.672 274.819Z" fill="white"/>
<path opacity="0.0689655" fill-rule="evenodd" clip-rule="evenodd" d="M469.52 248.886L604.687 265.311C625.558 267.847 630.041 296.146 610.975 305.008L487.498 362.397C473.355 368.97 466.98 385.579 473.091 399.928L526.451 525.198C534.691 544.541 512.424 562.573 495.216 550.492L383.778 472.253C371.014 463.291 353.442 466.074 344.072 478.541L262.264 587.388C249.632 604.195 222.883 593.927 224.742 572.984L236.779 437.356C238.158 421.821 226.962 407.995 211.48 406.114L76.3127 389.69C55.4415 387.154 50.9593 358.854 70.0253 349.993L193.502 292.603C207.645 286.03 214.02 269.421 207.909 255.072L154.549 129.802C146.309 110.459 168.576 92.4275 185.784 104.508L297.222 182.748C309.986 191.709 327.558 188.926 336.928 176.459L418.736 67.6124C431.368 50.8054 458.117 61.0735 456.258 82.0159L444.221 217.644C442.842 233.179 454.038 247.005 469.52 248.886ZM605.17 261.34C630.036 264.361 635.376 298.077 612.66 308.635L489.184 366.024C476.999 371.688 471.506 385.998 476.771 398.36L530.131 523.631C539.948 546.676 513.419 568.159 492.918 553.765L381.479 475.526C370.482 467.805 355.342 470.203 347.269 480.945L265.462 589.791C250.412 609.815 218.543 597.581 220.757 572.631L232.795 437.002C233.983 423.618 224.337 411.705 210.998 410.085L75.8302 393.66C50.9642 390.639 45.6241 356.923 68.3394 346.365L191.816 288.976C204.001 283.313 209.494 269.002 204.229 256.64L150.869 131.369C141.052 108.324 167.581 86.8415 188.082 101.235L299.521 179.474C310.518 187.195 325.658 184.797 333.731 174.055L415.538 65.2092C430.588 45.1853 462.457 57.4186 460.242 82.3695L448.205 217.998C447.017 231.382 456.663 243.295 470.002 244.916L605.17 261.34Z" fill="white"/>
<path opacity="0.103448" fill-rule="evenodd" clip-rule="evenodd" d="M463.972 243.373L596.74 252.49C617.715 253.93 623.672 281.956 605.096 291.803L487.515 354.133C473.735 361.438 468.238 378.358 475.092 392.366L533.581 511.905C542.821 530.79 521.528 549.962 503.713 538.799L390.942 468.135C377.727 459.854 360.325 463.553 351.62 476.493L277.341 586.915C265.606 604.36 238.356 595.506 239.116 574.496L243.928 441.502C244.492 425.916 232.587 412.695 217.028 411.627L84.2601 402.51C63.2847 401.07 57.3276 373.044 75.9037 363.197L193.485 300.867C207.265 293.562 212.762 276.642 205.908 262.634L147.419 143.095C138.179 124.21 159.472 105.038 177.288 116.201L290.058 186.865C303.273 195.146 320.675 191.447 329.38 178.507L403.659 68.0846C415.394 50.6395 442.644 59.4935 441.884 80.5045L437.072 213.498C436.508 229.084 448.413 242.305 463.972 243.373ZM597.014 248.499C622.004 250.215 629.101 283.605 606.97 295.337L489.388 357.667C477.516 363.961 472.779 378.539 478.685 390.608L537.174 510.147C548.183 532.647 522.815 555.489 501.589 542.188L388.819 471.525C377.432 464.39 362.439 467.577 354.939 478.726L280.66 589.148C266.679 609.932 234.213 599.383 235.119 574.351L239.93 441.357C240.416 427.929 230.159 416.538 216.754 415.617L83.9861 406.501C58.996 404.785 51.8987 371.395 74.0303 359.663L191.612 297.333C203.484 291.039 208.221 276.461 202.315 264.392L143.826 144.853C132.817 122.353 158.185 99.5112 179.411 112.812L292.182 183.475C303.568 190.61 318.561 187.423 326.061 176.274L400.34 65.8519C414.321 45.0679 446.787 55.6166 445.881 80.6491L441.07 213.643C440.584 227.071 450.841 238.462 464.246 239.383L597.014 248.499Z" fill="white"/>
<path opacity="0.137931" fill-rule="evenodd" clip-rule="evenodd" d="M458.204 238.222L588.186 240.328C609.208 240.668 616.624 268.344 598.589 279.15L487.073 345.965C473.695 353.98 469.091 371.165 476.669 384.796L539.836 498.417C550.052 516.793 529.792 537.053 511.416 526.837L397.796 463.669C384.165 456.091 366.98 460.696 358.964 474.074L292.15 585.589C281.344 603.624 253.668 596.209 253.327 575.187L251.222 445.204C250.969 429.611 238.389 417.031 222.795 416.778L92.813 414.672C71.7911 414.332 64.3753 386.656 82.4106 375.85L193.926 309.035C207.304 301.02 211.909 283.835 204.331 270.204L141.163 156.583C130.947 138.208 151.207 117.947 169.583 128.163L283.204 191.331C296.835 198.909 314.019 194.305 322.035 180.926L388.85 69.411C399.655 51.3758 427.331 58.7915 427.672 79.8135L429.777 209.796C430.03 225.39 442.61 237.97 458.204 238.222ZM588.251 236.328C613.297 236.734 622.132 269.707 600.645 282.581L489.129 349.396C477.603 356.302 473.635 371.108 480.165 382.852L543.332 496.473C555.504 518.366 531.366 542.504 509.473 530.333L395.852 467.165C384.108 460.636 369.302 464.603 362.396 476.13L295.581 587.645C282.707 609.132 249.734 600.297 249.328 575.252L247.222 445.269C247.005 431.834 236.166 420.995 222.731 420.777L92.7482 418.672C67.7026 418.266 58.8675 385.293 80.3548 372.419L191.87 305.604C203.397 298.698 207.364 283.892 200.835 272.148L137.667 158.527C125.495 136.634 149.634 112.496 171.526 124.667L285.147 187.835C296.891 194.364 311.698 190.397 318.604 178.871L385.418 67.3552C398.293 45.8679 431.266 54.7031 431.671 79.7487L433.777 209.731C433.995 223.166 444.833 234.005 458.269 234.223L588.251 236.328Z" fill="white"/>
<path opacity="0.172414" fill-rule="evenodd" clip-rule="evenodd" d="M452.239 233.441L579.074 228.853C600.085 228.093 608.939 255.342 591.494 267.077L486.185 337.917C473.245 346.622 469.546 364.024 477.827 377.24L545.219 484.788C556.382 502.604 537.21 523.897 518.325 514.656L404.321 458.876C390.313 452.021 373.392 457.519 366.088 471.298L306.644 583.436C296.797 602.012 268.771 596.055 267.331 575.079L258.636 448.459C257.568 432.9 244.347 420.995 228.761 421.559L101.926 426.148C80.9146 426.908 72.0606 399.658 89.5056 387.923L194.815 317.083C207.755 308.379 211.454 290.977 203.173 277.761L135.781 170.213C124.618 152.397 143.79 131.104 162.675 140.344L276.679 196.125C290.687 202.979 307.608 197.481 314.912 183.702L374.356 71.5649C384.203 52.9889 412.229 58.946 413.669 79.9213L422.364 206.542C423.432 222.101 436.653 234.005 452.239 233.441ZM578.93 224.855C603.962 223.95 614.511 256.415 593.727 270.396L488.418 341.236C477.269 348.736 474.082 363.729 481.216 375.116L548.608 482.664C561.909 503.89 539.067 529.258 516.567 518.249L402.563 462.469C390.494 456.563 375.915 461.3 369.622 473.172L310.178 585.309C298.446 607.441 265.056 600.343 263.34 575.353L254.646 448.733C253.725 435.327 242.334 425.071 228.906 425.557L102.07 430.145C77.0377 431.051 66.489 398.585 87.273 384.604L192.582 313.765C203.731 306.265 206.918 291.271 199.784 279.885L132.392 172.336C119.091 151.11 141.933 125.742 164.433 136.751L278.437 192.532C290.506 198.437 305.084 193.701 311.378 181.829L370.822 69.6915C382.554 47.5598 415.944 54.6572 417.66 79.6473L426.354 206.268C427.275 219.673 438.666 229.93 452.094 229.444L578.93 224.855Z" fill="white"/>
<path opacity="0.206897" fill-rule="evenodd" clip-rule="evenodd" d="M446.099 229.037L569.451 218.089C590.394 216.23 600.662 242.979 583.855 255.611L484.86 330.014C472.393 339.384 469.61 356.956 478.571 369.72L549.729 471.072C561.81 488.279 543.779 510.546 524.436 502.307L410.503 453.777C396.155 447.665 379.546 454.041 372.973 468.184L320.778 580.484C311.916 599.55 283.617 595.068 281.081 574.197L266.143 451.263C264.262 435.782 250.436 424.585 234.901 425.964L111.548 436.912C90.606 438.771 80.338 412.022 97.145 399.39L196.14 324.987C208.607 315.617 211.39 298.045 202.428 285.281L131.271 183.928C119.19 166.721 137.221 144.454 156.564 152.694L270.496 201.224C284.845 207.336 301.454 200.96 308.027 186.817L360.222 74.5166C369.084 55.4507 397.383 59.9329 399.919 80.8041L414.857 203.737C416.738 219.219 430.564 230.415 446.099 229.037ZM569.098 214.104C594.049 211.89 606.282 243.759 586.258 258.808L487.264 333.211C476.522 341.284 474.124 356.424 481.845 367.421L553.003 468.774C567.396 489.275 545.913 515.803 522.868 505.987L408.936 457.457C396.574 452.191 382.263 457.684 376.6 469.869L324.405 582.17C313.847 604.885 280.131 599.545 277.11 574.679L262.172 451.746C260.551 438.407 248.639 428.761 235.255 429.948L111.902 440.897C86.9512 443.111 74.7179 411.242 94.7418 396.192L193.736 321.789C204.478 313.716 206.876 298.577 199.155 287.579L127.997 186.227C113.604 165.726 135.086 139.197 158.132 149.014L272.064 197.544C284.426 202.81 298.736 197.316 304.4 185.131L356.595 72.8307C367.152 50.1155 400.868 55.4556 403.89 80.3216L418.828 203.255C420.448 216.594 432.361 226.24 445.745 225.052L569.098 214.104Z" fill="white"/>
<path opacity="0.241379" fill-rule="evenodd" clip-rule="evenodd" d="M439.807 225.013L559.367 208.056C580.183 205.104 591.837 231.279 575.714 244.773L483.112 322.278C471.153 332.288 469.293 349.981 478.91 362.259L553.375 457.323C566.339 473.874 549.498 497.054 529.75 489.838L416.329 448.395C401.68 443.042 385.427 450.279 379.603 464.746L334.508 576.766C326.656 596.27 298.161 593.275 294.536 572.565L273.716 453.617C271.027 438.255 256.634 427.797 241.193 429.987L121.633 446.944C100.817 449.896 89.1627 423.721 105.285 410.227L197.888 332.722C209.847 322.712 211.707 305.019 202.09 292.741L127.625 197.677C114.66 181.126 131.502 157.946 151.249 165.162L264.671 206.605C279.32 211.958 295.573 204.721 301.397 190.254L346.492 78.2338C354.344 58.7302 382.839 61.7252 386.464 82.4351L407.284 201.383C409.973 216.745 424.366 227.203 439.807 225.013ZM558.805 204.096C583.606 200.579 597.49 231.764 578.282 247.841L485.68 325.345C475.375 333.97 473.773 349.214 482.059 359.792L556.524 454.856C571.97 474.575 551.905 502.192 528.378 493.595L414.956 452.152C402.335 447.54 388.332 453.775 383.314 466.24L338.218 578.26C328.864 601.497 294.915 597.928 290.596 573.255L269.776 454.307C267.459 441.071 255.058 432.061 241.755 433.948L122.195 450.904C97.3938 454.421 83.5094 423.236 102.718 407.159L195.32 329.655C205.625 321.03 207.227 305.786 198.941 295.208L124.476 200.144C109.03 180.425 129.095 152.808 152.622 161.405L266.044 202.848C278.665 207.46 292.668 201.225 297.686 188.76L342.782 76.74C352.136 53.5033 386.085 57.0716 390.404 81.7454L411.224 200.693C413.54 213.929 425.941 222.939 439.245 221.052L558.805 204.096Z" fill="white"/>
<path opacity="0.275862" fill-rule="evenodd" clip-rule="evenodd" d="M433.386 221.375L548.871 198.777C569.504 194.739 582.512 220.268 567.118 234.588L480.955 314.734C469.535 325.356 468.604 343.122 478.851 354.88L556.164 443.594C569.978 459.444 554.372 483.473 534.274 477.301L421.784 442.755C406.875 438.176 391.024 446.253 385.965 461.006L347.793 572.318C340.973 592.206 312.36 590.706 307.656 570.215L281.329 455.522C277.84 440.322 262.919 430.632 247.614 433.627L132.129 456.226C111.495 460.263 98.4876 434.734 113.882 420.414L200.045 340.268C211.464 329.646 212.395 311.88 202.149 300.122L124.836 211.409C111.022 195.558 126.627 171.529 146.726 177.701L259.216 212.247C274.124 216.826 289.976 208.749 295.035 193.996L333.207 82.684C340.027 62.7963 368.64 64.2958 373.343 84.7876L399.671 199.48C403.16 214.68 418.081 224.37 433.386 221.375ZM548.103 194.851C572.686 190.041 588.183 220.456 569.842 237.517L483.679 317.663C473.84 326.814 473.038 342.122 481.866 352.252L559.18 440.966C575.637 459.85 557.045 488.479 533.1 481.125L420.61 446.579C407.765 442.634 394.107 449.593 389.748 462.303L351.577 573.616C343.451 597.31 309.362 595.523 303.758 571.109L277.431 456.417C274.424 443.321 261.569 434.972 248.382 437.553L132.897 460.151C108.314 464.962 92.8167 434.546 111.158 417.486L197.321 337.339C207.159 328.188 207.962 312.88 199.134 302.75L121.82 214.037C105.363 195.153 123.955 166.524 147.9 173.877L260.39 208.423C273.235 212.368 286.893 205.409 291.251 192.699L329.423 81.3865C337.548 57.6921 371.638 59.4787 377.242 83.8927L403.569 198.585C406.575 211.682 419.431 220.03 432.618 217.45L548.103 194.851Z" fill="white"/>
<path opacity="0.310345" fill-rule="evenodd" clip-rule="evenodd" d="M426.859 218.123L538.015 190.26C558.408 185.148 572.734 209.962 558.11 225.067L478.403 307.4C467.555 318.605 467.555 336.396 478.403 347.601L558.11 429.933C572.734 445.038 558.408 469.852 538.015 464.74L426.859 436.877C411.731 433.085 396.324 441.981 392.044 456.978L360.596 567.173C354.826 587.39 326.174 587.39 320.404 567.173L288.956 456.978C284.676 441.981 269.269 433.085 254.141 436.877L142.985 464.74C122.592 469.852 108.266 445.038 122.89 429.933L202.597 347.601C213.445 336.396 213.445 318.605 202.597 307.4L122.89 225.067C108.266 209.962 122.592 185.148 142.985 190.26L254.141 218.123C269.269 221.915 284.676 213.019 288.956 198.022L320.404 87.8275C326.174 67.61 354.826 67.61 360.596 87.8276L392.044 198.022C396.324 213.019 411.731 221.915 426.859 218.123ZM537.042 186.38C561.339 180.29 578.407 209.853 560.984 227.85L481.277 310.182C471.931 319.836 471.931 335.164 481.277 344.818L560.984 427.151C578.407 445.147 561.339 474.71 537.042 468.62L425.887 440.757C412.853 437.49 399.578 445.155 395.89 458.076L364.442 568.27C357.568 592.358 323.432 592.358 316.558 568.27L285.11 458.076C281.422 445.155 268.147 437.49 255.113 440.757L143.958 468.62C119.661 474.71 102.593 445.147 120.016 427.151L199.723 344.818C209.069 335.164 209.069 319.836 199.723 310.182L120.016 227.85C102.593 209.853 119.661 180.29 143.958 186.38L255.113 214.243C268.147 217.51 281.422 209.846 285.11 196.925L316.558 86.7297C323.432 62.6425 357.568 62.6426 364.442 86.7299L395.89 196.925C399.578 209.846 412.853 217.51 425.887 214.243L537.042 186.38Z" fill="white"/>
<path opacity="0.344828" fill-rule="evenodd" clip-rule="evenodd" d="M420.249 215.26L526.848 182.523C546.946 176.35 562.552 200.38 548.738 216.23L475.473 300.299C465.227 312.056 466.158 329.822 477.577 340.444L559.228 416.394C574.623 430.713 561.615 456.243 540.982 452.205L431.544 430.79C416.239 427.795 401.318 437.484 397.829 452.685L372.88 561.371C368.176 581.863 339.563 583.363 332.743 563.475L296.571 457.991C291.512 443.239 275.66 435.162 260.751 439.741L154.152 472.478C134.053 478.65 118.448 454.62 132.262 438.77L205.526 354.702C215.773 342.945 214.842 325.178 203.423 314.556L121.771 238.607C106.377 224.287 119.385 198.758 140.018 202.796L249.456 224.211C264.761 227.206 279.682 217.516 283.171 202.316L308.12 93.629C312.824 73.1373 341.436 71.6378 348.256 91.5256L384.429 197.009C389.488 211.761 405.34 219.838 420.249 215.26ZM525.674 178.699C549.619 171.345 568.211 199.974 551.754 218.858L478.489 302.927C469.661 313.056 470.463 328.364 480.301 337.516L561.953 413.465C580.294 430.525 564.796 460.941 540.214 456.13L430.776 434.715C417.589 432.135 404.733 440.483 401.727 453.58L376.779 562.266C371.174 586.68 337.085 588.467 328.96 564.773L292.787 459.289C288.428 446.579 274.77 439.62 261.925 443.564L155.326 476.302C131.381 483.655 112.789 455.026 129.246 436.142L202.511 352.074C211.339 341.944 210.537 326.637 200.698 317.485L119.047 241.535C100.706 224.475 116.204 194.06 140.786 198.87L250.224 220.285C263.411 222.866 276.266 214.517 279.273 201.421L304.221 92.7342C309.825 68.3201 343.915 66.5337 352.04 90.2281L388.213 195.712C392.572 208.422 406.229 215.381 419.074 211.436L525.674 178.699Z" fill="white"/>
<path opacity="0.37931" fill-rule="evenodd" clip-rule="evenodd" d="M413.577 212.785L515.424 175.571C535.171 168.356 552.013 191.536 539.048 208.087L472.183 293.449C462.566 305.727 464.426 323.42 476.385 333.43L559.537 403.024C575.659 416.519 564.006 442.694 543.189 439.741L435.831 424.516C420.39 422.326 405.997 432.783 403.308 448.145L384.613 554.954C380.988 575.664 352.493 578.659 344.641 559.155L304.148 458.567C298.324 444.1 282.071 436.864 267.423 442.216L165.576 479.43C145.829 486.646 128.988 463.466 141.952 446.914L208.817 361.552C218.434 349.275 216.575 331.581 204.615 321.572L121.464 251.977C105.341 238.483 116.995 212.308 137.811 215.26L245.169 230.486C260.61 232.676 275.003 222.218 277.692 206.856L296.387 100.048C300.012 79.3378 328.507 76.3428 336.359 95.8464L376.852 196.434C382.676 210.901 398.929 218.138 413.577 212.785ZM514.051 171.814C537.579 163.217 557.643 190.834 542.197 210.554L475.332 295.916C467.046 306.494 468.648 321.738 478.953 330.362L562.104 399.957C581.313 416.034 567.428 447.219 542.628 443.702L435.27 428.476C421.966 426.589 409.565 435.599 407.248 448.835L388.553 555.643C384.234 580.317 350.285 583.885 340.931 560.649L300.438 460.061C295.42 447.596 281.416 441.362 268.796 445.973L166.949 483.187C143.422 491.784 123.357 464.167 138.803 444.448L205.668 359.086C213.954 348.508 212.352 333.263 202.048 324.639L118.896 255.044C99.6875 238.967 113.572 207.782 138.373 211.3L245.731 226.525C259.035 228.412 271.436 219.402 273.752 206.167L292.447 99.358C296.766 74.6842 330.715 71.1159 340.069 94.3526L380.563 194.94C385.581 207.405 399.584 213.64 412.205 209.028L514.051 171.814Z" fill="white"/>
<path opacity="0.413793" fill-rule="evenodd" clip-rule="evenodd" d="M406.867 210.697L503.792 169.411C523.135 161.172 541.166 183.438 529.085 200.646L468.55 286.868C459.589 299.632 462.372 317.204 474.839 326.574L559.056 389.871C575.863 402.503 565.595 429.252 544.652 427.393L439.713 418.079C424.179 416.7 410.353 427.897 408.471 443.378L395.764 547.961C393.228 568.832 364.928 573.314 356.067 554.248L311.663 458.711C305.09 444.569 288.481 438.193 274.132 444.305L177.208 485.59C157.865 493.83 139.833 471.563 151.914 454.356L212.45 368.133C221.411 355.369 218.628 337.797 206.161 328.427L121.944 265.131C105.137 252.499 115.405 225.75 136.347 227.608L241.286 236.922C256.821 238.301 270.647 227.105 272.528 211.623L285.236 107.041C287.772 86.1695 316.071 81.6873 324.933 100.753L369.336 196.29C375.91 210.433 392.519 216.808 406.867 210.697ZM502.224 165.731C525.27 155.914 546.752 182.443 532.359 202.944L471.824 289.167C464.103 300.164 466.501 315.304 477.242 323.377L561.459 386.673C581.483 401.723 569.249 433.592 544.299 431.377L439.36 422.064C425.975 420.876 414.063 430.522 412.442 443.861L399.734 548.443C396.713 573.309 362.997 578.649 352.439 555.934L308.036 460.397C302.373 448.212 288.062 442.719 275.7 447.985L178.775 489.27C155.73 499.087 134.247 472.558 148.641 452.057L209.176 365.834C216.897 354.837 214.499 339.697 203.758 331.624L119.541 268.328C99.517 253.278 111.75 221.409 136.701 223.624L241.64 232.938C255.024 234.126 266.937 224.479 268.558 211.14L281.265 106.558C284.287 81.6923 318.003 76.3521 328.56 99.0674L372.964 194.604C378.627 206.789 392.937 212.282 405.3 207.017L502.224 165.731Z" fill="white"/>
<path opacity="0.448276" fill-rule="evenodd" clip-rule="evenodd" d="M400.14 208.991L492.004 164.044C510.889 154.803 530.061 176.096 518.898 193.912L464.594 280.574C456.313 293.789 460.012 311.192 472.952 319.896L557.81 376.979C575.255 388.714 566.401 415.964 545.39 415.203L443.186 411.506C427.601 410.942 414.379 422.846 413.311 438.405L406.305 540.436C404.865 561.411 376.839 567.368 366.992 548.792L319.092 458.432C311.788 444.653 294.868 439.155 280.859 446.01L188.995 490.957C170.11 500.198 150.938 478.905 162.102 461.089L216.406 374.427C224.687 361.212 220.988 343.809 208.047 335.105L123.19 278.022C105.745 266.287 114.599 239.038 135.61 239.798L237.813 243.495C253.399 244.059 266.62 232.155 267.688 216.596L274.694 114.566C276.134 93.5902 304.16 87.6331 314.008 106.209L361.907 196.569C369.212 210.348 386.132 215.846 400.14 208.991ZM490.246 160.451C512.746 149.442 535.588 174.81 522.287 196.036L467.983 282.698C460.848 294.084 464.035 309.078 475.185 316.577L560.042 373.66C580.826 387.641 570.278 420.106 545.245 419.201L443.042 415.503C429.613 415.017 418.222 425.274 417.302 438.68L410.296 540.71C408.58 565.7 375.19 572.797 363.458 550.665L315.558 460.306C309.265 448.434 294.687 443.697 282.617 449.603L190.753 494.55C168.253 505.559 145.412 480.191 158.712 458.965L213.016 372.303C220.151 360.917 216.964 345.923 205.815 338.424L120.957 281.341C100.173 267.36 110.722 234.895 135.754 235.8L237.958 239.498C251.386 239.984 262.777 229.727 263.698 216.322L270.704 114.292C272.419 89.3015 305.81 82.2041 317.542 104.336L365.441 194.695C371.735 206.567 386.313 211.304 398.382 205.399L490.246 160.451Z" fill="white"/>
<path opacity="0.482759" fill-rule="evenodd" clip-rule="evenodd" d="M393.419 207.666L480.111 159.469C498.487 149.253 518.747 169.513 508.531 187.889L460.335 274.581C452.756 288.212 457.361 305.397 470.739 313.412L555.825 364.392C573.86 375.198 566.445 402.874 545.423 403.214L446.247 404.821C430.653 405.073 418.073 417.653 417.82 433.247L416.214 532.423C415.873 553.445 388.197 560.861 377.391 542.826L326.412 457.74C318.396 444.362 301.212 439.757 287.581 447.335L200.888 495.532C182.513 505.748 162.252 485.488 172.469 467.112L220.665 380.42C228.243 366.789 223.639 349.604 210.261 341.588L125.175 290.609C107.139 279.803 114.555 252.127 135.577 251.787L234.753 250.18C250.347 249.928 262.927 237.347 263.18 221.754L264.786 122.578C265.127 101.556 292.803 94.1399 303.608 112.175L354.588 197.261C362.604 210.639 379.788 215.244 393.419 207.666ZM478.168 155.973C500.061 143.802 524.199 167.939 512.027 189.832L463.831 276.525C457.301 288.269 461.269 303.075 472.795 309.981L557.881 360.961C579.368 373.835 570.533 406.808 545.488 407.214L446.311 408.82C432.876 409.038 422.037 419.877 421.82 433.312L420.213 532.488C419.807 557.534 386.834 566.369 373.96 544.882L322.981 459.796C316.075 448.269 301.269 444.302 289.524 450.831L202.832 499.028C180.939 511.199 156.801 487.061 168.972 465.168L217.169 378.476C223.698 366.732 219.731 351.926 208.205 345.02L123.119 294.04C101.632 281.166 110.467 248.193 135.512 247.787L234.689 246.181C248.124 245.963 258.963 235.124 259.18 221.689L260.787 122.513C261.193 97.4672 294.166 88.632 307.04 110.119L358.019 195.205C364.925 206.732 379.731 210.699 391.475 204.17L478.168 155.973Z" fill="white"/>
<path opacity="0.517241" fill-rule="evenodd" clip-rule="evenodd" d="M386.723 206.715L468.163 155.683C485.979 144.519 507.272 163.691 498.032 182.576L455.792 268.905C448.938 282.914 454.436 299.834 468.215 307.138L553.13 352.152C571.706 361.999 565.749 390.025 544.774 391.465L448.891 398.049C433.332 399.117 421.428 412.339 421.992 427.924L425.466 523.97C426.226 544.981 398.977 553.835 387.242 536.39L333.599 456.645C324.894 443.704 307.492 440.005 294.276 448.287L212.836 499.318C195.02 510.482 173.727 491.31 182.968 472.425L225.207 386.096C232.061 372.088 226.564 355.167 212.784 347.863L127.869 302.85C109.293 293.002 115.25 264.976 136.226 263.536L232.108 256.952C247.667 255.884 259.572 242.663 259.008 227.077L255.533 131.032C254.773 110.021 282.023 101.167 293.758 118.612L347.401 198.357C356.105 211.297 373.507 214.996 386.723 206.715ZM466.039 152.293C487.265 138.993 512.634 161.834 501.625 184.335L459.385 270.663C453.48 282.733 458.216 297.311 470.088 303.604L555.003 348.618C577.135 360.35 570.038 393.74 545.048 395.456L449.165 402.04C435.76 402.96 425.503 414.351 425.989 427.78L429.464 523.825C430.369 548.857 397.904 559.406 383.923 538.622L330.28 458.877C322.78 447.728 307.787 444.541 296.4 451.676L214.96 502.708C193.734 516.008 168.366 493.167 179.375 470.667L221.614 384.338C227.52 372.269 222.783 357.691 210.911 351.397L125.996 306.384C103.864 294.652 110.962 261.261 135.952 259.545L231.834 252.962C245.239 252.041 255.496 240.65 255.01 227.222L251.536 131.177C250.63 106.144 283.096 95.5952 297.077 116.379L350.719 196.124C358.219 207.273 373.213 210.46 384.599 203.325L466.039 152.293Z" fill="white"/>
<path opacity="0.551724" fill-rule="evenodd" clip-rule="evenodd" d="M380.074 206.131L456.21 152.677C473.417 140.596 495.684 158.628 487.445 177.971L450.989 263.557C444.877 277.905 451.253 294.514 465.396 301.088L549.756 340.297C568.822 349.158 564.34 377.458 543.469 379.994L451.121 391.215C435.639 393.096 424.443 406.922 425.822 422.457L434.046 515.12C435.905 536.062 409.155 546.33 396.524 529.523L340.632 455.158C331.262 442.691 313.69 439.908 300.926 448.869L224.789 502.323C207.582 514.404 185.315 496.373 193.555 477.03L230.011 391.443C236.122 377.095 229.747 360.486 215.604 353.913L131.243 314.704C112.177 305.842 116.66 277.543 137.531 275.007L229.879 263.785C245.361 261.904 256.557 248.078 255.178 232.543L246.954 139.881C245.095 118.938 271.844 108.67 284.476 125.477L340.368 199.842C349.738 212.309 367.31 215.092 380.074 206.131ZM453.912 149.403C474.412 135.01 500.941 156.493 491.125 179.538L454.669 265.124C449.403 277.487 454.896 291.797 467.081 297.46L551.442 336.669C574.157 347.227 568.817 380.943 543.951 383.964L451.603 395.186C438.264 396.806 428.618 408.719 429.806 422.103L438.03 514.766C440.245 539.717 408.376 551.95 393.326 531.926L337.434 457.561C329.361 446.82 314.221 444.422 303.224 452.143L227.088 505.597C206.587 519.99 180.058 498.507 189.875 475.462L226.331 389.876C231.596 377.514 226.103 363.203 213.918 357.54L129.558 318.331C106.842 307.773 112.182 274.057 137.048 271.036L229.396 259.815C242.735 258.194 252.382 246.281 251.194 232.897L242.969 140.234C240.755 115.283 272.624 103.05 287.674 123.074L343.565 197.439C351.638 208.18 366.778 210.578 377.775 202.857L453.912 149.403Z" fill="white"/>
<path opacity="0.586207" fill-rule="evenodd" clip-rule="evenodd" d="M373.491 205.908L444.3 150.443C460.851 137.478 484.031 154.319 476.815 174.067L445.946 258.55C440.594 273.198 447.83 289.451 462.297 295.275L545.736 328.865C565.24 336.717 562.245 365.212 541.535 368.837L452.936 384.344C437.574 387.033 427.116 401.427 429.306 416.868L441.936 505.923C444.888 526.739 418.713 538.393 405.219 522.27L347.489 453.295C337.48 441.335 319.786 439.476 307.509 449.093L236.7 504.558C220.148 517.523 196.968 500.682 204.184 480.934L235.053 396.451C240.406 381.802 233.17 365.55 218.702 359.726L135.263 326.136C115.76 318.284 118.755 289.789 139.465 286.164L228.064 270.657C243.426 267.968 253.883 253.574 251.693 238.133L239.063 149.078C236.111 128.262 262.286 116.608 275.78 132.731L333.51 201.706C343.52 213.666 361.213 215.525 373.491 205.908ZM441.833 147.294C461.552 131.848 489.169 151.912 480.573 175.44L449.703 259.923C445.091 272.544 451.326 286.547 463.791 291.565L547.23 325.154C570.466 334.509 566.898 368.458 542.225 372.777L453.625 388.285C440.39 390.601 431.38 403.002 433.266 416.306L445.896 505.361C449.414 530.162 418.229 544.046 402.152 524.837L344.422 455.862C335.798 445.558 320.553 443.956 309.975 452.242L239.166 507.707C219.447 523.153 191.83 503.089 200.427 479.561L231.296 395.078C235.908 382.457 229.673 368.454 217.208 363.436L133.77 329.846C110.533 320.492 114.101 286.543 138.775 282.224L227.374 266.716C240.61 264.4 249.62 251.999 247.733 238.695L235.103 149.64C231.586 124.839 262.771 110.955 278.848 130.164L336.577 199.139C345.202 209.443 360.446 211.045 371.024 202.759L441.833 147.294Z" fill="white"/>
<path opacity="0.62069" fill-rule="evenodd" clip-rule="evenodd" d="M366.993 206.037L432.48 148.966C448.33 135.153 472.36 150.758 466.187 170.856L440.686 253.894C436.108 268.802 444.185 284.654 458.937 289.713L541.105 317.89C560.993 324.71 559.493 353.323 539.002 358.027L454.338 377.461C439.138 380.95 429.448 395.871 432.443 411.176L449.125 496.425C453.163 517.058 427.633 530.066 413.314 514.671L354.152 451.068C343.53 439.648 325.763 438.717 314.006 448.964L248.52 506.035C232.67 519.848 208.64 504.243 214.812 484.145L240.313 401.107C244.892 386.199 236.815 370.347 222.063 365.288L139.895 337.111C120.007 330.291 121.506 301.678 141.998 296.974L226.661 277.54C241.862 274.051 251.551 259.13 248.556 243.824L231.874 158.576C227.837 137.943 253.366 124.935 267.686 140.33L326.848 203.933C337.469 215.352 355.236 216.283 366.993 206.037ZM429.852 145.95C448.736 129.493 477.365 148.085 470.011 172.03L444.51 255.068C440.565 267.913 447.524 281.57 460.235 285.929L542.403 314.107C566.097 322.232 564.31 356.321 539.897 361.925L455.233 381.36C442.137 384.366 433.788 397.221 436.369 410.408L453.051 495.656C457.861 520.239 427.445 535.737 410.385 517.396L351.223 453.792C342.071 443.953 326.764 443.151 316.634 451.979L251.148 509.05C232.264 525.508 203.635 506.916 210.988 482.97L236.49 399.933C240.434 387.088 233.475 373.43 220.765 369.072L138.597 340.894C114.903 332.769 116.689 298.679 141.103 293.075L225.766 273.641C238.863 270.635 247.211 257.779 244.631 244.593L227.949 159.344C223.139 134.762 253.554 119.264 270.614 137.605L329.776 201.209C338.928 211.047 354.236 211.85 364.365 203.021L429.852 145.95Z" fill="white"/>
<path opacity="0.655172" fill-rule="evenodd" clip-rule="evenodd" d="M360.6 206.508L420.796 148.231C435.902 133.607 460.716 147.933 455.604 168.327L435.232 249.596C431.44 264.724 440.336 280.132 455.333 284.411L535.9 307.404C556.118 313.174 556.118 341.826 535.9 347.596L455.333 370.589C440.336 374.869 431.44 390.276 435.232 405.404L455.604 486.674C460.716 507.067 435.902 521.394 420.796 506.77L360.6 448.493C349.395 437.645 331.604 437.645 320.399 448.493L260.203 506.77C245.098 521.394 220.284 507.067 225.396 486.674L245.768 405.404C249.56 390.276 240.664 374.869 225.667 370.589L145.1 347.596C124.882 341.826 124.882 313.174 145.1 307.404L225.667 284.411C240.664 280.132 249.56 264.724 245.768 249.596L225.396 168.327C220.284 147.933 245.098 133.607 260.203 148.231L320.399 206.508C331.604 217.355 349.395 217.355 360.6 206.508ZM418.014 145.357C436.011 127.934 465.574 145.002 459.484 169.299L439.112 250.569C435.845 263.603 443.509 276.877 456.43 280.565L536.998 303.558C561.085 310.432 561.085 344.568 536.998 351.442L456.43 374.435C443.509 378.123 435.845 391.398 439.112 404.431L459.484 485.701C465.574 509.998 436.011 527.067 418.014 509.643L357.818 451.366C348.164 442.02 332.836 442.02 323.182 451.366L262.986 509.643C244.989 527.066 215.426 509.998 221.516 485.701L241.888 404.431C245.155 391.398 237.491 378.123 224.569 374.435L144.002 351.442C119.915 344.568 119.915 310.432 144.002 303.558L224.569 280.565C237.491 276.878 245.155 263.603 241.888 250.569L221.516 169.299C215.426 145.002 244.989 127.934 262.986 145.357L323.182 203.634C332.836 212.98 348.164 212.98 357.818 203.634L418.014 145.357Z" fill="white"/>
<path opacity="0.689655" fill-rule="evenodd" clip-rule="evenodd" d="M354.329 207.302L409.294 148.21C423.613 132.816 449.143 145.824 445.105 166.457L429.607 245.658C426.612 260.963 436.301 275.884 451.502 279.373L530.159 297.429C550.651 302.133 552.15 330.745 532.263 337.565L455.923 363.744C441.171 368.803 433.094 384.655 437.673 399.563L461.365 476.71C467.537 496.808 443.507 512.414 427.657 498.6L366.816 445.578C355.059 435.331 337.292 436.262 326.67 447.682L271.705 506.773C257.386 522.168 231.857 509.16 235.894 488.527L251.393 409.326C254.388 394.02 244.698 379.1 229.498 375.61L150.84 357.555C130.348 352.851 128.849 324.238 148.737 317.418L225.076 291.24C239.828 286.181 247.905 270.329 243.327 255.42L219.635 178.273C213.462 158.175 237.492 142.57 253.342 156.383L314.183 209.406C325.94 219.652 343.707 218.721 354.329 207.302ZM406.365 145.486C423.425 127.145 453.841 142.643 449.031 167.225L433.532 246.426C430.952 259.613 439.3 272.468 452.397 275.475L531.054 293.53C555.468 299.134 557.255 333.224 533.56 341.349L457.221 367.528C444.511 371.886 437.552 385.544 441.496 398.389L465.189 475.536C472.542 499.481 443.913 518.073 425.029 501.616L364.188 448.593C354.058 439.765 338.751 440.567 329.599 450.406L274.634 509.498C257.574 527.839 227.158 512.341 231.969 487.758L247.467 408.558C250.047 395.371 241.699 382.515 228.603 379.509L149.945 361.454C125.531 355.849 123.745 321.76 147.439 313.635L223.778 287.456C236.489 283.097 243.448 269.44 239.503 256.595L215.811 179.448C208.457 155.503 237.086 136.911 255.97 153.368L316.811 206.39C326.941 215.218 342.248 214.416 351.4 204.578L406.365 145.486Z" fill="white"/>
<path opacity="0.724138" fill-rule="evenodd" clip-rule="evenodd" d="M348.197 208.425L398.016 148.9C411.51 132.777 437.686 144.431 434.733 165.248L423.834 242.101C421.644 257.542 432.101 271.935 447.463 274.624L523.923 288.007C544.633 291.632 547.628 320.127 528.124 327.978L456.118 356.966C441.65 362.79 434.414 379.043 439.767 393.691L466.407 466.598C473.622 486.346 450.442 503.187 433.891 490.222L372.784 442.357C360.506 432.74 342.813 434.599 332.803 446.559L282.983 506.083C269.489 522.206 243.314 510.552 246.266 489.736L257.166 412.883C259.356 397.442 248.898 383.049 233.536 380.36L157.077 366.977C136.367 363.352 133.372 334.857 152.876 327.005L224.882 298.018C239.349 292.194 246.585 275.941 241.233 261.293L214.593 188.385C207.378 168.638 230.558 151.796 247.109 164.761L308.216 212.627C320.493 222.244 338.187 220.384 348.197 208.425ZM394.949 146.333C411.026 127.124 442.211 141.009 438.694 165.809L427.794 242.662C425.907 255.966 434.917 268.367 448.153 270.684L524.613 284.067C549.286 288.385 552.855 322.335 529.618 331.689L457.612 360.676C445.147 365.694 438.912 379.697 443.524 392.318L470.164 465.226C478.76 488.753 451.144 508.818 431.424 493.371L370.317 445.506C359.739 437.22 344.495 438.822 335.871 449.126L286.051 508.651C269.974 527.86 238.789 513.975 242.306 489.174L253.205 412.321C255.092 399.018 246.082 386.617 232.847 384.3L156.387 370.917C131.713 366.598 128.145 332.649 151.382 323.295L223.388 294.307C235.853 289.29 242.088 275.286 237.476 262.665L210.836 189.758C202.239 166.231 229.856 146.166 249.576 161.612L310.682 209.478C321.261 217.764 336.505 216.162 345.129 205.857L394.949 146.333Z" fill="white"/>
<path opacity="0.758621" fill-rule="evenodd" clip-rule="evenodd" d="M342.219 209.856L387.004 150.268C399.636 133.461 426.385 143.729 424.527 164.672L417.937 238.921C416.558 254.455 427.754 268.282 443.236 270.163L517.233 279.154C538.104 281.69 542.586 309.99 523.52 318.851L455.923 350.269C441.781 356.842 435.405 373.451 441.517 387.799L470.728 456.378C478.968 475.721 456.701 493.752 439.493 481.672L378.487 438.84C365.723 429.879 348.151 432.662 338.781 445.129L293.996 504.716C281.364 521.523 254.615 511.255 256.474 490.313L263.063 416.064C264.442 400.529 253.246 386.703 237.764 384.822L163.768 375.83C142.896 373.294 138.414 344.995 157.48 336.133L225.077 304.716C239.219 298.143 245.595 281.533 239.483 267.185L210.272 198.606C202.033 179.263 224.299 161.232 241.507 173.313L302.513 216.144C315.277 225.106 332.849 222.323 342.219 209.856ZM383.807 147.865C398.856 127.841 430.725 140.075 428.511 165.025L421.921 239.274C420.733 252.659 430.38 264.571 443.718 266.192L517.715 275.183C542.581 278.205 547.921 311.921 525.206 322.478L457.609 353.896C445.424 359.559 439.931 373.87 445.197 386.232L474.408 454.811C484.225 477.856 457.696 499.339 437.195 484.945L376.188 442.114C365.191 434.393 350.051 436.791 341.978 447.532L297.193 507.119C282.144 527.143 250.275 514.91 252.489 489.959L259.079 415.71C260.267 402.326 250.621 390.413 237.282 388.792L163.285 379.801C138.419 376.78 133.079 343.064 155.794 332.506L223.391 301.088C235.576 295.425 241.069 281.115 235.803 268.753L206.592 200.174C196.775 177.129 223.304 155.646 243.805 170.039L304.812 212.871C315.809 220.592 330.949 218.194 339.022 207.452L383.807 147.865Z" fill="white"/>
<path opacity="0.793103" fill-rule="evenodd" clip-rule="evenodd" d="M336.411 211.58L376.297 152.287C388.032 134.842 415.282 143.696 414.522 164.707L411.938 236.121C411.374 251.706 423.279 264.927 438.838 265.996L510.13 270.891C531.105 272.331 537.062 300.357 518.486 310.204L455.349 343.673C441.569 350.978 436.072 367.898 442.926 381.907L474.332 446.095C483.573 464.981 462.28 484.153 444.464 472.989L383.91 435.045C370.695 426.764 353.293 430.463 344.588 443.403L304.702 502.696C292.967 520.141 265.718 511.287 266.478 490.276L269.061 418.863C269.625 403.277 257.721 390.056 242.162 388.988L170.87 384.093C149.894 382.652 143.937 354.626 162.513 344.779L225.651 311.31C239.43 304.005 244.928 287.085 238.073 273.077L206.667 208.888C197.427 190.003 218.719 170.831 236.535 181.995L297.089 219.939C310.304 228.22 327.707 224.521 336.411 211.58ZM372.978 150.055C386.959 129.271 419.425 139.819 418.519 164.852L415.935 236.265C415.45 249.693 425.706 261.085 439.112 262.005L510.404 266.9C535.394 268.616 542.491 302.007 520.359 313.739L457.222 347.208C445.35 353.501 440.613 368.079 446.519 380.149L477.925 444.337C488.934 466.837 463.566 489.679 442.34 476.378L381.786 438.434C370.4 431.299 355.407 434.486 347.907 445.636L308.021 504.929C294.04 525.713 261.575 515.164 262.48 490.131L265.064 418.718C265.55 405.29 255.293 393.899 241.888 392.978L170.596 388.083C145.606 386.367 138.508 352.977 160.64 341.245L223.777 307.776C235.649 301.482 240.386 286.904 234.481 274.835L203.074 210.646C192.065 188.146 217.433 165.305 238.659 178.605L299.213 216.549C310.599 223.684 325.593 220.497 333.093 209.348L372.978 150.055Z" fill="white"/>
<path opacity="0.827586" fill-rule="evenodd" clip-rule="evenodd" d="M330.789 213.587L365.933 154.931C376.739 136.896 404.414 144.311 404.755 165.333L405.862 233.703C406.115 249.297 418.695 261.877 434.289 262.13L502.659 263.237C523.681 263.578 531.096 291.253 513.061 302.059L454.405 337.203C441.027 345.219 436.422 362.404 444 376.035L477.226 435.798C487.442 454.174 467.182 474.434 448.806 464.218L389.042 430.992C375.411 423.414 358.227 428.019 350.211 441.397L315.067 500.054C304.261 518.089 276.585 510.673 276.245 489.651L275.137 421.281C274.884 405.688 262.304 393.107 246.711 392.855L178.341 391.747C157.319 391.407 149.903 363.731 167.938 352.925L226.595 317.781C239.973 309.765 244.578 292.581 236.999 278.95L203.774 219.186C193.558 200.81 213.818 180.55 232.194 190.766L291.957 223.992C305.588 231.57 322.773 226.965 330.789 213.587ZM362.501 152.875C375.376 131.388 408.349 140.223 408.754 165.268L409.862 233.638C410.08 247.074 420.918 257.912 434.354 258.13L502.723 259.238C527.769 259.643 536.604 292.616 515.117 305.491L456.461 340.635C444.934 347.541 440.967 362.347 447.496 374.091L480.722 433.855C492.893 455.748 468.755 479.886 446.862 467.714L387.098 434.489C375.354 427.959 360.548 431.927 353.642 443.453L318.498 502.109C305.624 523.597 272.651 514.762 272.245 489.716L271.138 421.346C270.92 407.911 260.081 397.072 246.646 396.854L178.276 395.747C153.23 395.341 144.395 362.368 165.883 349.494L224.539 314.35C236.065 307.444 240.033 292.638 233.503 280.893L200.278 221.13C188.106 199.237 212.244 175.099 234.137 187.27L293.901 220.496C305.645 227.025 320.451 223.058 327.357 211.531L362.501 152.875Z" fill="white"/>
<path opacity="0.862069" fill-rule="evenodd" clip-rule="evenodd" d="M325.363 215.86L355.946 158.167C365.793 139.591 393.819 145.548 395.26 166.523L399.733 231.668C400.801 247.227 414.022 259.131 429.608 258.567L494.863 256.206C515.874 255.446 524.728 282.696 507.283 294.431L453.103 330.877C440.163 339.582 436.464 356.984 444.745 370.2L479.417 425.532C490.58 443.348 471.408 464.64 452.523 455.4L393.87 426.702C379.861 419.847 362.941 425.345 355.636 439.124L325.053 496.817C315.206 515.394 287.18 509.436 285.74 488.461L281.267 423.317C280.198 407.758 266.977 395.853 251.392 396.417L186.137 398.778C165.126 399.538 156.272 372.288 173.717 360.553L227.897 324.107C240.837 315.402 244.536 298 236.255 284.785L201.583 229.452C190.419 211.637 209.591 190.344 228.477 199.584L287.13 228.283C301.138 235.137 318.059 229.639 325.363 215.86ZM352.412 156.293C364.144 134.162 397.534 141.259 399.25 166.249L403.723 231.394C404.644 244.799 416.035 255.056 429.463 254.57L494.718 252.209C519.751 251.303 530.3 283.769 509.516 297.75L455.335 334.196C444.186 341.696 440.999 356.689 448.134 368.076L482.806 423.408C496.107 444.634 473.265 470.002 450.765 458.993L392.112 430.295C380.042 424.389 365.464 429.126 359.171 440.998L328.588 498.691C316.856 520.823 283.465 513.725 281.749 488.735L277.276 423.591C276.356 410.185 264.964 399.929 251.536 400.414L186.281 402.775C161.249 403.681 150.7 371.215 171.484 357.234L225.664 320.788C236.813 313.288 240 298.295 232.866 286.909L198.193 231.576C184.893 210.35 207.735 184.982 230.235 195.991L288.888 224.69C300.957 230.595 315.536 225.858 321.829 213.986L352.412 156.293Z" fill="white"/>
<path opacity="0.896552" fill-rule="evenodd" clip-rule="evenodd" d="M320.148 218.384L346.371 161.963C355.232 142.897 383.532 147.379 386.068 168.25L393.572 230.013C395.454 245.495 409.28 256.691 424.814 255.312L486.788 249.812C507.73 247.953 517.998 274.702 501.191 287.334L451.455 324.715C438.988 334.085 436.205 351.657 445.167 364.421L480.917 415.341C492.998 432.548 474.966 454.815 455.623 446.576L398.383 422.194C384.035 416.082 367.425 422.458 360.852 436.6L334.629 493.021C325.768 512.087 297.468 507.605 294.932 486.734L287.427 424.971C285.546 409.489 271.72 398.293 256.185 399.672L194.212 405.172C173.27 407.031 163.002 380.282 179.809 367.65L229.544 330.269C242.011 320.899 244.794 303.327 235.833 290.563L200.083 239.643C188.002 222.436 206.033 200.169 225.376 208.408L282.617 232.79C296.965 238.902 313.574 232.526 320.148 218.384ZM342.743 160.277C353.301 137.562 387.017 142.902 390.038 167.768L397.543 229.53C399.164 242.869 411.076 252.516 424.461 251.328L486.434 245.827C511.385 243.613 523.618 275.482 503.594 290.532L453.859 327.912C443.117 335.985 440.719 351.125 448.44 362.122L484.19 413.042C498.584 433.543 477.101 460.072 454.056 450.256L396.815 425.874C384.453 420.608 370.143 426.101 364.479 438.286L338.256 494.707C327.699 517.422 293.983 512.082 290.961 487.216L283.457 425.454C281.836 412.115 269.923 402.468 256.539 403.656L194.566 409.157C169.615 411.371 157.382 379.502 177.405 364.452L227.141 327.072C237.882 318.999 240.28 303.859 232.559 292.862L196.809 241.942C182.416 221.441 203.899 194.912 226.944 204.728L284.184 229.11C296.546 234.376 310.857 228.883 316.52 216.698L342.743 160.277Z" fill="white"/>
<path opacity="0.931035" fill-rule="evenodd" clip-rule="evenodd" d="M315.153 221.143L337.237 166.286C345.088 146.782 373.583 149.777 377.208 170.487L387.404 228.737C390.093 244.099 404.486 254.557 419.927 252.367L478.477 244.063C499.293 241.111 510.947 267.286 494.825 280.78L449.476 318.735C437.517 328.745 435.657 346.438 445.274 358.716L481.74 405.27C494.705 421.821 477.864 445.001 458.116 437.785L402.572 417.49C387.924 412.138 371.671 419.374 365.847 433.841L343.763 488.699C335.911 508.202 307.416 505.207 303.791 484.497L293.596 426.247C290.907 410.885 276.514 400.428 261.072 402.618L202.523 410.921C181.706 413.874 170.052 387.699 186.175 374.204L231.523 336.25C243.483 326.24 245.343 308.546 235.726 296.269L199.259 249.715C186.295 233.164 203.136 209.984 222.884 217.199L278.428 237.495C293.076 242.847 309.329 235.611 315.153 221.143ZM333.526 164.792C342.88 141.555 376.83 145.124 381.148 169.797L391.344 228.048C393.661 241.283 406.062 250.293 419.366 248.406L477.915 240.103C502.716 236.585 516.601 267.771 497.392 283.848L452.044 321.802C441.739 330.427 440.137 345.671 448.423 356.249L484.889 402.803C500.336 422.522 480.271 450.139 456.743 441.542L401.199 421.247C388.578 416.635 374.575 422.87 369.557 435.335L347.474 490.192C338.119 513.429 304.17 509.861 299.851 485.187L289.656 426.937C287.339 413.701 274.938 404.691 261.634 406.578L203.084 414.882C178.284 418.399 164.399 387.214 183.608 371.137L228.956 333.182C239.26 324.558 240.863 309.313 232.577 298.735L196.111 252.182C180.664 232.462 200.729 204.845 224.256 213.442L279.8 233.738C292.421 238.349 306.424 232.114 311.442 219.65L333.526 164.792Z" fill="white"/>
<path opacity="0.965517" fill-rule="evenodd" clip-rule="evenodd" d="M310.39 224.123L328.573 171.099C335.393 151.211 364.006 152.711 368.709 173.202L381.25 227.836C384.74 243.037 399.66 252.726 414.966 249.731L469.977 238.966C490.61 234.929 503.618 260.458 488.224 274.778L447.18 312.955C435.761 323.577 434.83 341.344 445.076 353.101L481.904 395.36C495.718 411.21 480.113 435.24 460.014 429.068L406.43 412.611C391.521 408.033 375.669 416.11 370.61 430.862L352.427 483.886C345.607 503.774 316.994 502.274 312.291 481.782L299.75 427.149C296.26 411.948 281.34 402.259 266.034 405.254L211.023 416.018C190.39 420.056 177.382 394.527 192.776 380.207L233.82 342.03C245.239 331.408 246.17 313.641 235.924 301.884L199.096 259.625C185.282 243.775 200.887 219.745 220.986 225.917L274.57 242.373C289.479 246.952 305.331 238.875 310.39 224.123ZM324.789 169.801C332.914 146.107 367.004 147.894 372.608 172.308L385.149 226.941C388.155 240.038 401.011 248.386 414.198 245.806L469.209 235.041C493.792 230.23 509.289 260.646 490.948 277.706L449.904 315.884C440.066 325.036 439.263 340.343 448.092 350.473L484.92 392.732C501.377 411.616 482.785 440.245 458.84 432.891L405.255 416.435C392.41 412.49 378.753 419.449 374.394 432.16L356.211 485.183C348.086 508.878 313.996 507.091 308.392 482.677L295.851 428.044C292.845 414.947 279.989 406.599 266.802 409.179L211.791 419.944C187.208 424.754 171.711 394.339 190.052 377.278L231.096 339.101C240.934 329.949 241.737 314.642 232.908 304.512L196.08 262.253C179.623 243.369 198.215 214.74 222.16 222.094L275.745 238.55C288.59 242.494 302.247 235.535 306.606 222.825L324.789 169.801Z" fill="white"/>
<path fill-rule="evenodd" clip-rule="evenodd" d="M305.866 227.304L320.404 176.364C326.174 156.147 354.826 156.147 360.596 176.365L375.133 227.304C379.413 242.301 394.821 251.197 409.948 247.405L461.332 234.525C481.726 229.413 496.052 254.226 481.428 269.332L444.582 307.392C433.734 318.597 433.734 336.388 444.582 347.593L481.428 385.652C496.052 400.758 481.726 425.571 461.332 420.459L409.948 407.579C394.821 403.788 379.413 412.683 375.133 427.68L360.596 478.62C354.826 498.837 326.174 498.837 320.404 478.62L305.866 427.68C301.587 412.683 286.179 403.788 271.051 407.579L219.667 420.46C199.274 425.571 184.948 400.758 199.572 385.652L236.418 347.593C247.266 336.388 247.266 318.597 236.418 307.392L199.572 269.332C184.948 254.226 199.274 229.413 219.668 234.525L271.051 247.405C286.179 251.197 301.587 242.301 305.866 227.304ZM316.558 175.267C323.432 151.18 357.568 151.18 364.442 175.267L378.98 226.207C382.667 239.128 395.942 246.792 408.976 243.525L460.36 230.645C484.657 224.554 501.725 254.117 484.302 272.114L447.456 310.174C438.109 319.828 438.109 335.156 447.456 344.81L484.302 382.87C501.725 400.867 484.657 430.43 460.36 424.339L408.976 411.459C395.942 408.192 382.667 415.857 378.98 428.778L364.442 479.717C357.568 503.805 323.432 503.805 316.558 479.717L302.02 428.778C298.333 415.857 285.058 408.192 272.024 411.459L220.64 424.339C196.343 430.43 179.275 400.867 196.698 382.87L233.544 344.81C242.89 335.156 242.89 319.828 233.544 310.174L196.698 272.114C179.275 254.117 196.343 224.554 220.64 230.645L272.024 243.525C285.058 246.792 298.333 239.128 302.02 226.207L316.558 175.267Z" fill="white"/>
</svg>
