<svg width="246" height="296" viewBox="0 0 246 296" fill="none" xmlns="http://www.w3.org/2000/svg">
<g opacity="0.4">
<path opacity="0.0526316" d="M23.6195 238.884C30.0339 247.418 50.535 261.698 81.2243 250.549C119.586 236.612 134.422 199.67 168.661 180.515C193.931 166.377 261.834 145.155 300.879 168.605" stroke="white" stroke-width="1.59441"/>
<path opacity="0.105263" d="M17.2925 220.994C22.7797 230.151 41.6758 246.496 73.3623 238.616C112.971 228.765 131.587 193.576 167.64 178.105C194.25 166.686 263.999 152.678 300.379 180.081" stroke="white" stroke-width="1.59441"/>
<path opacity="0.157895" d="M12.5127 202.862C17.0126 212.543 34.0967 230.774 66.4333 226.249C106.854 220.592 129.047 187.542 166.52 175.924C194.178 167.349 265.009 160.709 298.325 191.765" stroke="white" stroke-width="1.59441"/>
<path opacity="0.210526" d="M9.29675 184.652C12.7601 194.75 27.845 214.667 60.4775 213.547C101.268 212.147 126.794 181.597 165.276 173.96C193.679 168.323 264.816 169.123 294.703 203.491" stroke="white" stroke-width="1.59441"/>
<path opacity="0.263158" d="M7.64432 166.528C10.0331 176.933 22.9535 198.317 55.5244 200.614C96.2379 203.485 124.818 175.771 163.887 172.198C192.723 169.561 263.387 177.792 289.518 215.096" stroke="white" stroke-width="1.59441"/>
<path opacity="0.315789" d="M7.53797 148.652C8.82609 159.249 19.4404 181.867 51.5927 187.556C91.7831 194.667 123.103 170.093 162.332 170.623C191.286 171.014 260.702 186.587 282.791 226.418" stroke="white" stroke-width="1.59441"/>
<path opacity="0.368421" d="M8.94297 131.185C9.11627 141.859 17.3083 165.462 48.6898 174.481C87.9167 185.754 121.634 164.588 160.592 169.216C189.347 172.632 256.755 195.375 274.559 237.297" stroke="white" stroke-width="1.59441"/>
<path opacity="0.421053" d="M11.8085 114.282C10.865 124.916 16.5449 149.246 46.8118 161.496C84.6455 176.808 120.39 159.282 158.652 167.957C186.891 174.359 251.553 204.024 264.878 247.578" stroke="white" stroke-width="1.59441"/>
<path opacity="0.473684" d="M16.0677 98.0937C14.0179 108.571 17.1235 133.361 45.9441 148.708C81.97 167.89 119.351 154.197 156.496 166.824C183.912 176.143 245.118 212.404 253.817 257.112" stroke="white" stroke-width="1.59441"/>
<path opacity="0.526316" d="M21.638 82.7611C18.5043 92.9666 19.0015 117.946 46.0602 136.221C79.8835 159.064 118.491 149.353 154.113 165.793C180.404 177.927 237.485 220.388 241.463 265.76" stroke="white" stroke-width="1.59441"/>
<path opacity="0.578947" d="M28.4229 68.4166C24.2396 78.2385 22.123 103.133 47.1233 124.136C78.3735 150.39 117.785 144.768 151.493 164.841C176.372 179.657 228.702 227.852 227.916 273.391" stroke="white" stroke-width="1.59441"/>
<path opacity="0.631579" d="M36.3124 55.1821C31.1254 64.5129 26.4182 89.0499 49.0861 112.551C77.4209 141.928 117.204 140.456 148.629 163.943C171.823 181.278 218.828 234.678 213.287 279.886" stroke="white" stroke-width="1.59441"/>
<path opacity="0.684211" d="M45.1846 43.1668C39.0506 51.9043 31.8044 75.8149 51.8916 101.557C77.0005 133.734 116.719 136.429 145.517 163.072C166.772 182.737 207.938 240.758 197.701 285.139" stroke="white" stroke-width="1.59441"/>
<path opacity="0.736842" d="M54.9063 32.4663C47.8926 40.5148 38.1868 63.537 55.4731 91.2375C77.0811 125.863 116.301 132.695 142.156 162.202C161.239 183.981 196.115 245.987 181.295 289.055" stroke="white" stroke-width="1.59441"/>
<path opacity="0.789474" d="M65.336 23.163C57.5194 30.4343 45.4603 52.3158 59.7564 81.6715C77.6266 118.366 115.917 129.26 138.546 161.308C155.248 184.962 183.452 250.275 164.211 291.557" stroke="white" stroke-width="1.59441"/>
<path opacity="0.842105" d="M76.3232 15.3227C67.7894 21.7371 53.5091 42.2382 64.6584 72.9274C78.5951 111.289 115.537 126.126 134.692 160.364C148.83 185.634 170.052 253.537 146.602 292.582" stroke="white" stroke-width="1.59441"/>
<path opacity="0.894737" d="M87.7122 8.99572C78.5546 14.483 62.2096 33.379 70.09 65.0656C79.9404 104.674 115.13 123.291 130.601 159.344C142.02 185.953 156.028 255.702 128.624 292.082" stroke="white" stroke-width="1.59441"/>
<path opacity="0.947368" d="M99.3425 4.21597C89.6616 8.71592 71.4309 25.8 75.956 58.1367C81.6123 98.5575 114.663 120.751 126.281 158.223C134.856 185.881 141.496 256.712 110.44 290.028" stroke="white" stroke-width="1.59441"/>
<path d="M111.051 1C100.953 4.46336 81.0364 19.5482 82.1565 52.1807C83.5567 92.9714 114.106 118.498 121.744 156.979C127.381 185.382 126.581 256.519 92.2124 286.406" stroke="white" stroke-width="1.59441"/>
</g>
</svg>
