<svg width="685" height="685" viewBox="0 0 685 685" fill="none" xmlns="http://www.w3.org/2000/svg">
<path opacity="0.0344828" d="M152.221 300.421L232.901 286.3C247.466 283.75 257.38 270.104 255.304 255.465L243.803 174.369C240.639 152.059 268.693 139.569 283.155 156.849L335.725 219.659C345.215 230.998 361.99 232.761 373.631 223.643L438.11 173.135C455.85 159.24 480.694 177.29 472.96 198.455L444.85 275.387C439.775 289.275 446.636 304.684 460.352 310.206L536.333 340.793C557.237 349.208 554.027 379.749 531.83 383.634L451.15 397.755C436.586 400.305 426.671 413.951 428.747 428.59L440.248 509.686C443.413 531.996 415.359 544.486 400.896 527.206L348.326 464.396C338.836 453.057 322.061 451.294 310.421 460.412L245.941 510.92C228.202 524.815 203.358 506.765 211.091 485.6L239.202 408.668C244.276 394.78 237.416 379.371 223.699 373.849L147.718 343.262C126.815 334.847 130.025 304.306 152.221 300.421Z" stroke="white" stroke-opacity="0.3" stroke-width="5"/>
<path opacity="0.0689655" d="M158.031 291.079L236.981 281.486C251.659 279.702 262.274 266.594 260.967 251.865L253.936 172.646C251.943 150.201 280.612 139.196 294.151 157.209L341.934 220.785C350.818 232.605 367.477 235.244 379.579 226.747L444.669 181.049C463.112 168.101 486.977 187.426 478.146 208.158L446.979 281.327C441.184 294.93 447.229 310.678 460.638 316.91L532.759 350.43C553.194 359.928 548.39 390.258 526.02 392.976L447.071 402.569C432.392 404.353 421.777 417.462 423.085 432.19L430.116 511.409C432.108 533.854 403.439 544.859 389.9 526.846L342.117 463.27C333.234 451.45 316.574 448.812 304.472 457.308L239.382 503.006C220.94 515.954 197.075 496.629 205.905 475.897L237.072 402.728C242.867 389.125 236.822 373.378 223.413 367.146L151.292 333.625C130.858 324.128 135.662 293.797 158.031 291.079Z" stroke="white" stroke-opacity="0.3" stroke-width="5"/>
<path opacity="0.103448" d="M164.289 282.229L241.262 276.944C256.013 275.931 267.3 263.396 266.766 248.619L263.976 171.515C263.161 148.996 292.367 139.507 304.944 158.204L348.008 222.222C356.261 234.49 372.76 237.997 385.29 230.146L450.669 189.178C469.763 177.213 492.584 197.761 482.681 218.002L448.772 287.306C442.273 300.587 447.485 316.629 460.55 323.555L528.718 359.691C548.628 370.245 542.243 400.282 519.762 401.826L442.789 407.111C428.038 408.124 416.751 420.659 417.286 435.436L420.075 512.54C420.89 535.059 391.684 544.548 379.107 525.851L336.043 461.833C327.79 449.564 311.291 446.057 298.762 453.909L233.382 494.876C214.288 506.841 191.467 486.293 201.37 466.053L235.279 396.749C241.778 383.468 236.566 367.426 223.502 360.5L155.333 324.364C135.423 313.81 141.808 283.773 164.289 282.229Z" stroke="white" stroke-opacity="0.3" stroke-width="5"/>
<path opacity="0.137931" d="M170.96 273.893L245.729 272.681C260.513 272.442 272.44 260.515 272.68 245.731L273.891 170.962C274.256 148.431 303.918 140.483 315.5 159.813L353.933 223.959C361.532 236.643 377.825 241.008 390.748 233.824L456.105 197.488C475.8 186.539 497.514 208.253 486.565 227.948L450.23 293.305C443.045 306.228 447.411 322.521 460.094 330.121L524.24 368.554C543.57 380.135 535.622 409.797 513.091 410.162L438.323 411.374C423.538 411.613 411.611 423.54 411.372 438.324L410.161 513.093C409.796 535.624 380.133 543.572 368.552 524.242L330.119 460.096C322.519 447.412 306.226 443.047 293.303 450.231L227.946 486.567C208.251 497.516 186.537 475.802 197.486 456.107L233.822 390.75C241.006 377.827 236.641 361.534 223.957 353.935L159.811 315.501C140.481 303.92 148.429 274.258 170.96 273.893Z" stroke="white" stroke-opacity="0.3" stroke-width="5"/>
<path opacity="0.172414" d="M178.008 266.088L250.363 268.706C265.139 269.241 277.674 257.954 278.687 243.203L283.647 170.97C285.19 148.49 315.228 142.105 325.782 162.014L359.693 225.984C366.618 239.048 382.66 244.261 395.941 237.762L460.976 205.942C481.217 196.038 501.765 218.859 489.8 237.954L451.356 299.306C443.504 311.836 447.011 328.335 459.28 336.587L519.355 376.999C538.052 389.576 528.563 418.782 506.044 417.967L433.689 415.349C418.912 414.815 406.377 426.101 405.364 440.853L400.404 513.085C398.861 535.566 368.823 541.951 358.269 522.041L324.359 458.071C317.433 445.007 301.391 439.795 288.11 446.293L223.075 478.114C202.834 488.017 182.286 465.196 194.251 446.102L232.696 384.749C240.547 372.22 237.04 355.721 224.771 347.468L164.696 307.057C145.999 294.479 155.489 265.274 178.008 266.088Z" stroke="white" stroke-opacity="0.3" stroke-width="5"/>
<path opacity="0.206897" d="M185.394 258.832L255.146 265.023C269.875 266.33 282.983 255.715 284.767 241.037L293.213 171.522C295.931 149.153 326.262 144.349 335.76 164.783L365.274 228.286C371.506 241.694 387.253 247.739 400.857 241.945L465.282 214.502C486.013 205.672 505.339 229.537 492.391 247.979L452.154 305.291C443.657 317.392 446.296 334.052 458.116 342.936L514.094 385.008C532.107 398.547 521.102 427.216 498.657 425.224L428.905 419.033C414.177 417.726 401.068 428.341 399.285 443.019L390.838 512.534C388.12 534.903 357.789 539.707 348.292 519.272L318.777 455.77C312.545 442.361 296.798 436.317 283.194 442.111L218.769 469.553C198.038 478.384 178.712 454.519 191.66 436.077L231.898 378.765C240.394 366.664 237.755 350.004 225.935 341.12L169.957 299.048C151.944 285.509 162.949 256.84 185.394 258.832Z" stroke="white" stroke-opacity="0.3" stroke-width="5"/>
<path opacity="0.241379" d="M193.082 252.137L260.062 261.636C274.701 263.712 288.348 253.798 290.897 239.233L302.561 172.596C306.446 150.4 336.986 147.19 345.401 168.093L370.665 230.849C376.186 244.566 391.596 251.426 405.484 246.352L469.025 223.134C490.19 215.401 508.24 240.244 494.345 257.984L452.628 311.241C443.51 322.881 445.273 339.656 456.612 349.146L508.49 392.565C525.77 407.028 513.279 435.082 490.969 431.918L423.989 422.419C409.349 420.343 395.703 430.257 393.154 444.822L381.49 511.459C377.605 533.655 347.065 536.865 338.65 515.961L313.386 453.206C307.865 439.489 292.455 432.629 278.567 437.703L215.026 460.921C193.861 468.654 175.811 443.81 189.706 426.071L231.423 372.814C240.541 361.174 238.778 344.399 227.439 334.909L175.561 291.489C158.281 277.027 170.772 248.973 193.082 252.137Z" stroke="white" stroke-opacity="0.3" stroke-width="5"/>
<path opacity="0.275862" d="M201.033 246.016L265.092 258.551C279.603 261.391 293.749 252.204 297.057 237.793L311.661 174.173C316.702 152.211 347.369 150.603 354.678 171.919L375.852 233.663C380.648 247.65 395.677 255.308 409.812 250.967L472.21 231.804C493.751 225.189 510.476 250.943 495.671 267.931L452.786 317.14C443.071 328.287 443.954 345.132 454.78 355.202L502.575 399.659C519.074 415.006 505.133 442.368 483.018 438.041L418.959 425.505C404.448 422.666 390.302 431.852 386.994 446.264L372.39 509.883C367.349 531.846 336.682 533.453 329.373 512.138L308.199 450.393C303.403 436.407 288.374 428.749 274.239 433.09L211.841 452.252C190.3 458.868 173.575 433.113 188.38 416.125L231.266 366.916C240.98 355.769 240.097 338.925 229.271 328.854L181.477 284.397C164.977 269.05 178.919 241.688 201.033 246.016Z" stroke="white" stroke-opacity="0.3" stroke-width="5"/>
<path opacity="0.310345" d="M209.208 240.475L270.218 255.768C284.561 259.363 299.168 250.929 303.226 236.711L320.487 176.228C326.671 154.559 357.38 154.559 363.564 176.228L380.825 236.711C384.883 250.929 399.49 259.363 413.833 255.768L474.843 240.475C496.701 234.996 512.055 261.591 496.382 277.78L452.632 322.97C442.348 333.594 442.348 350.461 452.632 361.085L496.382 406.275C512.055 422.465 496.701 449.059 474.843 443.58L413.833 428.287C399.49 424.692 384.883 433.126 380.825 447.344L363.564 507.827C357.38 529.496 326.671 529.496 320.487 507.827L303.226 447.344C299.168 433.126 284.561 424.692 270.218 428.287L209.208 443.58C187.35 449.059 171.996 422.465 187.67 406.275L231.419 361.085C241.704 350.461 241.704 333.594 231.419 322.97L187.67 277.78C171.996 261.591 187.35 234.996 209.208 240.475Z" stroke="white" stroke-opacity="0.3" stroke-width="5"/>
<path opacity="0.344828" d="M217.568 235.523L275.423 253.29C289.558 257.631 304.587 249.973 309.383 235.987L329.016 178.737C336.325 157.422 366.992 159.029 372.033 180.992L385.573 239.98C388.882 254.391 403.028 263.578 417.539 260.738L476.934 249.115C499.048 244.788 512.99 272.15 496.49 287.497L452.176 328.717C441.349 338.788 440.466 355.632 450.181 366.779L489.944 412.406C504.749 429.393 488.024 455.148 466.483 448.533L408.628 430.765C394.493 426.424 379.464 434.082 374.668 448.069L355.036 505.318C347.726 526.633 317.06 525.026 312.018 503.063L298.478 444.076C295.17 429.664 281.024 420.478 266.513 423.317L207.117 434.94C185.003 439.267 171.062 411.906 187.561 396.558L231.876 355.338C242.702 345.268 243.585 328.423 233.87 317.276L194.107 271.65C179.302 254.662 196.028 228.907 217.568 235.523Z" stroke="white" stroke-opacity="0.3" stroke-width="5"/>
<path opacity="0.37931" d="M226.075 231.162L280.689 251.118C294.577 256.192 309.987 249.332 315.508 235.615L337.222 181.676C345.637 160.773 376.178 163.982 380.063 186.179L390.088 243.454C392.637 258.019 406.283 267.933 420.923 265.857L478.493 257.692C500.803 254.528 513.294 282.582 496.014 297.045L451.424 334.364C440.086 343.854 438.322 360.629 447.44 372.269L483.296 418.044C497.191 435.783 479.141 460.627 457.976 452.894L403.362 432.938C389.474 427.863 374.065 434.724 368.543 448.44L346.829 502.38C338.414 523.283 307.873 520.073 303.988 497.877L293.963 440.602C291.414 426.037 277.768 416.123 263.128 418.199L205.559 426.363C183.248 429.528 170.758 401.474 188.038 387.011L232.627 349.692C243.966 340.202 245.729 323.426 236.611 311.786L200.755 266.012C186.86 248.272 204.91 223.428 226.075 231.162Z" stroke="white" stroke-opacity="0.3" stroke-width="5"/>
<path opacity="0.413793" d="M234.69 227.394L285.998 249.25C299.602 255.044 315.349 248.999 321.581 235.591L345.087 185.017C354.584 164.582 384.915 169.386 387.633 191.755L394.36 247.118C396.144 261.796 409.252 272.411 423.981 271.104L479.532 266.174C501.977 264.181 512.982 292.85 494.969 306.389L450.387 339.896C438.567 348.78 435.929 365.44 444.425 377.541L476.47 423.185C489.418 441.627 470.093 465.492 449.362 456.662L398.053 434.806C384.449 429.012 368.702 435.056 362.47 448.465L338.964 499.039C329.467 519.474 299.136 514.67 296.418 492.3L289.691 436.938C287.907 422.26 274.799 411.645 260.071 412.952L204.519 417.882C182.074 419.874 171.069 391.205 189.082 377.667L233.664 344.16C245.484 335.276 248.122 318.616 239.626 306.515L207.581 260.871C194.633 242.429 213.958 218.564 234.69 227.394Z" stroke="white" stroke-opacity="0.3" stroke-width="5"/>
<path opacity="0.448276" d="M243.374 224.219L291.334 247.685C304.616 254.184 320.658 248.971 327.583 235.907L352.59 188.732C363.144 168.823 393.182 175.207 394.726 197.688L398.383 250.956C399.396 265.708 411.931 276.994 426.708 276.46L480.066 274.529C502.585 273.714 512.075 302.92 493.378 315.497L449.075 345.299C436.806 353.552 433.299 370.051 441.151 382.58L469.502 427.825C481.467 446.92 460.919 469.741 440.678 459.837L392.718 436.371C379.436 429.872 363.394 435.085 356.469 448.149L331.461 495.324C320.907 515.233 290.87 508.849 289.326 486.368L285.668 433.1C284.655 418.348 272.12 407.062 257.344 407.596L203.985 409.527C181.466 410.341 171.977 381.136 190.674 368.559L234.977 338.757C247.245 330.504 250.752 314.005 242.901 301.475L214.55 256.231C202.585 237.136 223.133 214.315 243.374 224.219Z" stroke="white" stroke-opacity="0.3" stroke-width="5"/>
<path opacity="0.482759" d="M252.089 221.631L296.678 246.421C309.602 253.606 325.894 249.24 333.494 236.556L359.715 192.793C371.296 173.463 400.959 181.411 401.324 203.942L402.15 254.953C402.39 269.737 414.317 281.664 429.101 281.903L480.112 282.73C502.643 283.095 510.591 312.757 491.261 324.338L447.497 350.559C434.813 358.159 430.448 374.452 437.633 387.375L462.422 431.965C473.372 451.66 451.657 473.374 431.963 462.425L387.373 437.635C374.45 430.45 358.157 434.816 350.557 447.5L324.336 491.263C312.755 510.593 283.092 502.645 282.727 480.114L281.901 429.103C281.662 414.319 269.734 402.392 254.95 402.152L203.939 401.326C181.409 400.961 173.461 371.299 192.79 359.717L236.554 333.496C249.238 325.897 253.603 309.604 246.419 296.681L221.629 252.091C210.679 232.396 232.394 210.682 252.089 221.631Z" stroke="white" stroke-opacity="0.3" stroke-width="5"/>
<path opacity="0.517241" d="M260.798 219.627L302.016 245.454C314.545 253.306 331.044 249.799 339.297 237.53L366.446 197.17C379.024 178.473 408.229 187.963 407.415 210.482L405.656 259.091C405.121 273.868 416.408 286.403 431.159 287.416L479.686 290.748C502.167 292.291 508.552 322.329 488.643 332.883L445.666 355.665C432.602 362.59 427.39 378.632 433.888 391.914L455.266 435.605C465.17 455.846 442.349 476.394 423.254 464.429L382.036 438.601C369.507 430.75 353.008 434.257 344.755 446.526L317.605 486.886C305.028 505.583 275.823 496.093 276.637 473.574L278.396 424.965C278.93 410.188 267.644 397.653 252.892 396.64L204.365 393.308C181.884 391.764 175.5 361.727 195.409 351.173L238.386 328.391C251.45 321.466 256.662 305.424 250.164 292.142L228.786 248.45C218.882 228.21 241.703 207.661 260.798 219.627Z" stroke="white" stroke-opacity="0.3" stroke-width="5"/>
<path opacity="0.551724" d="M269.464 218.196L307.329 244.78C319.43 253.276 336.09 250.638 344.974 238.818L372.77 201.834C386.309 183.821 414.978 194.826 412.986 217.271L408.896 263.355C407.589 278.084 418.204 291.192 432.882 292.976L478.809 298.556C501.179 301.274 505.982 331.605 485.548 341.103L443.593 360.602C430.184 366.834 424.139 382.582 429.934 396.185L448.065 438.75C456.895 459.481 433.03 478.807 414.588 465.859L376.723 439.275C364.621 430.778 347.962 433.417 339.078 445.237L311.281 482.221C297.743 500.234 269.074 489.229 271.066 466.784L275.156 420.7C276.463 405.971 265.848 392.863 251.17 391.079L205.242 385.499C182.873 382.78 178.069 352.45 198.504 342.952L240.459 323.452C253.867 317.22 259.912 301.473 254.118 287.87L235.987 245.305C227.156 224.574 251.021 205.248 269.464 218.196Z" stroke="white" stroke-opacity="0.3" stroke-width="5"/>
<path opacity="0.586207" d="M278.051 217.331L312.602 244.395C324.242 253.513 341.017 251.75 350.508 240.411L378.677 206.755C393.139 189.475 421.193 201.965 418.029 224.275L411.866 267.73C409.79 282.37 419.705 296.016 434.269 298.565L477.501 306.132C499.698 310.017 502.908 340.558 482.004 348.973L441.29 365.363C427.574 370.884 420.713 386.294 425.788 400.182L440.85 441.405C448.584 462.57 423.74 480.621 406.001 466.725L371.449 439.661C359.809 430.543 343.034 432.306 333.544 443.645L305.375 477.301C290.912 494.581 262.858 482.091 266.022 459.78L272.185 416.326C274.261 401.686 264.347 388.04 249.782 385.491L206.55 377.924C184.354 374.039 181.144 343.498 202.047 335.083L242.761 318.693C256.478 313.172 263.339 297.762 258.264 283.874L243.201 242.651C235.468 221.486 260.311 203.435 278.051 217.331Z" stroke="white" stroke-opacity="0.3" stroke-width="5"/>
<path opacity="0.62069" d="M286.524 217.017L317.82 244.291C328.967 254.006 345.812 253.123 355.882 242.297L384.156 211.9C399.503 195.401 426.865 209.342 422.538 231.457L414.565 272.197C411.726 286.708 420.912 300.854 435.324 304.162L475.785 313.45C497.747 318.491 499.354 349.158 478.039 356.468L438.771 369.934C424.784 374.73 417.126 389.759 421.467 403.894L433.654 443.578C440.27 465.118 414.515 481.844 397.527 467.039L366.231 439.764C355.084 430.05 338.24 430.933 328.169 441.759L299.895 472.155C284.548 488.655 257.186 474.713 261.514 452.599L269.486 411.859C272.326 397.348 263.139 383.201 248.728 379.893L208.267 370.606C186.304 365.564 184.697 334.898 206.012 327.588L245.281 314.122C259.267 309.326 266.925 294.297 262.584 280.162L250.397 240.478C243.782 218.937 269.536 202.212 286.524 217.017Z" stroke="white" stroke-opacity="0.3" stroke-width="5"/>
<path opacity="0.655172" d="M294.85 217.24L322.968 244.463C333.592 254.747 350.459 254.747 361.083 244.463L389.201 217.24C405.391 201.567 431.986 216.921 426.507 238.779L416.991 276.741C413.396 291.084 421.83 305.691 436.048 309.749L473.683 320.489C495.351 326.673 495.351 357.382 473.683 363.566L436.048 374.306C421.83 378.364 413.396 392.972 416.991 407.314L426.507 445.277C431.986 467.135 405.391 482.489 389.201 466.815L361.083 439.593C350.459 429.308 333.592 429.308 322.968 439.593L294.85 466.815C278.66 482.489 252.066 467.135 257.544 445.277L267.06 407.314C270.655 392.972 262.222 378.364 248.003 374.306L210.369 363.566C188.7 357.382 188.7 326.673 210.369 320.489L248.003 309.749C262.222 305.691 270.655 291.084 267.06 276.741L257.544 238.779C252.066 216.921 278.66 201.567 294.85 217.24Z" stroke="white" stroke-opacity="0.3" stroke-width="5"/>
<path opacity="0.689655" d="M302.995 217.978L328.033 244.895C338.103 255.721 354.948 256.604 366.095 246.889L393.808 222.737C410.796 207.932 436.551 224.658 429.935 246.198L419.143 281.34C414.802 295.474 422.46 310.503 436.447 315.3L471.22 327.224C492.535 334.534 490.928 365.2 468.966 370.242L433.136 378.466C418.725 381.774 409.538 395.921 412.378 410.431L419.437 446.508C423.765 468.623 396.403 482.564 381.056 466.065L356.019 439.148C345.948 428.321 329.104 427.439 317.957 437.153L290.243 461.305C273.255 476.11 247.501 459.385 254.116 437.844L264.908 402.703C269.249 388.568 261.591 373.539 247.605 368.743L212.831 356.818C191.516 349.509 193.123 318.842 215.086 313.801L250.915 305.576C265.326 302.268 274.513 288.122 271.674 273.611L264.614 237.534C260.287 215.42 287.648 201.478 302.995 217.978Z" stroke="white" stroke-opacity="0.3" stroke-width="5"/>
<path opacity="0.724138" d="M310.929 219.224L332.999 245.593C342.489 256.931 359.264 258.694 370.904 249.577L397.973 228.373C415.712 214.478 440.556 232.528 432.823 253.693L421.022 285.989C415.947 299.877 422.808 315.287 436.524 320.808L468.422 333.649C489.325 342.064 486.115 372.605 463.919 376.49L430.049 382.418C415.484 384.967 405.57 398.614 407.646 413.253L412.474 447.297C415.638 469.608 387.584 482.098 373.122 464.818L351.053 438.45C341.563 427.111 324.787 425.348 313.147 434.466L286.078 455.67C268.339 469.565 243.495 451.515 251.228 430.35L263.029 398.053C268.104 384.165 261.243 368.756 247.527 363.234L215.63 350.394C194.726 341.978 197.936 311.438 220.132 307.553L254.002 301.625C268.567 299.075 278.481 285.429 276.405 270.789L271.577 236.745C268.413 214.435 296.467 201.944 310.929 219.224Z" stroke="white" stroke-opacity="0.3" stroke-width="5"/>
<path opacity="0.758621" d="M318.622 220.953L337.853 246.541C346.737 258.361 363.397 260.999 375.499 252.503L401.695 234.111C420.138 221.163 444.003 240.488 435.172 261.22L422.628 290.668C416.834 304.272 422.879 320.019 436.287 326.251L465.314 339.742C485.749 349.239 480.945 379.57 458.576 382.288L426.8 386.149C412.122 387.933 401.507 401.041 402.814 415.769L405.644 447.653C407.636 470.098 378.967 481.103 365.429 463.09L346.197 437.503C337.314 425.683 320.654 423.044 308.552 431.54L282.355 449.933C263.913 462.881 240.048 443.555 248.879 422.824L261.422 393.375C267.217 379.772 261.172 364.025 247.764 357.792L218.737 344.301C198.302 334.804 203.106 304.473 225.475 301.755L257.25 297.894C271.929 296.111 282.544 283.002 281.237 268.274L278.407 236.39C276.415 213.945 305.084 202.94 318.622 220.953Z" stroke="white" stroke-opacity="0.3" stroke-width="5"/>
<path opacity="0.793103" d="M326.046 223.141L342.585 247.728C350.838 259.997 367.337 263.504 379.867 255.653L404.977 239.918C424.072 227.953 446.893 248.501 436.989 268.742L423.966 295.359C417.467 308.641 422.68 324.683 435.744 331.608L461.925 345.487C481.835 356.041 475.45 386.079 452.969 387.622L423.406 389.652C408.655 390.665 397.368 403.2 397.903 417.977L398.974 447.59C399.789 470.109 370.583 479.599 358.006 460.901L341.466 436.314C333.213 424.045 316.714 420.538 304.185 428.39L279.074 444.124C259.98 456.089 237.159 435.541 247.062 415.3L260.086 388.683C266.584 375.401 261.372 359.359 248.308 352.434L222.126 338.555C202.217 328.001 208.602 297.964 231.082 296.42L260.646 294.39C275.397 293.377 286.684 280.842 286.149 266.066L285.078 236.452C284.263 213.933 313.469 204.444 326.046 223.141Z" stroke="white" stroke-opacity="0.3" stroke-width="5"/>
<path opacity="0.827586" d="M333.173 225.766L347.182 249.147C354.782 261.83 371.074 266.196 383.998 259.011L407.82 245.767C427.515 234.818 449.229 256.532 438.28 276.227L425.036 300.049C417.851 312.973 422.217 329.266 434.9 336.865L458.281 350.874C477.611 362.455 469.663 392.118 447.132 392.483L419.879 392.924C405.095 393.164 393.168 405.091 392.929 419.875L392.487 447.128C392.122 469.659 362.46 477.607 350.878 458.277L336.869 434.896C329.27 422.212 312.977 417.847 300.054 425.031L276.231 438.276C256.536 449.225 234.822 427.511 245.771 407.816L259.016 383.993C266.2 371.07 261.835 354.777 249.151 347.178L225.77 333.169C206.44 321.587 214.388 291.925 236.919 291.56L264.172 291.119C278.956 290.879 290.883 278.952 291.123 264.168L291.564 236.915C291.929 214.384 321.592 206.436 333.173 225.766Z" stroke="white" stroke-opacity="0.3" stroke-width="5"/>
<path opacity="0.862069" d="M339.979 228.801L351.633 250.784C358.558 263.848 374.6 269.061 387.881 262.562L410.23 251.627C430.471 241.724 451.019 264.545 439.054 283.639L425.843 304.723C417.992 317.252 421.499 333.751 433.767 342.004L454.412 355.891C473.109 368.469 463.619 397.674 441.1 396.86L416.236 395.96C401.459 395.425 388.924 406.712 387.912 421.463L386.207 446.286C384.664 468.766 354.626 475.151 344.072 455.242L332.419 433.259C325.494 420.195 309.452 414.982 296.17 421.481L273.821 432.416C253.58 442.319 233.032 419.498 244.997 400.404L258.208 379.32C266.06 366.791 262.553 350.292 250.284 342.039L229.64 328.152C210.943 315.575 220.432 286.369 242.951 287.184L267.815 288.083C282.592 288.618 295.127 277.331 296.14 262.58L297.844 237.758C299.388 215.277 329.426 208.892 339.979 228.801Z" stroke="white" stroke-opacity="0.3" stroke-width="5"/>
<path opacity="0.896552" d="M346.442 232.222L355.927 252.63C362.159 266.038 377.906 272.083 391.51 266.288L412.214 257.469C432.946 248.639 452.271 272.504 439.323 290.946L426.392 309.364C417.896 321.466 420.534 338.126 432.354 347.009L450.344 360.53C468.358 374.069 457.353 402.738 434.907 400.746L412.491 398.756C397.762 397.449 384.654 408.064 382.87 422.742L380.156 445.083C377.438 467.452 347.107 472.256 337.61 451.821L328.124 431.413C321.892 418.005 306.145 411.96 292.542 417.754L271.837 426.574C251.106 435.404 231.78 411.539 244.728 393.097L257.659 374.678C266.156 362.577 263.517 345.917 251.697 337.033L233.707 323.512C215.694 309.974 226.699 281.305 249.144 283.297L271.561 285.287C286.289 286.594 299.398 275.979 301.181 261.3L303.896 238.96C306.614 216.591 336.944 211.787 346.442 232.222Z" stroke="white" stroke-opacity="0.3" stroke-width="5"/>
<path opacity="0.931035" d="M352.539 235.999L360.056 254.671C365.578 268.387 380.987 275.248 394.875 270.174L413.781 263.265C434.946 255.532 452.996 280.376 439.101 298.115L426.689 313.961C417.571 325.601 419.334 342.376 430.673 351.866L446.108 364.785C463.388 379.248 450.898 407.302 428.587 404.138L408.658 401.311C394.019 399.235 380.372 409.15 377.823 423.714L374.353 443.541C370.468 465.738 339.927 468.948 331.512 448.044L323.995 429.372C318.474 415.656 303.064 408.795 289.176 413.869L270.271 420.778C249.105 428.511 231.055 403.667 244.951 385.928L257.363 370.082C266.481 358.442 264.718 341.667 253.379 332.177L237.943 319.258C220.663 304.795 233.154 276.741 255.464 279.905L275.393 282.732C290.033 284.808 303.679 274.893 306.228 260.329L309.699 240.502C313.584 218.305 344.124 215.095 352.539 235.999Z" stroke="white" stroke-opacity="0.3" stroke-width="5"/>
<path opacity="0.965517" d="M358.252 240.104L364.011 256.897C368.807 270.883 383.836 278.541 397.971 274.2L414.941 268.989C436.482 262.373 453.207 288.128 438.402 305.116L426.739 318.499C417.024 329.646 417.907 346.49 428.733 356.561L441.732 368.652C458.231 383.999 444.29 411.361 422.176 407.033L404.754 403.624C390.243 400.784 376.096 409.971 372.788 424.382L368.817 441.685C363.775 463.647 333.109 465.255 325.799 443.939L320.041 427.147C315.244 413.16 300.215 405.502 286.081 409.843L269.11 415.055C247.57 421.67 230.844 395.916 245.649 378.928L257.313 365.545C267.027 354.398 266.144 337.553 255.318 327.483L242.319 315.392C225.82 300.045 239.761 272.683 261.876 277.01L279.298 280.42C293.809 283.259 307.955 274.072 311.263 259.661L315.235 242.359C320.276 220.396 350.943 218.789 358.252 240.104Z" stroke="white" stroke-opacity="0.3" stroke-width="5"/>
<path d="M363.564 244.507L367.784 259.293C371.842 273.511 386.449 281.945 400.792 278.35L415.706 274.612C437.564 269.133 452.918 295.727 437.245 311.917L426.55 322.964C416.265 333.588 416.265 350.455 426.55 361.079L437.245 372.126C452.918 388.316 437.564 414.91 415.706 409.431L400.792 405.693C386.449 402.098 371.842 410.531 367.784 424.75L363.564 439.536C357.38 461.204 326.671 461.204 320.487 439.536L316.268 424.75C312.21 410.531 297.602 402.098 283.26 405.693L268.345 409.431C246.488 414.91 231.133 388.316 246.807 372.126L257.502 361.079C267.787 350.455 267.787 333.588 257.502 322.964L246.807 311.917C231.133 295.727 246.488 269.133 268.345 274.612L283.26 278.35C297.602 281.945 312.21 273.511 316.268 259.293L320.487 244.507C326.671 222.838 357.38 222.838 363.564 244.507Z" stroke="white" stroke-opacity="0.3" stroke-width="5"/>
</svg>
