<svg width="514" height="527" viewBox="0 0 514 527" fill="none" xmlns="http://www.w3.org/2000/svg">
<path opacity="0.0344828" d="M67.3799 124.14C69.3515 121.79 72.4472 120.169 76.939 119.495C81.4556 118.818 87.1918 119.135 94.0855 120.513C107.87 123.268 125.658 130.134 146.288 140.629C187.504 161.597 239.46 196.735 292.329 241.097C345.198 285.46 388.825 330.525 416.631 367.474C430.548 385.968 440.4 402.294 445.507 415.39C448.061 421.94 449.369 427.534 449.486 432.099C449.603 436.64 448.544 439.97 446.572 442.32C444.6 444.669 441.505 446.291 437.013 446.964C432.496 447.642 426.76 447.325 419.866 445.947C406.082 443.192 388.294 436.325 367.664 425.83C326.448 404.863 274.492 369.725 221.623 325.362C168.754 281 125.127 235.935 97.3212 198.986C83.4034 180.492 73.552 164.166 68.4451 151.07C65.8911 144.52 64.583 138.926 64.4659 134.36C64.3494 129.82 65.4083 126.49 67.3799 124.14Z" stroke="white" stroke-opacity="0.3" stroke-width="6"/>
<path opacity="0.0689655" d="M81.967 106.222C84.1359 104.053 87.361 102.708 91.8944 102.428C96.453 102.147 102.14 102.962 108.887 104.936C122.379 108.882 139.501 117.273 159.138 129.526C198.369 154.006 247.065 193.538 295.867 242.34C344.668 291.141 384.201 339.837 408.681 379.069C420.934 398.705 429.325 415.828 433.271 429.319C435.244 436.067 436.06 441.754 435.779 446.312C435.499 450.845 434.154 454.071 431.985 456.24C429.816 458.408 426.591 459.754 422.057 460.033C417.499 460.314 411.812 459.499 405.065 457.526C391.573 453.579 374.451 445.188 354.814 432.935C315.583 408.455 266.886 368.923 218.085 320.121C169.284 271.32 129.751 222.624 105.271 183.392C93.018 163.756 84.627 146.633 80.681 133.142C78.7076 126.394 77.892 120.708 78.1733 116.149C78.4529 111.616 79.7981 108.391 81.967 106.222Z" stroke="white" stroke-opacity="0.3" stroke-width="6"/>
<path opacity="0.103448" d="M97.8861 89.6344C100.236 87.6628 103.566 86.6039 108.106 86.7204C112.672 86.8375 118.266 88.1456 124.816 90.6996C137.912 95.8065 154.238 105.658 172.732 119.576C209.681 147.382 254.746 191.008 299.108 243.877C343.471 296.746 378.609 348.702 399.576 389.918C410.071 410.548 416.938 428.337 419.693 442.121C421.071 449.015 421.388 454.751 420.71 459.267C420.037 463.759 418.416 466.855 416.066 468.826C413.716 470.798 410.386 471.857 405.846 471.741C401.28 471.623 395.686 470.315 389.136 467.761C376.04 462.654 359.714 452.803 341.22 438.885C304.271 411.079 259.206 367.453 214.844 314.584C170.481 261.715 135.343 209.758 114.376 168.543C103.881 147.913 97.0139 130.124 94.2587 116.34C92.8809 109.446 92.5641 103.71 93.2415 99.1935C93.9152 94.7017 95.5364 91.606 97.8861 89.6344Z" stroke="white" stroke-opacity="0.3" stroke-width="6"/>
<path opacity="0.137931" d="M115.016 74.4902C117.528 72.7308 120.938 71.9661 125.451 72.4779C129.989 72.9926 135.448 74.7832 141.75 77.8983C154.352 84.1272 169.757 95.364 186.967 110.841C221.352 141.761 262.444 189.149 302.029 245.684C341.615 302.218 372.091 357.039 389.387 399.925C398.044 421.391 403.334 439.711 404.877 453.683C405.649 460.67 405.465 466.412 404.396 470.853C403.333 475.269 401.449 478.211 398.936 479.97C396.424 481.73 393.014 482.494 388.501 481.983C383.963 481.468 378.504 479.677 372.202 476.562C359.6 470.333 344.195 459.097 326.984 443.62C292.6 412.699 251.508 365.311 211.923 308.777C172.337 252.243 141.861 197.422 124.565 154.535C115.908 133.069 110.618 114.75 109.075 100.778C108.303 93.7904 108.487 88.0484 109.556 83.608C110.618 79.192 112.503 76.2495 115.016 74.4902Z" stroke="white" stroke-opacity="0.3" stroke-width="6"/>
<path opacity="0.172414" d="M133.226 60.8893C135.882 59.3557 139.346 58.891 143.797 59.7942C148.273 60.7024 153.555 62.962 159.562 66.6146C171.572 73.918 185.94 86.4547 201.736 103.373C233.295 137.172 270.1 187.961 304.607 247.731C339.115 307.5 364.697 364.768 378.189 408.999C384.942 431.138 388.616 449.849 388.936 463.902C389.096 470.93 388.411 476.634 386.96 480.965C385.516 485.271 383.382 488.038 380.726 489.572C378.07 491.105 374.606 491.57 370.155 490.667C365.679 489.759 360.397 487.499 354.39 483.847C342.38 476.543 328.013 464.006 312.216 447.089C280.657 413.289 243.852 362.5 209.345 302.731C174.837 242.961 149.255 185.693 135.763 141.462C129.01 119.323 125.336 100.613 125.016 86.5593C124.857 79.5311 125.541 73.827 126.992 69.4966C128.436 65.19 130.57 62.4229 133.226 60.8893Z" stroke="white" stroke-opacity="0.3" stroke-width="6"/>
<path opacity="0.206897" d="M152.378 48.9193C155.158 47.623 158.648 47.462 163.004 48.7497C167.384 50.0446 172.449 52.7559 178.114 56.9181C189.443 65.2406 202.663 78.9817 216.924 97.2119C245.417 133.634 277.656 187.437 306.823 249.986C335.99 312.536 356.483 371.816 366.069 417.054C370.867 439.698 372.896 458.657 371.99 472.685C371.536 479.7 370.358 485.323 368.534 489.51C366.721 493.675 364.354 496.245 361.574 497.542C358.794 498.838 355.303 498.999 350.948 497.711C346.568 496.416 341.503 493.705 335.837 489.543C324.509 481.22 311.289 467.479 297.028 449.249C268.535 412.827 236.296 359.024 207.129 296.474C177.962 233.925 157.468 174.645 147.883 129.407C143.085 106.763 141.056 87.8037 141.962 73.7761C142.415 66.7607 143.594 61.138 145.417 56.9505C147.231 52.7862 149.598 50.2156 152.378 48.9193Z" stroke="white" stroke-opacity="0.3" stroke-width="6"/>
<path opacity="0.241379" d="M172.326 38.6559C175.208 37.6068 178.7 37.7507 182.927 39.4131C187.177 41.0847 191.986 44.2272 197.267 48.8673C207.827 58.1454 219.799 72.9865 232.418 92.3903C257.628 131.157 285.054 187.565 308.659 252.419C332.264 317.272 347.513 378.113 353.119 424.014C355.925 446.99 356.294 466.054 354.168 479.949C353.105 486.898 351.441 492.397 349.26 496.41C347.09 500.4 344.508 502.755 341.626 503.804C338.744 504.853 335.252 504.709 331.025 503.046C326.775 501.375 321.966 498.232 316.685 493.592C306.125 484.314 294.153 469.473 281.534 450.069C256.324 411.303 228.898 354.894 205.293 290.041C181.688 225.188 166.439 164.347 160.833 118.445C158.027 95.4699 157.658 76.4055 159.784 62.5103C160.847 55.5611 162.511 50.0625 164.692 46.0499C166.862 42.0594 169.444 39.7049 172.326 38.6559Z" stroke="white" stroke-opacity="0.3" stroke-width="6"/>
<path opacity="0.275862" d="M192.918 30.1644C195.881 29.3706 199.347 29.8182 203.412 31.8427C207.501 33.8784 212.018 37.4281 216.875 42.5108C226.586 52.674 237.219 68.502 248.098 88.9317C269.834 129.748 292.239 188.332 310.102 254.996C327.964 321.66 337.853 383.598 339.437 429.814C340.23 452.946 338.936 471.97 335.607 485.627C333.943 492.457 331.806 497.79 329.283 501.597C326.774 505.383 323.996 507.504 321.034 508.298C318.071 509.092 314.605 508.644 310.539 506.62C306.451 504.584 301.934 501.034 297.077 495.951C287.366 485.788 276.733 469.96 265.854 449.53C244.118 408.714 221.712 350.13 203.85 283.466C185.987 216.802 176.099 154.864 174.515 108.648C173.722 85.516 175.016 66.4921 178.344 52.8349C180.009 46.0049 182.146 40.6722 184.669 36.865C187.178 33.0788 189.955 30.9583 192.918 30.1644Z" stroke="white" stroke-opacity="0.3" stroke-width="6"/>
<path opacity="0.310345" d="M213.998 23.4912C217.019 22.9586 220.432 23.7065 224.306 26.0777C228.202 28.462 232.392 32.3919 236.787 37.8785C245.576 48.8494 254.789 65.5439 263.846 86.8441C281.941 129.399 299.156 189.713 311.14 257.68C323.125 325.647 327.577 388.212 325.128 434.39C323.902 457.503 320.954 476.342 316.448 489.657C314.194 496.316 311.601 501.442 308.756 505.015C305.926 508.568 302.975 510.438 299.954 510.971C296.933 511.504 293.52 510.756 289.646 508.385C285.75 506 281.56 502.07 277.165 496.584C268.376 485.613 259.163 468.918 250.106 447.618C232.01 405.063 214.796 344.749 202.812 276.782C190.827 208.815 186.375 146.25 188.824 100.072C190.05 76.959 192.998 58.1203 197.504 44.8053C199.757 38.1462 202.351 33.0201 205.196 29.4473C208.026 25.8942 210.977 24.0238 213.998 23.4912Z" stroke="white" stroke-opacity="0.3" stroke-width="6"/>
<path opacity="0.344828" d="M235.405 18.673C238.461 18.4057 241.796 19.4483 245.448 22.1481C249.121 24.8628 252.953 29.1429 256.854 34.9918C264.652 46.6869 272.375 64.1208 279.542 86.1294C293.859 130.1 305.752 191.685 311.767 260.438C317.782 329.19 316.764 391.905 310.3 437.694C307.064 460.612 302.486 479.122 296.836 491.994C294.011 498.431 290.98 503.312 287.835 506.623C284.706 509.916 281.603 511.522 278.547 511.789C275.492 512.057 272.156 511.014 268.504 508.314C264.831 505.6 260.999 501.319 257.099 495.471C249.3 483.776 241.577 466.342 234.41 444.333C220.093 400.363 208.2 338.778 202.185 270.025C196.17 201.272 197.188 138.557 203.653 92.7688C206.888 69.8502 211.467 51.34 217.116 38.4684C219.941 32.0311 222.972 27.1506 226.118 23.8393C229.246 20.5463 232.349 18.9403 235.405 18.673Z" stroke="white" stroke-opacity="0.3" stroke-width="6"/>
<path opacity="0.37931" d="M256.976 15.7305C260.043 15.7305 263.275 17.0598 266.678 20.0677C270.101 23.0922 273.545 27.69 276.921 33.8565C283.671 46.1868 289.845 64.2275 295.066 86.7769C305.497 131.828 311.976 194.215 311.976 263.23C311.976 332.246 305.497 394.633 295.066 439.684C289.845 462.233 283.671 480.274 276.921 492.604C273.545 498.771 270.101 503.369 266.678 506.393C263.275 509.401 260.043 510.73 256.976 510.73C253.909 510.73 250.677 509.401 247.274 506.393C243.852 503.369 240.407 498.771 237.031 492.604C230.282 480.274 224.108 462.233 218.887 439.684C208.456 394.633 201.976 332.246 201.976 263.23C201.976 194.215 208.456 131.828 218.887 86.7769C224.108 64.2275 230.282 46.1868 237.031 33.8565C240.407 27.69 243.852 23.0922 247.274 20.0677C250.677 17.0598 253.909 15.7305 256.976 15.7305Z" stroke="white" stroke-opacity="0.3" stroke-width="6"/>
<path opacity="0.413793" d="M278.547 14.6717C281.603 14.9391 284.706 16.545 287.835 19.838C290.98 23.1493 294.011 28.0299 296.836 34.4671C302.486 47.3388 307.064 65.8489 310.3 88.7676C316.764 134.556 317.782 197.271 311.767 266.024C305.752 334.776 293.859 396.361 279.542 440.332C272.375 462.34 264.652 479.774 256.854 491.469C252.953 497.318 249.121 501.598 245.448 504.313C241.796 507.013 238.461 508.055 235.405 507.788C232.349 507.521 229.246 505.915 226.118 502.622C222.972 499.311 219.941 494.43 217.116 487.993C211.467 475.121 206.888 456.611 203.653 433.692C197.188 387.904 196.17 325.189 202.185 256.436C208.2 187.684 220.093 126.098 234.41 82.1281C241.577 60.1196 249.3 42.6856 257.099 30.9905C260.999 25.1417 264.831 20.8615 268.504 18.1468C272.156 15.447 275.492 14.4044 278.547 14.6717Z" stroke="white" stroke-opacity="0.3" stroke-width="6"/>
<path opacity="0.448276" d="M299.954 15.4899C302.975 16.0225 305.927 17.8928 308.756 21.4459C311.601 25.0188 314.195 30.1449 316.448 36.8039C320.954 50.119 323.902 68.9577 325.128 92.0711C327.577 138.249 323.125 200.813 311.141 268.78C299.156 336.747 281.942 397.062 263.846 439.617C254.789 460.917 245.576 477.611 236.787 488.582C232.392 494.069 228.202 497.999 224.306 500.383C220.432 502.754 217.019 503.502 213.998 502.97C210.978 502.437 208.026 500.567 205.196 497.014C202.351 493.441 199.758 488.315 197.504 481.656C192.998 468.341 190.05 449.502 188.824 426.388C186.375 380.211 190.827 317.646 202.812 249.679C214.796 181.712 232.011 121.398 250.106 78.8428C259.163 57.5426 268.376 40.8481 277.165 29.8772C281.56 24.3905 285.751 20.4607 289.646 18.0764C293.52 15.7052 296.933 14.9572 299.954 15.4899Z" stroke="white" stroke-opacity="0.3" stroke-width="6"/>
<path opacity="0.482759" d="M321.034 18.164C323.997 18.9579 326.774 21.0784 329.283 24.8646C331.806 28.6718 333.943 34.0044 335.607 40.8345C338.936 54.4916 340.23 73.5156 339.437 96.6479C337.853 142.863 327.964 204.802 310.102 271.466C292.239 338.13 269.834 396.714 248.098 437.53C237.219 457.96 226.586 473.788 216.875 483.951C212.018 489.034 207.501 492.583 203.413 494.619C199.347 496.644 195.881 497.091 192.918 496.297C189.956 495.503 187.178 493.383 184.669 489.597C182.146 485.79 180.009 480.457 178.345 473.627C175.016 459.97 173.722 440.946 174.515 417.813C176.099 371.598 185.988 309.659 203.85 242.996C221.713 176.332 244.118 117.747 265.854 76.9313C276.733 56.5016 287.366 40.6736 297.077 30.5104C301.934 25.4277 306.451 21.878 310.539 19.8423C314.605 17.8178 318.071 17.3702 321.034 18.164Z" stroke="white" stroke-opacity="0.3" stroke-width="6"/>
<path opacity="0.517241" d="M341.626 22.6564C344.508 23.7054 347.091 26.0599 349.26 30.0504C351.441 34.063 353.105 39.5616 354.168 46.5108C356.294 60.406 355.925 79.4704 353.119 102.446C347.513 148.347 332.264 209.188 308.659 274.041C285.054 338.895 257.628 395.303 232.418 434.07C219.799 453.474 207.827 468.315 197.267 477.593C191.986 482.233 187.177 485.375 182.927 487.047C178.7 488.709 175.208 488.853 172.326 487.804C169.444 486.755 166.862 484.401 164.692 480.41C162.511 476.398 160.847 470.899 159.784 463.95C157.658 450.055 158.027 430.99 160.833 408.015C166.439 362.113 181.688 301.273 205.293 236.419C228.898 171.566 256.324 115.157 281.534 76.3908C294.153 56.987 306.125 42.1459 316.685 32.8678C321.966 28.2277 326.775 25.0852 331.025 23.4136C335.252 21.7512 338.744 21.6073 341.626 22.6564Z" stroke="white" stroke-opacity="0.3" stroke-width="6"/>
<path opacity="0.551724" d="M361.574 28.9196C364.354 30.2159 366.721 32.7865 368.534 36.9508C370.358 41.1382 371.536 46.761 371.99 53.7764C372.896 67.804 370.867 86.7637 366.069 109.407C356.484 154.645 335.99 213.926 306.823 276.475C277.656 339.024 245.417 392.828 216.924 429.249C202.663 447.48 189.443 461.221 178.114 469.543C172.449 473.705 167.384 476.417 163.004 477.712C158.649 478.999 155.158 478.838 152.378 477.542C149.598 476.246 147.231 473.675 145.418 469.511C143.594 465.323 142.416 459.701 141.962 452.685C141.056 438.658 143.085 419.698 147.883 397.055C157.468 351.816 177.962 292.536 207.129 229.987C236.296 167.438 268.535 113.634 297.028 77.2122C311.289 58.982 324.509 45.2408 335.837 36.9184C341.503 32.7562 346.568 30.0449 350.948 28.75C355.303 27.4623 358.794 27.6233 361.574 28.9196Z" stroke="white" stroke-opacity="0.3" stroke-width="6"/>
<path opacity="0.586207" d="M380.726 36.8893C383.382 38.4229 385.516 41.19 386.96 45.4966C388.411 49.827 389.096 55.5311 388.936 62.5593C388.616 76.6125 384.942 95.3232 378.189 117.462C364.697 161.693 339.115 218.961 304.607 278.731C270.1 338.5 233.295 389.289 201.736 423.089C185.94 440.006 171.572 452.543 159.562 459.847C153.555 463.499 148.273 465.759 143.797 466.667C139.346 467.57 135.882 467.105 133.226 465.572C130.57 464.038 128.436 461.271 126.992 456.965C125.541 452.634 124.857 446.93 125.016 439.902C125.336 425.849 129.01 407.138 135.763 384.999C149.255 340.768 174.837 283.5 209.345 223.731C243.852 163.961 280.657 113.172 312.216 79.3726C328.013 62.4547 342.38 49.918 354.39 42.6146C360.397 38.962 365.679 36.7024 370.155 35.7942C374.606 34.891 378.07 35.3557 380.726 36.8893Z" stroke="white" stroke-opacity="0.3" stroke-width="6"/>
<path opacity="0.62069" d="M398.936 46.4908C401.449 48.2501 403.333 51.1927 404.396 55.6087C405.465 60.0491 405.649 65.7911 404.877 72.7787C403.334 86.7506 398.044 105.07 389.387 126.536C372.091 169.422 341.615 224.244 302.029 280.778C262.444 337.312 221.352 384.7 186.967 415.621C169.757 431.097 154.352 442.334 141.75 448.563C135.448 451.678 129.989 453.469 125.451 453.983C120.938 454.495 117.528 453.73 115.016 451.971C112.503 450.212 110.618 447.269 109.556 442.853C108.487 438.413 108.303 432.671 109.075 425.683C110.618 411.711 115.908 393.392 124.565 371.926C141.861 329.04 172.337 274.218 211.923 217.684C251.508 161.15 292.6 113.762 326.984 82.8414C344.195 67.3647 359.6 56.1279 372.202 49.899C378.504 46.7839 383.963 44.9932 388.501 44.4786C393.014 43.9668 396.424 44.7315 398.936 46.4908Z" stroke="white" stroke-opacity="0.3" stroke-width="6"/>
<path opacity="0.655172" d="M416.066 57.6343C418.416 59.6059 420.037 62.7016 420.71 67.1934C421.388 71.71 421.071 77.4462 419.693 84.3399C416.938 98.1241 410.071 115.913 399.576 136.543C378.609 177.758 343.471 229.715 299.108 282.584C254.746 335.453 209.681 379.079 172.732 406.885C154.238 420.803 137.912 430.654 124.816 435.761C118.266 438.315 112.672 439.623 108.106 439.74C103.566 439.857 100.236 438.798 97.886 436.826C95.5364 434.855 93.9152 431.759 93.2415 427.267C92.564 422.751 92.8809 417.014 94.2587 410.121C97.0138 396.337 103.881 378.548 114.376 357.918C135.343 316.702 170.481 264.746 214.844 211.877C259.206 159.008 304.271 115.382 341.22 87.5756C359.714 73.6578 376.04 63.8064 389.136 58.6995C395.686 56.1455 401.28 54.8374 405.846 54.7203C410.386 54.6037 413.716 55.6627 416.066 57.6343Z" stroke="white" stroke-opacity="0.3" stroke-width="6"/>
<path opacity="0.689655" d="M431.985 70.2216C434.154 72.3905 435.499 75.6157 435.779 80.1491C436.06 84.7076 435.244 90.3944 433.271 97.1417C429.325 110.633 420.934 127.756 408.681 147.392C384.201 186.624 344.668 235.32 295.867 284.121C247.066 332.923 198.369 372.455 159.138 396.935C139.501 409.188 122.379 417.579 108.887 421.525C102.14 423.499 96.453 424.314 91.8945 424.033C87.3611 423.754 84.1359 422.408 81.967 420.24C79.7981 418.071 78.4529 414.845 78.1733 410.312C77.8921 405.754 78.7076 400.067 80.681 393.319C84.6271 379.828 93.0181 362.705 105.271 343.069C129.751 303.837 169.284 255.141 218.085 206.34C266.886 157.538 315.583 118.006 354.814 93.5257C374.451 81.2727 391.573 72.8817 405.065 68.9357C411.812 66.9622 417.499 66.1467 422.057 66.4279C426.591 66.7076 429.816 68.0527 431.985 70.2216Z" stroke="white" stroke-opacity="0.3" stroke-width="6"/>
<path opacity="0.724138" d="M446.572 84.1407C448.544 86.4903 449.603 89.8205 449.486 94.361C449.369 98.9267 448.061 104.521 445.507 111.07C440.4 124.167 430.549 140.493 416.631 158.987C388.825 195.935 345.198 241.001 292.329 285.363C239.461 329.725 187.504 364.863 146.288 385.831C125.658 396.326 107.87 403.193 94.0857 405.948C87.192 407.326 81.4558 407.643 76.9391 406.965C72.4474 406.291 69.3517 404.67 67.3801 402.321C65.4085 399.971 64.3495 396.641 64.466 392.1C64.5832 387.535 65.8913 381.94 68.4453 375.391C73.5521 362.294 83.4035 345.969 97.3214 327.475C125.127 290.526 168.754 245.46 221.623 201.098C274.492 156.736 326.448 121.598 367.664 100.63C388.294 90.1353 406.082 83.2685 419.867 80.5134C426.76 79.1355 432.496 78.8187 437.013 79.4962C441.505 80.1699 444.601 81.791 446.572 84.1407Z" stroke="white" stroke-opacity="0.3" stroke-width="6"/>
<path opacity="0.758621" d="M459.716 99.2701C461.475 101.783 462.24 105.192 461.728 109.706C461.214 114.244 459.423 119.702 456.308 126.005C450.079 138.606 438.842 154.011 423.366 171.222C392.445 205.606 345.057 246.698 288.523 286.284C231.989 325.869 177.167 356.345 134.281 373.641C112.815 382.298 94.4956 387.588 80.5237 389.132C73.5362 389.903 67.7942 389.719 63.3537 388.65C58.9378 387.588 55.9952 385.703 54.2359 383.19C52.4766 380.678 51.7119 377.268 52.2237 372.755C52.7383 368.217 54.5289 362.758 57.6441 356.456C63.8729 343.855 75.1097 328.449 90.5865 311.239C121.507 276.854 168.895 235.763 225.429 196.177C281.963 156.591 336.785 126.115 379.671 108.82C401.137 100.163 419.456 94.8723 433.428 93.3291C440.416 92.5573 446.158 92.7416 450.598 93.8102C455.014 94.8728 457.957 96.7576 459.716 99.2701Z" stroke="white" stroke-opacity="0.3" stroke-width="6"/>
<path opacity="0.793103" d="M471.317 115.48C472.851 118.137 473.316 121.6 472.412 126.052C471.504 130.528 469.245 135.809 465.592 141.816C458.289 153.827 445.752 168.194 428.834 183.99C395.034 215.549 344.245 252.354 284.476 286.862C224.707 321.37 167.438 346.952 123.207 360.444C101.069 367.197 82.3579 370.87 68.3047 371.19C61.2765 371.35 55.5724 370.666 51.242 369.214C46.9354 367.771 44.1683 365.637 42.6347 362.98C41.1011 360.324 40.6364 356.861 41.5396 352.409C42.4478 347.933 44.7074 342.651 48.36 336.645C55.6634 324.634 68.2001 310.267 85.118 294.471C118.918 262.912 169.707 226.107 229.476 191.599C289.245 157.091 346.514 131.509 390.744 118.017C412.883 111.264 431.594 107.591 445.647 107.271C452.675 107.111 458.38 107.795 462.71 109.247C467.017 110.69 469.784 112.824 471.317 115.48Z" stroke="white" stroke-opacity="0.3" stroke-width="6"/>
<path opacity="0.827586" d="M481.287 132.632C482.584 135.412 482.745 138.903 481.457 143.259C480.162 147.638 477.451 152.703 473.288 158.369C464.966 169.697 451.225 182.917 432.995 197.179C396.573 225.672 342.769 257.91 280.22 287.077C217.671 316.244 158.39 336.738 113.152 346.324C90.5089 351.122 71.5493 353.15 57.5217 352.244C50.5063 351.791 44.8835 350.612 40.6961 348.789C36.5317 346.975 33.9611 344.608 32.6649 341.828C31.3686 339.048 31.2076 335.558 32.4953 331.202C33.7902 326.822 36.5015 321.757 40.6637 316.092C48.9861 304.763 62.7273 291.544 80.9575 277.282C117.379 248.789 171.183 216.551 233.732 187.383C296.281 158.216 355.562 137.723 400.8 128.137C423.443 123.339 442.403 121.31 456.43 122.217C463.446 122.67 469.069 123.849 473.256 125.672C477.42 127.485 479.991 129.852 481.287 132.632Z" stroke="white" stroke-opacity="0.3" stroke-width="6"/>
<path opacity="0.862069" d="M489.55 150.58C490.599 153.463 490.455 156.954 488.792 161.181C487.121 165.431 483.978 170.241 479.338 175.522C470.06 186.082 455.219 198.054 435.815 210.672C397.049 235.882 340.64 263.309 275.787 286.914C210.934 310.518 150.093 325.767 104.191 331.374C81.2158 334.18 62.1515 334.548 48.2563 332.423C41.3071 331.36 35.8085 329.696 31.7959 327.514C27.8054 325.345 25.4509 322.763 24.4019 319.88C23.3528 316.998 23.4966 313.507 25.1591 309.28C26.8307 305.029 29.9732 300.22 34.6133 294.939C43.8914 284.379 58.7325 272.407 78.1363 259.789C116.903 234.578 173.311 207.152 238.165 183.547C303.018 159.943 363.859 144.694 409.76 139.087C432.736 136.281 451.8 135.913 465.695 138.038C472.644 139.101 478.143 140.765 482.156 142.947C486.146 145.116 488.501 147.698 489.55 150.58Z" stroke="white" stroke-opacity="0.3" stroke-width="6"/>
<path opacity="0.896552" d="M496.043 169.173C496.836 172.135 496.389 175.601 494.364 179.667C492.329 183.755 488.779 188.272 483.696 193.129C473.533 202.84 457.705 213.473 437.275 224.352C396.459 246.088 337.875 268.494 271.211 286.356C204.547 304.219 142.609 314.107 96.3932 315.691C73.2608 316.485 54.2369 315.19 40.5798 311.862C33.7497 310.197 28.417 308.06 24.6098 305.537C20.8236 303.028 18.7031 300.251 17.9093 297.288C17.1154 294.325 17.563 290.86 19.5875 286.794C21.6233 282.705 25.1729 278.188 30.2556 273.332C40.4188 263.62 56.2468 252.988 76.6766 242.108C117.493 220.373 176.077 197.967 242.741 180.104C309.405 162.242 371.343 152.354 417.559 150.769C440.691 149.976 459.715 151.27 473.372 154.599C480.202 156.263 485.535 158.401 489.342 160.923C493.128 163.432 495.249 166.21 496.043 169.173Z" stroke="white" stroke-opacity="0.3" stroke-width="6"/>
<path opacity="0.931035" d="M500.716 188.252C501.248 191.273 500.5 194.686 498.129 198.56C495.745 202.456 491.815 206.646 486.329 211.041C475.358 219.83 458.663 229.043 437.363 238.1C394.808 256.196 334.494 273.41 266.527 285.395C198.56 297.379 135.995 301.831 89.8173 299.382C66.7038 298.156 47.8651 295.208 34.55 290.702C27.891 288.449 22.7649 285.855 19.1921 283.01C15.6389 280.18 13.7686 277.229 13.236 274.208C12.7034 271.187 13.4513 267.774 15.8225 263.9C18.2068 260.004 22.1366 255.814 27.6233 251.419C38.5942 242.63 55.2887 233.417 76.5889 224.36C119.144 206.265 179.458 189.05 247.425 177.066C315.392 165.081 377.957 160.629 424.135 163.078C447.248 164.304 466.087 167.252 479.402 171.758C486.061 174.012 491.187 176.605 494.76 179.45C498.313 182.28 500.183 185.232 500.716 188.252Z" stroke="white" stroke-opacity="0.3" stroke-width="6"/>
<path opacity="0.965517" d="M503.534 207.66C503.801 210.715 502.759 214.051 500.059 217.703C497.344 221.376 493.064 225.208 487.215 229.108C475.52 236.907 458.086 244.63 436.078 251.796C392.107 266.114 330.522 278.006 261.769 284.021C193.017 290.037 130.302 289.019 84.5135 282.554C61.5948 279.318 43.0847 274.74 30.213 269.091C23.7758 266.265 18.8952 263.235 15.5839 260.089C12.2909 256.961 10.685 253.857 10.4176 250.802C10.1503 247.746 11.1929 244.411 13.8927 240.758C16.6074 237.086 20.8876 233.253 26.7364 229.353C38.4315 221.554 55.8655 213.832 77.874 206.665C121.844 192.347 183.429 180.455 252.182 174.44C320.935 168.425 383.65 169.442 429.438 175.907C452.357 179.143 470.867 183.721 483.739 189.371C490.176 192.196 495.056 195.227 498.368 198.372C501.661 201.501 503.267 204.604 503.534 207.66Z" stroke="white" stroke-opacity="0.3" stroke-width="6"/>
<path d="M504.476 227.23C504.476 230.298 503.147 233.529 500.139 236.933C497.114 240.355 492.517 243.8 486.35 247.175C474.02 253.925 455.979 260.099 433.43 265.32C388.379 275.751 325.992 282.23 256.976 282.23C187.961 282.23 125.573 275.751 80.5225 265.32C57.9731 260.099 39.9324 253.925 27.6021 247.175C21.4356 243.8 16.8378 240.355 13.8133 236.933C10.8054 233.529 9.47607 230.298 9.47607 227.23C9.47607 224.163 10.8054 220.931 13.8133 217.528C16.8378 214.106 21.4356 210.661 27.6021 207.286C39.9324 200.536 57.9731 194.362 80.5225 189.141C125.573 178.71 187.961 172.23 256.976 172.23C325.992 172.23 388.379 178.71 433.43 189.141C455.979 194.362 474.02 200.536 486.35 207.286C492.517 210.661 497.114 214.106 500.139 217.528C503.147 220.931 504.476 224.163 504.476 227.23Z" stroke="white" stroke-opacity="0.3" stroke-width="6"/>
</svg>
