<svg width="323" height="270" viewBox="0 0 323 270" fill="none" xmlns="http://www.w3.org/2000/svg">
<g filter="url(#filter0_i_300_25)">
<path d="M231.728 154.248C231.728 218.176 179.904 270 115.976 270C52.0485 270 0.224854 218.176 0.224854 154.248C0.224854 90.3207 52.0485 38.4971 115.976 38.4971C179.904 38.4971 231.728 90.3207 231.728 154.248Z" fill="#121212"/>
</g>
<path fill-rule="evenodd" clip-rule="evenodd" d="M224.657 154.248C224.657 214.271 175.999 262.929 115.976 262.929C104.388 262.929 93.223 261.115 82.7502 257.756C91.5933 252.091 95.0813 239.416 98.6625 226.403C101.173 217.28 103.73 207.99 108.209 200.833C110.924 196.495 114.772 192.745 118.555 189.057C125.081 182.697 131.417 176.521 131.429 167.831C131.44 159.725 125.501 154.01 119.382 148.123C115.13 144.033 110.792 139.859 108.302 134.741C102.296 122.397 104.527 106.38 106.625 91.3152C109.363 71.6576 111.875 53.621 95.5672 47.4812C102.178 46.2252 109 45.568 115.976 45.568C175.999 45.568 224.657 94.2259 224.657 154.248ZM231.728 154.248C231.728 218.176 179.904 270 115.976 270C52.0485 270 0.224854 218.176 0.224854 154.248C0.224854 90.3207 52.0485 38.4971 115.976 38.4971C179.904 38.4971 231.728 90.3207 231.728 154.248Z" fill="url(#paint0_linear_300_25)"/>
<g filter="url(#filter1_di_300_25)">
<path fill-rule="evenodd" clip-rule="evenodd" d="M270.097 69.9232C287.67 69.9232 301.916 55.6774 301.916 38.1042C301.916 20.5311 287.67 6.28523 270.097 6.28523C252.524 6.28523 238.278 20.5311 238.278 38.1042C238.278 55.6774 252.524 69.9232 270.097 69.9232ZM270.097 76.2085C291.142 76.2085 308.201 59.1486 308.201 38.1042C308.201 17.0598 291.142 0 270.097 0C249.053 0 231.993 17.0598 231.993 38.1042C231.993 59.1486 249.053 76.2085 270.097 76.2085Z" fill="url(#paint1_linear_300_25)" shape-rendering="crispEdges"/>
</g>
<g filter="url(#filter2_di_300_25)">
<path fill-rule="evenodd" clip-rule="evenodd" d="M202.924 54.2428C211.62 54.2428 218.669 47.1933 218.669 38.4973C218.669 29.8013 211.62 22.7518 202.924 22.7518C194.228 22.7518 187.178 29.8013 187.178 38.4973C187.178 47.1933 194.228 54.2428 202.924 54.2428ZM202.924 57.353C213.337 57.353 221.779 48.911 221.779 38.4973C221.779 28.0836 213.337 19.6416 202.924 19.6416C192.51 19.6416 184.068 28.0836 184.068 38.4973C184.068 48.911 192.51 57.353 202.924 57.353Z" fill="url(#paint2_linear_300_25)" shape-rendering="crispEdges"/>
</g>
<defs>
<filter id="filter0_i_300_25" x="0.224854" y="38.4971" width="238.482" height="231.503" filterUnits="userSpaceOnUse" color-interpolation-filters="sRGB">
<feFlood flood-opacity="0" result="BackgroundImageFix"/>
<feBlend mode="normal" in="SourceGraphic" in2="BackgroundImageFix" result="shape"/>
<feColorMatrix in="SourceAlpha" type="matrix" values="0 0 0 0 0 0 0 0 0 0 0 0 0 0 0 0 0 0 127 0" result="hardAlpha"/>
<feOffset dx="6.9787"/>
<feGaussianBlur stdDeviation="13.9574"/>
<feComposite in2="hardAlpha" operator="arithmetic" k2="-1" k3="1"/>
<feColorMatrix type="matrix" values="0 0 0 0 1 0 0 0 0 1 0 0 0 0 1 0 0 0 0.25 0"/>
<feBlend mode="normal" in2="shape" result="effect1_innerShadow_300_25"/>
</filter>
<filter id="filter1_di_300_25" x="218.036" y="0" width="104.123" height="104.123" filterUnits="userSpaceOnUse" color-interpolation-filters="sRGB">
<feFlood flood-opacity="0" result="BackgroundImageFix"/>
<feColorMatrix in="SourceAlpha" type="matrix" values="0 0 0 0 0 0 0 0 0 0 0 0 0 0 0 0 0 0 127 0" result="hardAlpha"/>
<feOffset dy="13.9574"/>
<feGaussianBlur stdDeviation="6.9787"/>
<feComposite in2="hardAlpha" operator="out"/>
<feColorMatrix type="matrix" values="0 0 0 0 0 0 0 0 0 0 0 0 0 0 0 0 0 0 0.25 0"/>
<feBlend mode="normal" in2="BackgroundImageFix" result="effect1_dropShadow_300_25"/>
<feBlend mode="normal" in="SourceGraphic" in2="effect1_dropShadow_300_25" result="shape"/>
<feColorMatrix in="SourceAlpha" type="matrix" values="0 0 0 0 0 0 0 0 0 0 0 0 0 0 0 0 0 0 127 0" result="hardAlpha"/>
<feOffset dx="6.9787"/>
<feGaussianBlur stdDeviation="13.9574"/>
<feComposite in2="hardAlpha" operator="arithmetic" k2="-1" k3="1"/>
<feColorMatrix type="matrix" values="0 0 0 0 1 0 0 0 0 1 0 0 0 0 1 0 0 0 0.25 0"/>
<feBlend mode="normal" in2="shape" result="effect2_innerShadow_300_25"/>
</filter>
<filter id="filter2_di_300_25" x="177.161" y="19.6416" width="51.5249" height="51.5249" filterUnits="userSpaceOnUse" color-interpolation-filters="sRGB">
<feFlood flood-opacity="0" result="BackgroundImageFix"/>
<feColorMatrix in="SourceAlpha" type="matrix" values="0 0 0 0 0 0 0 0 0 0 0 0 0 0 0 0 0 0 127 0" result="hardAlpha"/>
<feOffset dy="6.90675"/>
<feGaussianBlur stdDeviation="3.45338"/>
<feComposite in2="hardAlpha" operator="out"/>
<feColorMatrix type="matrix" values="0 0 0 0 0 0 0 0 0 0 0 0 0 0 0 0 0 0 0.25 0"/>
<feBlend mode="normal" in2="BackgroundImageFix" result="effect1_dropShadow_300_25"/>
<feBlend mode="normal" in="SourceGraphic" in2="effect1_dropShadow_300_25" result="shape"/>
<feColorMatrix in="SourceAlpha" type="matrix" values="0 0 0 0 0 0 0 0 0 0 0 0 0 0 0 0 0 0 127 0" result="hardAlpha"/>
<feOffset dx="3.45338"/>
<feGaussianBlur stdDeviation="6.90675"/>
<feComposite in2="hardAlpha" operator="arithmetic" k2="-1" k3="1"/>
<feColorMatrix type="matrix" values="0 0 0 0 1 0 0 0 0 1 0 0 0 0 1 0 0 0 0.25 0"/>
<feBlend mode="normal" in2="shape" result="effect2_innerShadow_300_25"/>
</filter>
<linearGradient id="paint0_linear_300_25" x1="183.165" y1="53.5989" x2="14.1259" y2="236.538" gradientUnits="userSpaceOnUse">
<stop offset="0.117708" stop-color="white"/>
<stop offset="0.632234" stop-color="white" stop-opacity="0.392708"/>
<stop offset="1" stop-color="white" stop-opacity="0"/>
</linearGradient>
<linearGradient id="paint1_linear_300_25" x1="300.451" y1="-2.58334" x2="250.722" y2="83.3126" gradientUnits="userSpaceOnUse">
<stop stop-color="white"/>
<stop offset="0.461458" stop-color="white" stop-opacity="0.392708"/>
<stop offset="1" stop-color="white" stop-opacity="0"/>
</linearGradient>
<linearGradient id="paint2_linear_300_25" x1="217.944" y1="18.3633" x2="193.336" y2="60.8685" gradientUnits="userSpaceOnUse">
<stop stop-color="white"/>
<stop offset="0.461458" stop-color="white" stop-opacity="0.392708"/>
<stop offset="1" stop-color="white" stop-opacity="0"/>
</linearGradient>
</defs>
</svg>
