<svg width="231" height="231" viewBox="0 0 231 231" fill="none" xmlns="http://www.w3.org/2000/svg">
<g filter="url(#filter0_i_300_3)">
<path d="M231 115.5C231 179.289 179.289 231 115.5 231C51.7111 231 0 179.289 0 115.5C0 51.7111 51.7111 0 115.5 0C179.289 0 231 51.7111 231 115.5Z" fill="#121212"/>
</g>
<path fill-rule="evenodd" clip-rule="evenodd" d="M223.944 115.5C223.944 175.392 175.392 223.944 115.5 223.944C55.6078 223.944 7.05553 175.392 7.05553 115.5C7.05553 55.6078 55.6078 7.05553 115.5 7.05553C125.409 7.05553 135.008 8.38459 144.128 10.8742C138.195 16.8542 130.966 28.1513 133.324 42.0646C135.122 52.6696 131.572 61.0994 127.61 70.5072L127.61 70.5073C123.715 79.7576 119.421 89.9535 119.421 104.092C119.421 132.611 159.704 140.81 169.329 128.69C172.666 124.487 174.289 119.212 175.803 114.293C178.654 105.026 181.118 97.0202 193.926 99.8146C207.996 102.884 214.321 99.0126 217.79 79.399C221.776 90.692 223.944 102.843 223.944 115.5ZM231 115.5C231 179.289 179.289 231 115.5 231C51.7111 231 0 179.289 0 115.5C0 51.7111 51.7111 0 115.5 0C179.289 0 231 51.7111 231 115.5Z" fill="url(#paint0_linear_300_3)"/>
<defs>
<filter id="filter0_i_300_3" x="0" y="0" width="237.964" height="231" filterUnits="userSpaceOnUse" color-interpolation-filters="sRGB">
<feFlood flood-opacity="0" result="BackgroundImageFix"/>
<feBlend mode="normal" in="SourceGraphic" in2="BackgroundImageFix" result="shape"/>
<feColorMatrix in="SourceAlpha" type="matrix" values="0 0 0 0 0 0 0 0 0 0 0 0 0 0 0 0 0 0 127 0" result="hardAlpha"/>
<feOffset dx="6.96354"/>
<feGaussianBlur stdDeviation="13.9271"/>
<feComposite in2="hardAlpha" operator="arithmetic" k2="-1" k3="1"/>
<feColorMatrix type="matrix" values="0 0 0 0 1 0 0 0 0 1 0 0 0 0 1 0 0 0 0.25 0"/>
<feBlend mode="normal" in2="shape" result="effect1_innerShadow_300_3"/>
</filter>
<linearGradient id="paint0_linear_300_3" x1="182.543" y1="15.069" x2="13.8708" y2="197.611" gradientUnits="userSpaceOnUse">
<stop offset="0.117708" stop-color="white"/>
<stop offset="0.632234" stop-color="white" stop-opacity="0.392708"/>
<stop offset="1" stop-color="white" stop-opacity="0"/>
</linearGradient>
</defs>
</svg>
