<svg width="232" height="232" viewBox="0 0 232 232" fill="none" xmlns="http://www.w3.org/2000/svg">
<g filter="url(#filter0_i_300_17)">
<path d="M231.9 116.248C231.9 180.176 180.077 232 116.149 232C52.2213 232 0.397644 180.176 0.397644 116.248C0.397644 52.3207 52.2213 0.49707 116.149 0.49707C180.077 0.49707 231.9 52.3207 231.9 116.248Z" fill="#121212"/>
</g>
<path fill-rule="evenodd" clip-rule="evenodd" d="M224.83 116.248C224.83 176.271 176.172 224.929 116.149 224.929C77.9704 224.929 44.3898 205.243 25.0044 175.467C26.1037 173.532 27.3559 171.126 28.6812 168.234C30.6089 164.028 30.5821 155.444 30.5539 146.423C30.519 135.223 30.4819 123.35 34.1808 118.345C40.8588 109.31 47.1441 90.0618 41.6445 76.7057C38.1019 68.1023 35.8498 53.8281 34.7649 44.2183C54.6759 21.7384 83.7576 7.56796 116.149 7.56796C176.172 7.56796 224.83 56.2259 224.83 116.248ZM231.9 116.248C231.9 180.176 180.077 232 116.149 232C52.2213 232 0.397644 180.176 0.397644 116.248C0.397644 52.3207 52.2213 0.49707 116.149 0.49707C180.077 0.49707 231.9 52.3207 231.9 116.248ZM162.314 143.287C156.501 145.517 150.521 147.812 145.092 147.595C142.068 147.473 139.573 145.769 137.05 144.045C134.998 142.643 132.928 141.229 130.539 140.641C130.209 140.56 129.878 140.478 129.547 140.396C122.899 138.752 116.13 137.079 109.532 138.847C108.787 139.047 108.016 139.247 107.227 139.451C98.872 141.619 88.5394 144.299 86.9927 152.312C85.9679 157.621 90.1224 161.541 94.425 165.6C97.7634 168.749 101.191 171.983 102.357 176.015C103.395 179.601 102.207 183.498 101.042 187.319C99.6502 191.883 98.2916 196.34 100.796 200.03C104.69 205.765 112.803 206.153 120.072 206.5L120.073 206.5L120.074 206.5C121.127 206.551 122.162 206.6 123.164 206.665C130.102 207.113 137.15 206.155 143.219 202.772C146.885 200.73 149.214 197.312 151.576 193.846C152.772 192.092 153.976 190.326 155.366 188.72C156.845 187.01 158.375 185.398 159.896 183.798C162.89 180.645 165.844 177.534 168.28 173.809C170.254 170.788 173.299 167.604 176.379 164.384C183.566 156.868 190.945 149.153 185.358 142.836C179.816 136.571 171.262 139.853 162.314 143.287ZM135.039 23.92C137.912 25.2295 140.437 27.0163 142.958 28.7996L142.958 28.7997C145.709 30.7461 148.454 32.6884 151.64 34.0017C155.059 35.4115 158.725 35.9797 162.361 36.5433C167.34 37.315 172.264 38.0781 176.421 40.9815C178.372 42.3443 180.534 43.7187 182.759 45.1326C192.98 51.6306 204.515 58.9637 202.954 69.8378C201.331 81.1363 187.31 84.9886 175.325 88.2814L175.325 88.2815C173.26 88.8488 171.255 89.3996 169.385 89.969C165.39 91.1851 161.115 89.8815 156.897 88.5959C152.091 87.1306 147.361 85.6886 143.211 88.0259C137.694 91.1325 134.642 97.2584 131.637 103.293C128.191 110.211 124.806 117.008 117.833 118.997C105.672 122.468 90.2904 115.737 83.3344 105.111C77.2716 95.8494 80.1577 83.7848 82.8354 72.5913L82.8356 72.5906C83.2567 70.8301 83.6727 69.0912 84.0479 67.3881C85.1999 62.1589 88.1009 57.7993 91.0247 53.4053L91.0248 53.4052C93.3172 49.96 95.6238 46.4937 97.1124 42.5706C98.533 38.8267 98.6261 34.2609 98.7173 29.7884C98.8653 22.5292 99.0084 15.5157 104.814 12.6607C111.752 9.24887 118.954 13.9685 126.095 18.6488C129.095 20.6146 132.084 22.5735 135.039 23.92Z" fill="url(#paint0_linear_300_17)"/>
<defs>
<filter id="filter0_i_300_17" x="0.397644" y="0.49707" width="238.482" height="231.503" filterUnits="userSpaceOnUse" color-interpolation-filters="sRGB">
<feFlood flood-opacity="0" result="BackgroundImageFix"/>
<feBlend mode="normal" in="SourceGraphic" in2="BackgroundImageFix" result="shape"/>
<feColorMatrix in="SourceAlpha" type="matrix" values="0 0 0 0 0 0 0 0 0 0 0 0 0 0 0 0 0 0 127 0" result="hardAlpha"/>
<feOffset dx="6.9787"/>
<feGaussianBlur stdDeviation="13.9574"/>
<feComposite in2="hardAlpha" operator="arithmetic" k2="-1" k3="1"/>
<feColorMatrix type="matrix" values="0 0 0 0 1 0 0 0 0 1 0 0 0 0 1 0 0 0 0.25 0"/>
<feBlend mode="normal" in2="shape" result="effect1_innerShadow_300_17"/>
</filter>
<linearGradient id="paint0_linear_300_17" x1="276.555" y1="-45.8565" x2="73.7707" y2="302.477" gradientUnits="userSpaceOnUse">
<stop offset="0.117708" stop-color="white"/>
<stop offset="0.632234" stop-color="white" stop-opacity="0.392708"/>
<stop offset="1" stop-color="white" stop-opacity="0"/>
</linearGradient>
</defs>
</svg>
