<svg width="188" height="244" viewBox="0 0 188 244" fill="none" xmlns="http://www.w3.org/2000/svg">
<mask id="mask0_301_49" style="mask-type:alpha" maskUnits="userSpaceOnUse" x="0" y="0" width="188" height="244">
<rect width="188" height="244" rx="4" fill="#D9D9D9"/>
</mask>
<g mask="url(#mask0_301_49)">
<path fill-rule="evenodd" clip-rule="evenodd" d="M111.4 4C111.4 1.79086 113.19 0 115.4 0H184.178C186.387 0 188.178 1.79087 188.178 4V63.7388C188.178 64.7969 187.758 65.8119 187.012 66.5616L94.5784 159.366C93.8278 160.119 92.808 160.543 91.7443 160.543H32.2764C30.0672 160.543 28.2764 158.752 28.2764 156.543L28.2764 87.4569C28.2764 85.2478 30.0672 83.4569 32.2764 83.4569L107.4 83.4569C109.609 83.4569 111.4 81.6661 111.4 79.4569V4ZM112.566 174.642C111.819 175.392 111.4 176.407 111.4 177.465V240C111.4 242.209 113.19 244 115.4 244H184.178C186.387 244 188.178 242.209 188.178 240V164.543C188.178 162.334 189.968 160.543 192.178 160.543H267.301C269.51 160.543 271.301 158.752 271.301 156.543V87.4569C271.301 85.2478 269.51 83.4569 267.301 83.4569H205.048C203.984 83.4569 202.964 83.8806 202.214 84.6342L112.566 174.642Z" fill="#B8EC49"/>
</g>
</svg>
