<svg width="195" height="78" viewBox="0 0 195 78" fill="none" xmlns="http://www.w3.org/2000/svg">
<path fill-rule="evenodd" clip-rule="evenodd" d="M22.4017 0.764659C19.9024 1.30234 18.4109 2.71179 17.7232 5.18553C17.3748 6.43901 17.3719 10.9816 17.7186 12.5476C18.3131 15.2331 18.9198 16.3079 22.3002 20.6635C26.3013 25.8191 26.3978 26.016 26.4904 29.2152C26.5644 31.7756 26.4314 32.5342 25.7976 33.1703C25.4704 33.4986 25.2553 33.5838 24.7573 33.582C23.9413 33.5793 23.4893 33.3384 23.1216 32.7101C22.8444 32.2367 22.82 31.9254 22.7765 28.305L22.7298 24.4093H19.897H17.0643L17.1246 29.106C17.1795 33.3617 17.2131 33.8876 17.4842 34.7076C18.065 36.465 18.9718 37.5836 20.3875 38.2892C21.65 38.9184 22.3932 39.0462 24.7098 39.0331C26.4944 39.0231 27.0499 38.9669 27.7932 38.7209C29.5819 38.129 30.8008 37.0697 31.6089 35.4046C32.3859 33.8041 32.5381 32.8234 32.5361 29.4336C32.5329 24.1857 32.1968 23.3584 27.6851 17.4916C26.5147 15.9698 25.2791 14.3427 24.9392 13.8758C23.575 12.0024 23.083 10.2616 23.2649 7.95258C23.4079 6.13754 23.7553 5.62244 24.8359 5.62244C25.5348 5.62244 26.0353 5.83739 26.2609 6.23439C26.396 6.47207 26.4722 7.54 26.5237 9.91865L26.5963 13.2682L29.3272 13.3078L32.0581 13.3476L32.0054 9.15727C31.9569 5.3099 31.9266 4.88844 31.6333 4.00546C31.0272 2.17993 29.475 0.981217 27.3219 0.675385C25.879 0.470332 23.575 0.512129 22.4017 0.764659ZM0.113159 19.6761V38.5358H2.94286H5.77257V30.2304V21.925L7.69532 21.9657L9.61806 22.0063L9.6555 30.271L9.69309 38.5358H12.5221H15.3512L15.3143 19.7125L15.2775 0.889322L12.484 0.849709L9.69062 0.810242V8.38628V15.9625H7.7316H5.77257V8.38949V0.816505H2.94286H0.113159V19.6761ZM34.505 19.6761V38.5358H41.035H47.5651V35.6959V32.856H43.8647H40.1644V27.3948V21.9335H42.9941H45.8238V19.0936V16.2537H42.9941H40.1644V11.3022V6.35061H43.7196H47.2749V3.58356V0.816505H40.8899H34.505V19.6761ZM57.5779 0.877089C57.5779 1.01311 53.0735 37.4855 52.9944 37.9897L52.9088 38.5358H55.5038H58.0989L58.4324 35.3682C58.6158 33.626 58.7995 32.0533 58.8406 31.873C58.914 31.5519 58.9569 31.5453 61.0038 31.5453C62.1525 31.5453 63.0922 31.5707 63.0922 31.6018C63.0922 31.6329 63.2555 33.154 63.455 34.9822C63.6545 36.8104 63.8178 38.3578 63.8178 38.421C63.8178 38.4841 65.0585 38.5358 66.5749 38.5358C69.1019 38.5358 69.3321 38.5145 69.3321 38.2815C69.3321 37.9714 64.5657 1.60584 64.4646 1.14418L64.3927 0.816505H60.9853C59.1112 0.816505 57.5779 0.843738 57.5779 0.877089ZM70.2996 0.913643C70.2463 0.966945 70.2028 9.45378 70.2028 19.7733V38.5358H73.105H76.0073V30.1477V21.7597L77.3828 21.8101C78.66 21.857 78.7871 21.8895 79.1605 22.2642L79.5626 22.6679L79.6446 30.0556C79.7075 35.7288 79.7721 37.5702 79.9229 37.9897L80.1192 38.5358H82.9971C84.58 38.5358 85.875 38.4785 85.875 38.4085C85.875 38.3384 85.7644 37.9943 85.6292 37.6439C85.4124 37.0821 85.3738 36.0414 85.3027 28.8511C85.2276 21.267 85.2031 20.6599 84.9518 20.1859C84.6073 19.5357 83.8861 18.7652 83.3668 18.4924L82.963 18.2801L83.7469 17.5611C84.2294 17.1185 84.6636 16.547 84.8763 16.0746C85.2202 15.3112 85.222 15.2793 85.222 9.99146C85.222 3.97021 85.186 3.72569 84.1206 2.5111C83.3483 1.63045 82.3246 1.15467 80.7998 0.967527C79.4569 0.802669 70.4561 0.756358 70.2996 0.913643ZM86.3103 3.58356V6.35061H88.7047H91.0991V22.4432V38.5358H93.8562H96.6133V22.4432V6.35061H99.0077H101.402V3.58356V0.816505H93.8562H86.3103V3.58356ZM109.747 0.998548C109.712 1.09874 108.648 9.56912 107.383 19.8218L105.082 38.463L107.616 38.5029C109.01 38.5247 110.169 38.5241 110.191 38.5016C110.23 38.463 110.98 31.9761 110.98 31.6818C110.98 31.6033 111.868 31.5453 113.074 31.5453C114.945 31.5453 115.176 31.5726 115.239 31.8002C115.278 31.9404 115.457 33.5131 115.639 35.2954L115.968 38.5358H118.78C121.388 38.5358 121.587 38.5173 121.523 38.2809C121.485 38.1408 120.356 29.654 119.015 19.4213L116.576 0.816505H113.193C110.616 0.816505 109.795 0.859904 109.747 0.998548ZM122.589 19.6761V38.5358H125.127H127.666L127.703 27.7953L127.74 17.0547L130.425 27.7953L133.109 38.5358H135.395H137.68V19.6761V0.816505H135.141H132.601V10.8896C132.601 16.4297 132.575 20.9353 132.543 20.9019C132.511 20.8685 131.429 16.4503 130.14 11.0837C128.851 5.7171 127.762 1.21146 127.722 1.07136C127.655 0.841263 127.403 0.816505 125.118 0.816505H122.589V19.6761ZM140.099 0.913643C140.046 0.966945 140.002 9.45742 140.002 19.7813V38.5521L145.408 38.5062C150.653 38.4617 150.838 38.4504 151.641 38.1261C153.272 37.4673 154.401 36.07 154.909 34.08C155.146 33.1534 155.166 32.0223 155.166 19.6761C155.166 8.92892 155.128 6.10754 154.97 5.41709C154.37 2.78912 152.83 1.34647 150.221 0.967964C149.11 0.806747 140.253 0.75927 140.099 0.913643ZM78.8656 6.28318C79.5881 6.75824 79.6567 7.22063 79.6077 11.2822C79.5666 14.6832 79.5373 15.0578 79.2787 15.4868C78.8813 16.1461 78.2594 16.3994 77.0375 16.3994H76.0073V11.1348V5.87045L77.2571 5.959C78.0322 6.0139 78.6434 6.13711 78.8656 6.28318ZM148.508 6.27575C149.389 6.85479 149.362 6.43405 149.362 19.5305C149.362 31.1812 149.355 31.4868 149.072 32.0551C148.681 32.8397 148.038 33.1467 146.786 33.147L145.807 33.1473V19.5097V5.87205L146.973 5.9523C147.699 6.00225 148.278 6.12429 148.508 6.27575ZM113.804 18.5839C114.165 21.908 114.498 24.9062 114.543 25.2467L114.625 25.8656H113.084H111.542L111.626 25.2467C111.672 24.9062 111.969 22.1374 112.287 19.0936C112.912 13.0973 113.024 12.172 113.098 12.3944C113.124 12.4745 113.442 15.2598 113.804 18.5839ZM61.7257 19.13L62.4545 25.7928L61.0131 25.8344C60.2203 25.8574 59.5416 25.8459 59.5047 25.8091C59.4149 25.7188 60.8193 12.4672 60.9189 12.4672C60.962 12.4672 61.325 15.4654 61.7257 19.13ZM37.3094 39.6148C35.2716 40.0067 33.8797 40.9348 33.0844 42.4322C32.3226 43.8669 32.1827 44.6875 32.1863 47.7049C32.19 50.9096 32.4458 52.3579 33.3385 54.2292C34.0686 55.7594 34.367 56.1944 37.096 59.7063C41.0255 64.7631 41.1806 65.0979 41.1793 68.5153C41.1784 70.8997 41.0594 71.5307 40.5055 72.0866C40.2037 72.3893 39.986 72.4681 39.4553 72.4664C38.5569 72.4635 38.1174 72.2168 37.7704 71.5208C37.5076 70.9933 37.476 70.5855 37.4299 67.1165L37.3791 63.2936H34.546H31.7131L31.786 67.9175C31.8492 71.9322 31.8961 72.6684 32.1415 73.5059C33.0345 76.553 35.2833 77.9951 39.1486 77.999C41.0886 78.0011 42.252 77.7844 43.4523 77.1973C45.168 76.3582 46.2976 74.8718 46.9351 72.6142C47.1614 71.8126 47.2008 71.1545 47.1916 68.318C47.182 65.3492 47.1449 64.8375 46.8653 63.8169C46.2487 61.5674 45.9676 61.1315 40.4865 53.9235C39.7459 52.9495 38.8969 51.6647 38.6 51.0685C38.0641 49.9924 38.0598 49.9692 38.0106 47.9148C37.9701 46.2238 38.0046 45.753 38.199 45.3417C38.5569 44.5848 39.4511 44.2972 40.3638 44.6454C41.0394 44.9032 41.1027 45.2255 41.1802 48.803L41.2527 52.1526L43.9835 52.1922L46.7142 52.232L46.6601 47.9688C46.6151 44.4313 46.5634 43.5768 46.3562 42.9476C45.8693 41.469 44.5739 40.2372 43.016 39.7713C41.9507 39.4528 38.6263 39.3615 37.3094 39.6148ZM62.6569 39.5503C59.8617 39.8447 58.0281 41.2683 57.1517 43.8246C56.5923 45.4563 56.542 46.936 56.5973 60.0897C56.6441 71.2422 56.6775 72.7767 56.8878 73.4689C57.4904 75.4519 58.5258 76.7891 60.0309 77.528C60.7266 77.8697 61.0145 77.9233 62.1551 77.9233C63.3439 77.9233 63.567 77.8774 64.408 77.4615C64.9214 77.2076 65.6282 76.7176 65.9787 76.3726C66.6302 75.7311 67.5907 74.3586 67.5907 74.0689C67.5907 73.9802 67.6446 73.9411 67.7103 73.9818C67.776 74.0226 68.0195 74.813 68.2513 75.7381L68.6728 77.4201H70.3084H71.9441V65.9878V54.5555H67.9535H63.9629V57.4682V60.3809H65.2802H66.5977L66.55 65.5145C66.498 71.1217 66.4889 71.1833 65.615 71.8732C65.072 72.3018 63.8619 72.2957 63.3119 71.8616C62.4877 71.211 62.5118 71.6105 62.5118 58.5681C62.5118 45.4868 62.4984 45.7091 63.3172 45.1707C63.7168 44.908 64.6644 44.8726 65.1656 45.1017C65.9317 45.4521 66.0518 45.9432 66.1154 48.985L66.174 51.7885H68.914H71.6539V48.8221C71.6539 44.1139 71.2337 42.4482 69.6879 41.0305C68.6895 40.1147 67.6437 39.7103 65.8494 39.5462C64.3199 39.4062 64.0215 39.4065 62.6569 39.5503ZM101.776 39.5533C100.069 39.8653 98.99 40.3938 98.0222 41.3912C96.7979 42.6532 96.3292 44.3596 96.3262 47.5651C96.323 51.0462 96.8322 53.2515 98.1388 55.4139C98.5068 56.0231 99.9817 58.0289 101.416 59.8712C104.627 63.9938 105.15 64.9457 105.351 67.0344C105.505 68.6262 105.423 70.5273 105.167 71.3035C104.909 72.0863 104.407 72.4686 103.636 72.4686C102.73 72.4686 102.21 72.1594 101.928 71.4517C101.732 70.9594 101.692 70.2289 101.692 67.0772V63.2936H98.8626H96.0329L96.0351 67.7719C96.0367 71.2119 96.087 72.4622 96.2522 73.1648C96.6369 74.8028 97.3627 75.9294 98.5724 76.7664C99.7701 77.595 100.783 77.8723 102.926 77.9571C105.075 78.042 106.467 77.8205 107.755 77.1883C109.251 76.4536 110.543 74.7435 111.055 72.8209C111.408 71.4938 111.558 68.9103 111.412 66.6714C111.155 62.7173 110.7 61.7599 106.483 56.3032C103.832 52.872 103.229 52.0051 102.684 50.8352C102.274 49.9577 102.212 49.655 102.156 48.277C102.069 46.1628 102.191 45.4402 102.727 44.9022C103.116 44.5114 103.225 44.4777 103.888 44.5414C105.302 44.6779 105.45 45.131 105.459 49.3523L105.465 52.2318L108.186 52.1922L110.907 52.1526L110.896 48.2205C110.887 45.0069 110.84 44.1153 110.638 43.3417C110.172 41.5607 108.968 40.3128 107.207 39.7863C106.264 39.5045 102.845 39.3579 101.776 39.5533ZM118.235 39.5759C116.372 39.8848 114.726 41.0802 113.899 42.7255C112.995 44.5228 112.995 44.5078 113.046 59.143C113.09 72.0365 113.099 72.422 113.389 73.3603C113.787 74.6471 114.285 75.4664 115.18 76.3066C116.598 77.6376 118.25 78.0924 121.196 77.9633C124.274 77.8286 125.956 76.8973 127.055 74.7196C127.806 73.2331 127.856 72.768 127.919 66.7524L127.979 61.1091H125.218H122.458L122.414 66.0971C122.372 71.0067 122.366 71.0935 122.038 71.6218C121.503 72.4866 120.23 72.7009 119.485 72.0519C118.808 71.4621 118.816 71.6192 118.816 58.5605C118.816 45.3969 118.811 45.4814 119.519 45.101C119.935 44.8779 121.079 44.9061 121.552 45.1512C122.314 45.5468 122.366 45.8431 122.415 50.0773L122.461 53.973H125.209H127.958L127.953 49.786C127.949 46.9328 127.885 45.2479 127.752 44.4967C127.244 41.64 125.599 40.0322 122.703 39.5603C121.616 39.3834 119.349 39.3912 118.235 39.5759ZM152.608 39.6196C149.823 40.2046 148.138 41.9505 147.431 44.9816C147.21 45.9296 147.185 47.3062 147.185 58.6333C147.185 70.0588 147.209 71.331 147.436 72.3092C148.343 76.2086 150.729 77.9976 155.021 77.9976C159.193 77.9976 161.398 76.4643 162.452 72.8326C162.682 72.0365 162.709 70.8281 162.75 59.2336C162.799 45.5468 162.783 45.1837 162.043 43.299C161.387 41.6309 160.04 40.389 158.274 39.8248C157.058 39.4364 154.006 39.3258 152.608 39.6196ZM170.258 39.5659C167.208 40.0795 165.405 41.9148 164.748 45.1751C164.543 46.1912 164.521 47.8396 164.563 59.143C164.608 70.9745 164.632 72.026 164.873 72.8326C165.306 74.2838 165.846 75.2678 166.657 76.0819C167.995 77.4257 169.715 78.005 172.353 78.0002C176.714 77.9922 179.021 76.2473 179.861 72.3229C180.106 71.1791 180.126 70.1383 180.126 58.6333C180.126 47.2383 180.104 46.0827 179.868 45.0165C178.996 41.073 176.647 39.3637 172.189 39.4266C171.526 39.4359 170.657 39.4986 170.258 39.5659ZM0.113159 58.6171V77.5658L4.28516 77.5631C6.57983 77.5617 9.01222 77.5017 9.69062 77.4297C12.0304 77.1814 13.421 76.3506 14.3155 74.6663C15.2598 72.8883 15.248 73.0623 15.3124 59.8712C15.385 45.0137 15.3064 43.8091 14.1515 42.0866C13.5225 41.1486 12.6408 40.5039 11.4622 40.1198C10.5558 39.8246 10.1315 39.7981 5.30095 39.7357L0.113159 39.6685V58.6171ZM17.4485 39.8829C17.4106 39.9831 17.3963 48.4862 17.4169 58.7789L17.4542 77.4929L24.0205 77.5308L30.5869 77.5687V74.6545V71.7404H26.8122H23.0375L23.0756 66.3155L23.1136 60.8906L25.9796 60.8512L28.8455 60.8117V57.9749V55.1381H25.9433H23.041V50.1865V45.235H26.6688H30.2967V42.4679V39.7009H23.9072C18.9291 39.7009 17.5023 39.7411 17.4485 39.8829ZM73.8975 39.8829C73.8596 39.9831 73.8453 48.4862 73.8659 58.7789L73.9032 77.4929H76.4426H78.9821L79.0547 66.8209L79.1272 56.1489L81.794 66.8609L84.4607 77.5729L86.7278 77.533L88.9949 77.4929L89.0318 58.5935L89.0685 39.6942L86.4923 39.7339L83.916 39.7737L83.8434 49.6944L83.7708 59.6152L81.4604 49.9857C80.1895 44.6896 79.0973 40.2088 79.0332 40.0285C78.9185 39.7061 78.8772 39.7009 76.4416 39.7009C74.5952 39.7009 73.949 39.747 73.8975 39.8829ZM129.844 58.6333V77.572L132.638 77.5325L135.431 77.4929L135.469 69.2282L135.506 60.9635H137.39H139.274L139.312 69.2282L139.349 77.4929L142.143 77.5325L144.936 77.572V58.6333V39.6946L142.143 39.7341L139.349 39.7737L139.312 47.3102L139.274 54.8468H137.39H135.506L135.469 47.3102L135.431 39.7737L132.638 39.7341L129.844 39.6946V58.6333ZM182.297 39.8829C182.259 39.9831 182.245 48.4862 182.265 58.7789L182.303 77.4929L188.651 77.531L195 77.5688V74.6547V71.7404H191.517H188.035V55.7206V39.7009H185.2C183.066 39.7009 182.349 39.7459 182.297 39.8829ZM48.8712 58.6333V77.4201H51.7009H54.5306V58.6333V39.8465H51.7009H48.8712V58.6333ZM8.55163 45.1011C8.7127 45.1876 8.96825 45.5318 9.11931 45.8657C9.38168 46.4456 9.39401 47.0088 9.39401 58.4149C9.39401 69.9354 9.384 70.3789 9.11162 70.9813C8.75464 71.7707 8.17854 72.0317 6.793 72.0317H5.77257V58.4877V44.9437H7.01561C7.69923 44.9437 8.39041 45.0145 8.55163 45.1011ZM156.342 45.4281C156.526 45.6426 156.745 46.0636 156.828 46.3639C157.042 47.1396 157.037 70.0765 156.822 70.9337C156.598 71.8262 155.998 72.3641 155.208 72.3803C154.237 72.4003 153.703 72.1011 153.322 71.3245L152.99 70.6481V58.7061C152.99 45.6767 152.968 46.0224 153.827 45.2971C154.233 44.9546 154.375 44.9197 155.145 44.9756C155.858 45.0274 156.066 45.1061 156.342 45.4281ZM173.449 45.2594C174.273 45.9106 174.249 45.4994 174.246 58.6651C174.243 70.3669 174.233 70.8158 173.96 71.4183C173.309 72.8583 171.293 72.7604 170.612 71.2557C170.349 70.6752 170.337 70.1137 170.337 58.6333C170.337 47.2082 170.351 46.5891 170.609 46.0189C170.975 45.2095 171.394 44.9437 172.303 44.9437C172.848 44.9437 173.156 45.0284 173.449 45.2594Z" fill="white"/>
</svg>
