<svg width="295" height="295" viewBox="0 0 295 295" fill="none" xmlns="http://www.w3.org/2000/svg">
<g filter="url(#filter0_i_300_31)">
<path d="M294.662 147.331C294.662 228.7 228.7 294.662 147.331 294.662C65.9624 294.662 0 228.7 0 147.331C0 65.9624 65.9624 0 147.331 0C228.7 0 294.662 65.9624 294.662 147.331Z" fill="#121212"/>
</g>
<path fill-rule="evenodd" clip-rule="evenodd" d="M161.831 284.912C231.414 277.664 285.662 218.833 285.662 147.331C285.662 70.933 223.729 9 147.331 9C138.47 9 129.803 9.83327 121.404 11.4257C137.131 13.9279 153.775 19.8621 156.619 31.0884C159.316 41.7291 149.443 45.7323 138.64 50.1124C130.707 53.329 122.272 56.7488 117.946 63.1497C116.152 65.8033 115.339 69.0922 114.542 72.3152C113.394 76.9544 112.28 81.4572 108.326 83.7327C104.087 86.1721 99.2944 84.8218 94.3583 83.4311L94.3582 83.4311C91.4962 82.6248 88.5859 81.8048 85.7076 81.7023C80.9584 81.5331 75.7113 82.9011 70.5583 84.2446C61.0144 86.7329 51.7931 89.1371 46.6549 81.5352C48.6666 73.2013 49.0088 67.9332 49.2905 63.5964C49.6396 58.222 49.8959 54.2776 53.1213 47.7007C53.6345 46.6542 54.1731 45.6055 54.7361 44.5597C26.6532 69.8781 9 106.543 9 147.331C9 169.068 14.0136 189.634 22.9475 207.936C22.0555 192.058 30.6599 176.318 38.9762 162.467C46.8657 149.327 58.3611 138.151 72.438 132.204C78.7563 129.535 85.6319 130.643 92.5409 131.756C98.9567 132.789 105.401 133.827 111.455 131.85C117.505 129.875 122.267 124.828 126.939 119.877C132.851 113.611 138.617 107.5 146.663 107.965C160.178 108.746 168.988 123.561 175.974 135.308L176.142 135.591C179.336 140.962 179.804 147.216 180.273 153.49C180.714 159.391 181.157 165.308 183.87 170.523C187.187 176.897 192.948 181.907 198.62 186.838C206.432 193.63 214.074 200.275 214.928 210.135C216.012 222.644 206.961 232.833 198.198 242.698C195.644 245.573 193.115 248.42 190.868 251.288C188.455 254.37 186.133 257.653 183.799 260.954C177.316 270.123 170.738 279.427 161.831 284.912ZM147.331 294.662C228.7 294.662 294.662 228.7 294.662 147.331C294.662 65.9624 228.7 0 147.331 0C65.9624 0 0 65.9624 0 147.331C0 228.7 65.9624 294.662 147.331 294.662Z" fill="url(#paint0_linear_300_31)"/>
<defs>
<filter id="filter0_i_300_31" x="0" y="0" width="303.545" height="294.663" filterUnits="userSpaceOnUse" color-interpolation-filters="sRGB">
<feFlood flood-opacity="0" result="BackgroundImageFix"/>
<feBlend mode="normal" in="SourceGraphic" in2="BackgroundImageFix" result="shape"/>
<feColorMatrix in="SourceAlpha" type="matrix" values="0 0 0 0 0 0 0 0 0 0 0 0 0 0 0 0 0 0 127 0" result="hardAlpha"/>
<feOffset dx="8.88266"/>
<feGaussianBlur stdDeviation="17.7653"/>
<feComposite in2="hardAlpha" operator="arithmetic" k2="-1" k3="1"/>
<feColorMatrix type="matrix" values="0 0 0 0 1 0 0 0 0 1 0 0 0 0 1 0 0 0 0.25 0"/>
<feBlend mode="normal" in2="shape" result="effect1_innerShadow_300_31"/>
</filter>
<linearGradient id="paint0_linear_300_31" x1="232.851" y1="19.2219" x2="17.6935" y2="252.071" gradientUnits="userSpaceOnUse">
<stop offset="0.117708" stop-color="white"/>
<stop offset="0.632234" stop-color="white" stop-opacity="0.392708"/>
<stop offset="1" stop-color="white" stop-opacity="0"/>
</linearGradient>
</defs>
</svg>
