<svg width="295" height="295" viewBox="0 0 295 295" fill="none" xmlns="http://www.w3.org/2000/svg">
<g filter="url(#filter0_i_300_17)">
<path d="M294.662 147.331C294.662 228.7 228.7 294.662 147.331 294.662C65.9624 294.662 0 228.7 0 147.331C0 65.9624 65.9624 0 147.331 0C228.7 0 294.662 65.9624 294.662 147.331Z" fill="#121212"/>
</g>
<path fill-rule="evenodd" clip-rule="evenodd" d="M285.662 147.331C285.662 223.729 223.729 285.662 147.331 285.662C98.7365 285.662 55.9943 260.605 31.32 222.706C32.7193 220.244 34.3131 217.18 36 213.5C38.4536 208.147 38.4195 197.221 38.3837 185.739C38.3392 171.483 38.292 156.37 43 150C51.5 138.5 59.5 114 52.5 97C47.991 86.0495 45.1244 67.881 43.7435 55.6494C69.0867 27.0365 106.103 9 147.331 9C223.729 9 285.662 70.933 285.662 147.331ZM294.662 147.331C294.662 228.7 228.7 294.662 147.331 294.662C65.9624 294.662 0 228.7 0 147.331C0 65.9624 65.9624 0 147.331 0C228.7 0 294.662 65.9624 294.662 147.331ZM206.091 181.746C198.692 184.586 191.081 187.506 184.171 187.229C180.322 187.075 177.146 184.906 173.934 182.711C171.323 180.927 168.688 179.127 165.647 178.379C165.229 178.276 164.81 178.173 164.391 178.069L164.385 178.067C155.922 175.975 147.307 173.845 138.909 176.095C137.961 176.349 136.98 176.604 135.976 176.864C125.341 179.623 112.189 183.035 110.22 193.234C108.916 199.991 114.204 204.98 119.68 210.147C123.93 214.156 128.292 218.272 129.777 223.404C131.097 227.968 129.585 232.928 128.102 237.792C126.331 243.601 124.602 249.274 127.79 253.97C132.746 261.27 143.073 261.764 152.325 262.206L152.328 262.206C153.668 262.27 154.985 262.333 156.261 262.415C165.091 262.986 174.061 261.766 181.786 257.461C186.452 254.861 189.418 250.511 192.424 246.1C193.946 243.867 195.478 241.619 197.247 239.574C199.129 237.399 201.078 235.347 203.013 233.31L203.013 233.31L203.013 233.309C206.825 229.296 210.585 225.338 213.684 220.596C216.198 216.75 220.073 212.698 223.993 208.6L223.993 208.6C233.142 199.033 242.534 189.213 235.422 181.173C228.368 173.198 217.481 177.376 206.091 181.746ZM171.374 29.8132C175.031 31.48 178.246 33.7542 181.454 36.0241C184.956 38.5015 188.45 40.9738 192.505 42.6454C196.857 44.4398 201.523 45.1631 206.151 45.8804C212.489 46.8627 218.755 47.8339 224.047 51.5295C226.53 53.264 229.282 55.0133 232.113 56.813L232.113 56.8132C245.124 65.0839 259.806 74.4177 257.818 88.2585C255.753 102.639 237.906 107.543 222.652 111.734C220.023 112.456 217.472 113.157 215.091 113.882C210.007 115.43 204.564 113.771 199.197 112.134C193.08 110.269 187.059 108.434 181.776 111.409C174.754 115.363 170.87 123.16 167.045 130.841C162.659 139.646 158.35 148.298 149.475 150.83C133.995 155.247 114.418 146.68 105.564 133.155C97.847 121.367 101.521 106.011 104.929 91.7632L104.929 91.7629C105.465 89.5219 105.995 87.3084 106.472 85.1404C107.938 78.4846 111.631 72.9355 115.352 67.3428C118.27 62.9576 121.206 58.5456 123.101 53.5521C124.909 48.7869 125.028 42.9754 125.144 37.2826C125.332 28.043 125.514 19.1159 132.904 15.4821C141.734 11.1394 150.901 17.1467 159.991 23.1039C163.809 25.6061 167.614 28.0994 171.374 29.8132Z" fill="url(#paint0_linear_300_17)"/>
<defs>
<filter id="filter0_i_300_17" x="0" y="0" width="303.545" height="294.663" filterUnits="userSpaceOnUse" color-interpolation-filters="sRGB">
<feFlood flood-opacity="0" result="BackgroundImageFix"/>
<feBlend mode="normal" in="SourceGraphic" in2="BackgroundImageFix" result="shape"/>
<feColorMatrix in="SourceAlpha" type="matrix" values="0 0 0 0 0 0 0 0 0 0 0 0 0 0 0 0 0 0 127 0" result="hardAlpha"/>
<feOffset dx="8.88266"/>
<feGaussianBlur stdDeviation="17.7653"/>
<feComposite in2="hardAlpha" operator="arithmetic" k2="-1" k3="1"/>
<feColorMatrix type="matrix" values="0 0 0 0 1 0 0 0 0 1 0 0 0 0 1 0 0 0 0.25 0"/>
<feBlend mode="normal" in2="shape" result="effect1_innerShadow_300_17"/>
</filter>
<linearGradient id="paint0_linear_300_17" x1="351.5" y1="-59" x2="93.391" y2="384.368" gradientUnits="userSpaceOnUse">
<stop offset="0.117708" stop-color="white"/>
<stop offset="0.632234" stop-color="white" stop-opacity="0.392708"/>
<stop offset="1" stop-color="white" stop-opacity="0"/>
</linearGradient>
</defs>
</svg>
