<svg width="410" height="344" viewBox="0 0 410 344" fill="none" xmlns="http://www.w3.org/2000/svg">
<g filter="url(#filter0_i_300_25)">
<path d="M294.662 196.331C294.662 277.7 228.7 343.662 147.331 343.662C65.9624 343.662 0 277.7 0 196.331C0 114.962 65.9624 49 147.331 49C228.7 49 294.662 114.962 294.662 196.331Z" fill="#121212"/>
</g>
<path fill-rule="evenodd" clip-rule="evenodd" d="M285.662 196.331C285.662 272.729 223.729 334.662 147.331 334.662C132.581 334.662 118.371 332.354 105.041 328.078C116.296 320.867 120.736 304.735 125.294 288.172C128.49 276.56 131.744 264.736 137.446 255.625C140.901 250.103 145.798 245.33 150.614 240.636C158.92 232.541 166.984 224.681 167 213.619C167.014 203.302 159.455 196.028 151.666 188.535C146.255 183.329 140.733 178.016 137.563 171.502C129.919 155.791 132.758 135.404 135.429 116.228C138.914 91.2076 142.112 68.2501 121.354 60.4353C129.768 58.8366 138.452 58 147.331 58C223.729 58 285.662 119.933 285.662 196.331ZM294.662 196.331C294.662 277.7 228.7 343.662 147.331 343.662C65.9624 343.662 0 277.7 0 196.331C0 114.962 65.9624 49 147.331 49C228.7 49 294.662 114.962 294.662 196.331Z" fill="url(#paint0_linear_300_25)"/>
<g filter="url(#filter1_di_300_25)">
<path fill-rule="evenodd" clip-rule="evenodd" d="M343.5 89C365.868 89 384 70.8675 384 48.5C384 26.1325 365.868 8 343.5 8C321.132 8 303 26.1325 303 48.5C303 70.8675 321.132 89 343.5 89ZM343.5 97C370.286 97 392 75.2858 392 48.5C392 21.7142 370.286 0 343.5 0C316.714 0 295 21.7142 295 48.5C295 75.2858 316.714 97 343.5 97Z" fill="url(#paint1_linear_300_25)" shape-rendering="crispEdges"/>
</g>
<g filter="url(#filter2_di_300_25)">
<path fill-rule="evenodd" clip-rule="evenodd" d="M258 69.0412C269.068 69.0412 278.041 60.0685 278.041 49C278.041 37.9315 269.068 28.9588 258 28.9588C246.932 28.9588 237.959 37.9315 237.959 49C237.959 60.0685 246.932 69.0412 258 69.0412ZM258 73C271.255 73 282 62.2548 282 49C282 35.7452 271.255 25 258 25C244.745 25 234 35.7452 234 49C234 62.2548 244.745 73 258 73Z" fill="url(#paint2_linear_300_25)" shape-rendering="crispEdges"/>
</g>
<defs>
<filter id="filter0_i_300_25" x="0" y="49" width="303.545" height="294.663" filterUnits="userSpaceOnUse" color-interpolation-filters="sRGB">
<feFlood flood-opacity="0" result="BackgroundImageFix"/>
<feBlend mode="normal" in="SourceGraphic" in2="BackgroundImageFix" result="shape"/>
<feColorMatrix in="SourceAlpha" type="matrix" values="0 0 0 0 0 0 0 0 0 0 0 0 0 0 0 0 0 0 127 0" result="hardAlpha"/>
<feOffset dx="8.88266"/>
<feGaussianBlur stdDeviation="17.7653"/>
<feComposite in2="hardAlpha" operator="arithmetic" k2="-1" k3="1"/>
<feColorMatrix type="matrix" values="0 0 0 0 1 0 0 0 0 1 0 0 0 0 1 0 0 0 0.25 0"/>
<feBlend mode="normal" in2="shape" result="effect1_innerShadow_300_25"/>
</filter>
<filter id="filter1_di_300_25" x="277.235" y="0" width="132.531" height="132.531" filterUnits="userSpaceOnUse" color-interpolation-filters="sRGB">
<feFlood flood-opacity="0" result="BackgroundImageFix"/>
<feColorMatrix in="SourceAlpha" type="matrix" values="0 0 0 0 0 0 0 0 0 0 0 0 0 0 0 0 0 0 127 0" result="hardAlpha"/>
<feOffset dy="17.7653"/>
<feGaussianBlur stdDeviation="8.88266"/>
<feComposite in2="hardAlpha" operator="out"/>
<feColorMatrix type="matrix" values="0 0 0 0 0 0 0 0 0 0 0 0 0 0 0 0 0 0 0.25 0"/>
<feBlend mode="normal" in2="BackgroundImageFix" result="effect1_dropShadow_300_25"/>
<feBlend mode="normal" in="SourceGraphic" in2="effect1_dropShadow_300_25" result="shape"/>
<feColorMatrix in="SourceAlpha" type="matrix" values="0 0 0 0 0 0 0 0 0 0 0 0 0 0 0 0 0 0 127 0" result="hardAlpha"/>
<feOffset dx="8.88266"/>
<feGaussianBlur stdDeviation="17.7653"/>
<feComposite in2="hardAlpha" operator="arithmetic" k2="-1" k3="1"/>
<feColorMatrix type="matrix" values="0 0 0 0 1 0 0 0 0 1 0 0 0 0 1 0 0 0 0.25 0"/>
<feBlend mode="normal" in2="shape" result="effect2_innerShadow_300_25"/>
</filter>
<filter id="filter2_di_300_25" x="225.209" y="25" width="65.5822" height="65.5822" filterUnits="userSpaceOnUse" color-interpolation-filters="sRGB">
<feFlood flood-opacity="0" result="BackgroundImageFix"/>
<feColorMatrix in="SourceAlpha" type="matrix" values="0 0 0 0 0 0 0 0 0 0 0 0 0 0 0 0 0 0 127 0" result="hardAlpha"/>
<feOffset dy="8.79109"/>
<feGaussianBlur stdDeviation="4.39554"/>
<feComposite in2="hardAlpha" operator="out"/>
<feColorMatrix type="matrix" values="0 0 0 0 0 0 0 0 0 0 0 0 0 0 0 0 0 0 0.25 0"/>
<feBlend mode="normal" in2="BackgroundImageFix" result="effect1_dropShadow_300_25"/>
<feBlend mode="normal" in="SourceGraphic" in2="effect1_dropShadow_300_25" result="shape"/>
<feColorMatrix in="SourceAlpha" type="matrix" values="0 0 0 0 0 0 0 0 0 0 0 0 0 0 0 0 0 0 127 0" result="hardAlpha"/>
<feOffset dx="4.39554"/>
<feGaussianBlur stdDeviation="8.79109"/>
<feComposite in2="hardAlpha" operator="arithmetic" k2="-1" k3="1"/>
<feColorMatrix type="matrix" values="0 0 0 0 1 0 0 0 0 1 0 0 0 0 1 0 0 0 0.25 0"/>
<feBlend mode="normal" in2="shape" result="effect2_innerShadow_300_25"/>
</filter>
<linearGradient id="paint0_linear_300_25" x1="232.851" y1="68.2219" x2="17.6935" y2="301.071" gradientUnits="userSpaceOnUse">
<stop offset="0.117708" stop-color="white"/>
<stop offset="0.632234" stop-color="white" stop-opacity="0.392708"/>
<stop offset="1" stop-color="white" stop-opacity="0"/>
</linearGradient>
<linearGradient id="paint1_linear_300_25" x1="382.136" y1="-3.28813" x2="318.839" y2="106.042" gradientUnits="userSpaceOnUse">
<stop stop-color="white"/>
<stop offset="0.461458" stop-color="white" stop-opacity="0.392708"/>
<stop offset="1" stop-color="white" stop-opacity="0"/>
</linearGradient>
<linearGradient id="paint2_linear_300_25" x1="277.119" y1="23.3729" x2="245.797" y2="77.4746" gradientUnits="userSpaceOnUse">
<stop stop-color="white"/>
<stop offset="0.461458" stop-color="white" stop-opacity="0.392708"/>
<stop offset="1" stop-color="white" stop-opacity="0"/>
</linearGradient>
</defs>
</svg>
