<svg width="392" height="344" viewBox="0 0 392 344" fill="none" xmlns="http://www.w3.org/2000/svg">
<g filter="url(#filter0_i_300_8)">
<path d="M294.662 196.331C294.662 277.7 228.7 343.662 147.331 343.662C65.9624 343.662 0 277.7 0 196.331C0 114.962 65.9624 49 147.331 49C228.7 49 294.662 114.962 294.662 196.331Z" fill="#121212"/>
</g>
<path fill-rule="evenodd" clip-rule="evenodd" d="M198.5 80.5C200.578 75.7107 205.7 73.7744 212.285 74.1668C192.918 63.848 170.807 58 147.331 58C101.4 58 60.6964 80.3862 35.5373 114.843C40.2781 116.081 45.0507 117.259 49.8088 118.434L49.8096 118.434L49.8104 118.434C70.1261 123.451 90.1758 128.402 106.346 137.592C133.655 153.114 136.889 190.158 125.577 219.463C120.595 232.37 114.048 241.573 105.47 239.702C89.1328 236.137 85.9902 246.35 82.3528 258.171C80.4219 264.445 78.3516 271.173 74.0943 276.534C67.9003 284.334 51.7529 285.537 37.2716 280.143C62.5439 313.279 102.44 334.662 147.331 334.662C203.398 334.662 251.674 301.307 273.399 253.357C258.941 256.151 248.919 266.017 240.719 275.189C219.782 298.607 203.779 264.842 212.61 234.696C215.419 225.105 217.773 216.284 217.5 209C215.402 153.059 205.149 128.283 199.328 114.214L199.328 114.214C196.824 108.163 195.139 104.093 195.276 100.376C195.517 93.8148 195.775 86.7803 198.5 80.5ZM11.2708 252.947C4.00947 235.517 0 216.392 0 196.331C0 114.962 65.9624 49 147.331 49C228.7 49 294.662 114.962 294.662 196.331C294.662 277.7 228.7 343.662 147.331 343.662C91.3463 343.662 42.6547 312.436 17.7234 266.45C14.691 262.602 12.4195 258.101 11.2708 252.947ZM153 327C167.359 327 179 315.359 179 301C179 286.641 174.359 258 160 258C145.641 258 119 286.641 119 301C119 315.359 138.641 327 153 327Z" fill="url(#paint0_linear_300_8)"/>
<g filter="url(#filter1_di_300_8)">
<circle cx="325.5" cy="48.5" r="48.5" fill="#121212"/>
<circle cx="325.5" cy="48.5" r="44.5" stroke="url(#paint1_linear_300_8)" stroke-width="8"/>
</g>
<defs>
<filter id="filter0_i_300_8" x="0" y="49" width="303.545" height="294.663" filterUnits="userSpaceOnUse" color-interpolation-filters="sRGB">
<feFlood flood-opacity="0" result="BackgroundImageFix"/>
<feBlend mode="normal" in="SourceGraphic" in2="BackgroundImageFix" result="shape"/>
<feColorMatrix in="SourceAlpha" type="matrix" values="0 0 0 0 0 0 0 0 0 0 0 0 0 0 0 0 0 0 127 0" result="hardAlpha"/>
<feOffset dx="8.88266"/>
<feGaussianBlur stdDeviation="17.7653"/>
<feComposite in2="hardAlpha" operator="arithmetic" k2="-1" k3="1"/>
<feColorMatrix type="matrix" values="0 0 0 0 1 0 0 0 0 1 0 0 0 0 1 0 0 0 0.25 0"/>
<feBlend mode="normal" in2="shape" result="effect1_innerShadow_300_8"/>
</filter>
<filter id="filter1_di_300_8" x="259.235" y="0" width="132.531" height="132.531" filterUnits="userSpaceOnUse" color-interpolation-filters="sRGB">
<feFlood flood-opacity="0" result="BackgroundImageFix"/>
<feColorMatrix in="SourceAlpha" type="matrix" values="0 0 0 0 0 0 0 0 0 0 0 0 0 0 0 0 0 0 127 0" result="hardAlpha"/>
<feOffset dy="17.7653"/>
<feGaussianBlur stdDeviation="8.88266"/>
<feComposite in2="hardAlpha" operator="out"/>
<feColorMatrix type="matrix" values="0 0 0 0 0 0 0 0 0 0 0 0 0 0 0 0 0 0 0.25 0"/>
<feBlend mode="normal" in2="BackgroundImageFix" result="effect1_dropShadow_300_8"/>
<feBlend mode="normal" in="SourceGraphic" in2="effect1_dropShadow_300_8" result="shape"/>
<feColorMatrix in="SourceAlpha" type="matrix" values="0 0 0 0 0 0 0 0 0 0 0 0 0 0 0 0 0 0 127 0" result="hardAlpha"/>
<feOffset dx="8.88266"/>
<feGaussianBlur stdDeviation="17.7653"/>
<feComposite in2="hardAlpha" operator="arithmetic" k2="-1" k3="1"/>
<feColorMatrix type="matrix" values="0 0 0 0 1 0 0 0 0 1 0 0 0 0 1 0 0 0 0.25 0"/>
<feBlend mode="normal" in2="shape" result="effect2_innerShadow_300_8"/>
</filter>
<linearGradient id="paint0_linear_300_8" x1="232.851" y1="68.2219" x2="17.6935" y2="301.071" gradientUnits="userSpaceOnUse">
<stop offset="0.117708" stop-color="white"/>
<stop offset="0.632234" stop-color="white" stop-opacity="0.392708"/>
<stop offset="1" stop-color="white" stop-opacity="0"/>
</linearGradient>
<linearGradient id="paint1_linear_300_8" x1="364.136" y1="-3.28813" x2="300.839" y2="106.042" gradientUnits="userSpaceOnUse">
<stop stop-color="white"/>
<stop offset="0.461458" stop-color="white" stop-opacity="0.392708"/>
<stop offset="1" stop-color="white" stop-opacity="0"/>
</linearGradient>
</defs>
</svg>
